{"glyphs":{"0":{"ha":492,"x_min":55,"x_max":489,"o":"m 278 -543 l 278 -543 q 375 -543 435 -454 l 435 -454 q 489 -373 489 -261 l 489 -261 q 489 -152 437 -80 l 437 -80 q 378 1 272 1 l 272 1 q 170 1 109 -84 l 109 -84 q 55 -159 55 -270 l 55 -270 q 55 -381 111 -458 l 111 -458 q 173 -543 278 -543 z m 272 -453 l 272 -453 q 227 -453 200 -403 l 200 -403 q 176 -360 176 -272 l 176 -272 q 176 -177 200 -134 l 200 -134 q 227 -86 273 -86 l 273 -86 q 316 -86 341 -137 l 341 -137 q 364 -182 364 -279 l 364 -279 q 364 -365 342 -406 l 342 -406 q 316 -453 272 -453 z"},"1":{"ha":271,"x_min":55,"x_max":269,"o":"m 153 -67 l 153 -420 l 104 -417 q 81 -418 67 -435 l 67 -435 q 55 -452 55 -476 l 55 -476 q 55 -495 67 -513 l 67 -513 q 81 -528 104 -528 l 104 -528 l 228 -528 q 239 -528 254 -514 l 254 -514 q 269 -500 269 -489 l 269 -489 l 269 -72 q 269 -37 251 -20 l 251 -20 q 233 0 210 0 l 210 0 q 188 0 171 -18 l 171 -18 q 153 -37 153 -67 l 153 -67 z"},"2":{"ha":414,"x_min":55,"x_max":411,"o":"m 286 -383 l 286 -383 q 286 -391 275 -405 q 265 -420 256 -428 l 256 -428 q 252 -432 245 -432 q 238 -433 229 -431 q 220 -430 216 -430 l 216 -430 q 193 -430 177 -411 l 177 -411 q 171 -405 168 -395 q 166 -384 166 -366 q 165 -349 164 -340 l 164 -340 q 158 -304 122 -304 l 122 -304 q 97 -304 77 -320 l 77 -320 q 59 -336 59 -361 l 59 -361 q 59 -369 60 -374 l 60 -374 q 74 -452 125 -496 l 125 -496 q 170 -534 231 -534 l 231 -534 q 299 -534 347 -490 l 347 -490 q 398 -443 398 -370 l 398 -370 q 398 -322 371 -271 l 371 -271 q 351 -233 307 -184 l 307 -184 l 233 -107 l 369 -110 q 388 -110 399 -93 q 411 -75 411 -50 l 411 -50 q 411 -28 400 -15 l 400 -15 q 390 2 369 2 l 369 2 l 102 2 q 80 2 68 -12 l 68 -12 q 55 -27 55 -48 l 55 -48 q 55 -59 64 -69 q 73 -80 94 -96 q 114 -111 122 -119 l 122 -119 q 176 -170 228 -236 l 228 -236 q 286 -313 286 -383 z"},"3":{"ha":423,"x_min":55,"x_max":420,"o":"m 301 -386 l 301 -386 q 286 -436 247 -436 l 247 -436 q 223 -436 196 -418 l 196 -418 q 171 -402 154 -377 l 154 -377 q 144 -360 106 -360 l 106 -360 q 88 -360 74 -377 q 61 -394 61 -416 l 61 -416 q 61 -442 79 -469 l 79 -469 q 111 -513 147 -529 q 184 -546 245 -546 l 245 -546 q 313 -546 354 -501 l 354 -501 q 393 -461 393 -402 l 393 -402 q 393 -331 339 -288 l 339 -288 q 420 -242 420 -162 l 420 -162 q 420 -100 370 -51 l 370 -51 q 318 -1 242 -1 l 242 -1 q 190 -1 144 -23 l 144 -23 q 92 -50 65 -97 l 65 -97 q 55 -116 55 -136 l 55 -136 q 55 -161 71 -181 l 71 -181 q 87 -199 107 -199 l 107 -199 q 119 -199 136 -191 q 152 -183 159 -172 l 159 -172 q 177 -143 193 -130 l 193 -130 q 216 -113 250 -113 l 250 -113 q 277 -113 293 -131 l 293 -131 q 308 -146 308 -168 l 308 -168 q 308 -188 294 -201 l 294 -201 q 281 -216 256 -216 l 256 -216 q 223 -216 205 -234 l 205 -234 q 188 -251 188 -276 l 188 -276 q 188 -303 205 -320 l 205 -320 q 223 -340 253 -340 l 253 -340 q 272 -340 287 -351 l 287 -351 q 302 -362 302 -378 l 302 -378 q 302 -383 301 -386 z"},"4":{"ha":516,"x_min":55,"x_max":513,"o":"m 420 -431 l 420 -431 l 420 -226 l 450 -226 q 479 -226 497 -208 l 497 -208 q 513 -192 513 -170 l 513 -170 q 513 -149 499 -134 l 499 -134 q 481 -116 455 -116 l 455 -116 l 420 -116 l 420 -62 q 420 -33 403 -18 l 403 -18 q 387 -1 363 -1 l 363 -1 q 341 -1 324 -18 l 324 -18 q 307 -33 307 -62 l 307 -62 l 308 -116 l 103 -116 q 78 -116 66 -134 l 66 -134 q 55 -150 55 -172 l 55 -172 q 55 -189 63 -203 l 63 -203 l 230 -454 q 275 -521 337 -521 l 337 -521 q 373 -521 396 -497 q 420 -473 420 -431 z m 318 -226 l 318 -411 l 195 -226 l 318 -226 z"},"5":{"ha":411,"x_min":55,"x_max":408,"o":"m 170 -530 l 170 -530 l 353 -530 q 376 -530 391 -513 l 391 -513 q 403 -497 403 -476 l 403 -476 q 403 -452 391 -438 l 391 -438 q 378 -422 353 -422 l 353 -422 l 209 -422 l 203 -365 q 234 -374 258 -374 l 258 -374 q 326 -374 369 -318 l 369 -318 q 408 -268 408 -194 l 408 -194 q 408 -114 362 -62 l 362 -62 q 310 -2 215 -2 l 215 -2 q 127 -2 79 -45 l 79 -45 q 55 -67 55 -101 l 55 -101 q 55 -123 68 -142 l 68 -142 q 83 -158 104 -158 l 104 -158 q 110 -158 141 -141 l 141 -141 q 153 -134 165 -125 l 165 -125 l 177 -116 q 200 -105 235 -105 l 235 -105 q 273 -105 291 -127 l 291 -127 q 300 -137 308 -159 q 316 -182 316 -195 l 316 -195 q 316 -224 290 -260 l 290 -260 q 271 -286 238 -286 l 238 -286 q 224 -286 204 -272 l 204 -272 q 194 -265 174 -256 q 154 -248 144 -248 l 144 -248 q 121 -248 106 -257 l 106 -257 q 88 -268 91 -287 l 91 -287 l 112 -484 q 118 -530 170 -530 z"},"6":{"ha":427,"x_min":55,"x_max":424,"o":"m 55 -200 l 55 -200 q 55 -265 114 -357 l 114 -357 q 163 -435 224 -497 l 224 -497 q 255 -528 287 -528 l 287 -528 q 309 -528 325 -514 l 325 -514 q 341 -498 341 -478 l 341 -478 q 341 -456 325 -437 l 325 -437 l 238 -336 q 248 -337 265 -337 l 265 -337 q 338 -337 383 -286 l 383 -286 q 424 -239 424 -172 l 424 -172 q 424 -102 376 -55 l 376 -55 q 320 -1 223 -1 l 223 -1 q 142 -1 97 -63 l 97 -63 q 55 -117 55 -200 z m 261 -241 l 261 -241 q 218 -241 200 -223 l 200 -223 q 185 -204 185 -173 l 185 -173 q 185 -146 199 -128 l 199 -128 q 217 -106 243 -106 l 243 -106 q 292 -106 311 -125 l 311 -125 q 328 -145 328 -179 l 328 -179 q 328 -203 312 -222 l 312 -222 q 293 -241 261 -241 z"},"7":{"ha":410,"x_min":55,"x_max":407,"o":"m 129 -109 l 278 -421 l 112 -421 q 89 -421 77 -436 l 77 -436 q 75 -437 65 -447 q 55 -456 55 -464 l 55 -464 q 55 -486 66 -504 q 78 -521 97 -521 l 97 -521 l 354 -521 q 373 -521 391 -501 l 391 -501 q 407 -479 407 -460 l 407 -460 q 407 -453 404 -447 l 404 -447 l 221 -44 q 202 -2 162 -2 l 162 -2 q 141 -2 124 -17 l 124 -17 q 108 -32 108 -59 l 108 -59 q 108 -64 112 -73 q 115 -82 121 -94 q 127 -105 129 -109 l 129 -109 z"},"8":{"ha":444,"x_min":56,"x_max":441,"o":"m 124 -294 l 124 -294 q 76 -335 76 -393 l 76 -393 q 76 -451 126 -498 l 126 -498 q 177 -544 249 -544 l 249 -544 q 322 -544 371 -494 l 371 -494 q 416 -449 416 -389 l 416 -389 q 416 -334 374 -299 l 374 -299 q 441 -240 441 -164 l 441 -164 q 441 -97 391 -49 l 391 -49 q 336 0 251 0 l 251 0 q 160 0 104 -59 l 104 -59 q 52 -113 56 -183 l 56 -183 q 59 -254 124 -294 z m 246 -265 l 246 -265 q 216 -265 198 -245 l 198 -245 q 182 -228 182 -199 l 182 -199 q 182 -156 198 -139 l 198 -139 q 217 -118 249 -118 l 249 -118 q 283 -118 300 -138 l 300 -138 q 317 -155 317 -195 l 317 -195 q 317 -222 299 -243 l 299 -243 q 277 -265 246 -265 z m 249 -326 l 249 -326 q 271 -326 283 -342 l 283 -342 q 295 -357 295 -379 l 295 -379 q 295 -413 283 -428 l 283 -428 q 270 -443 246 -443 l 246 -443 q 224 -443 211 -428 l 211 -428 q 198 -414 198 -378 l 198 -378 q 198 -355 212 -342 l 212 -342 q 225 -326 249 -326 z"},"9":{"ha":427,"x_min":55,"x_max":424,"o":"m 424 -332 l 424 -332 q 424 -270 365 -174 l 365 -174 q 320 -102 255 -35 l 255 -35 q 225 -3 191 -3 l 191 -3 q 171 -3 153 -19 l 153 -19 q 139 -33 139 -55 q 139 -76 153 -95 l 153 -95 l 240 -196 q 223 -194 214 -194 l 214 -194 q 143 -194 97 -245 l 97 -245 q 55 -293 55 -359 l 55 -359 q 55 -428 103 -478 l 103 -478 q 156 -530 256 -530 l 256 -530 q 338 -530 383 -469 l 383 -469 q 424 -414 424 -332 z m 218 -290 l 218 -290 q 261 -290 278 -310 l 278 -310 q 294 -328 294 -358 l 294 -358 q 294 -385 279 -404 l 279 -404 q 264 -425 236 -425 l 236 -425 q 186 -425 168 -407 l 168 -407 q 150 -389 150 -354 l 150 -354 q 150 -328 167 -310 l 167 -310 q 187 -290 218 -290 z"},"\f":{"ha":331,"x_min":0,"x_max":0,"o":""},"\r":{"ha":226,"x_min":0,"x_max":0,"o":""}," ":{"ha":274,"x_min":0,"x_max":0,"o":""},"!":{"ha":188,"x_min":55,"x_max":186,"o":"m 124 -145 l 124 -145 q 153 -145 171 -124 l 171 -124 q 186 -106 186 -80 l 186 -80 q 186 -53 171 -35 l 171 -35 q 153 -15 124 -15 l 124 -15 q 91 -15 73 -34 l 73 -34 q 55 -55 55 -80 l 55 -80 q 55 -106 72 -124 l 72 -124 q 92 -145 124 -145 z m 63 -230 l 63 -230 l 63 -461 q 63 -496 82 -516 l 82 -516 q 97 -534 120 -534 q 144 -534 159 -516 l 159 -516 q 178 -496 178 -461 l 178 -461 l 178 -230 q 178 -200 160 -183 l 160 -183 q 142 -166 120 -166 l 120 -166 q 97 -166 82 -182 l 82 -182 q 63 -200 63 -230 z"},"\"":{"ha":297,"x_min":55,"x_max":294,"o":"m 198 -403 l 198 -535 q 198 -558 213 -569 l 213 -569 q 226 -582 246 -582 l 246 -582 q 264 -582 279 -569 l 279 -569 q 294 -558 294 -535 l 294 -535 l 294 -403 q 294 -381 279 -368 l 279 -368 q 266 -356 246 -356 q 227 -356 213 -368 l 213 -368 q 198 -381 198 -403 l 198 -403 z m 55 -403 l 55 -403 l 55 -535 q 55 -558 69 -569 l 69 -569 q 84 -582 103 -582 q 121 -582 137 -569 l 137 -569 q 151 -557 151 -535 l 151 -535 l 151 -403 q 151 -382 138 -368 l 138 -368 q 123 -356 104 -356 q 84 -356 69 -368 l 69 -368 q 55 -381 55 -403 z"},"#":{"ha":457,"x_min":55,"x_max":455,"o":"m 226 -294 l 214 -222 l 280 -222 l 293 -294 l 226 -294 z m 134 -222 l 146 -294 q 109 -294 99 -297 l 99 -297 q 77 -304 77 -329 q 77 -354 106 -360 l 106 -360 q 120 -362 158 -362 l 158 -362 l 176 -465 q 179 -487 192 -499 l 192 -499 q 205 -512 223 -512 l 223 -512 q 237 -512 247 -502 q 257 -492 257 -476 l 257 -476 q 257 -469 256 -465 l 256 -465 l 237 -362 l 304 -362 l 321 -465 q 332 -512 366 -512 l 366 -512 q 381 -512 392 -501 l 392 -501 q 401 -491 401 -475 l 401 -475 q 401 -468 400 -465 l 400 -465 l 382 -362 q 415 -362 431 -358 l 431 -358 q 455 -352 455 -325 l 455 -325 q 455 -302 423 -296 l 423 -296 q 416 -294 371 -294 l 371 -294 l 358 -222 q 395 -222 404 -219 l 404 -219 q 427 -212 427 -187 l 427 -187 q 427 -162 398 -156 l 398 -156 q 390 -153 347 -153 l 347 -153 l 328 -51 q 325 -35 312 -27 l 312 -27 q 300 -20 281 -20 l 281 -20 q 266 -20 256 -26 l 256 -26 q 246 -34 249 -46 l 249 -46 l 268 -153 l 200 -153 l 182 -51 q 179 -34 165 -26 l 165 -26 q 152 -18 134 -18 l 134 -18 q 119 -18 109 -24 l 109 -24 q 100 -34 103 -46 l 103 -46 l 121 -153 q 85 -153 76 -156 l 76 -156 q 55 -163 55 -187 l 55 -187 q 55 -213 83 -219 l 83 -219 q 94 -222 134 -222 l 134 -222 z"},"$":{"ha":361,"x_min":57,"x_max":354,"o":"m 63 -345 l 63 -345 q 49 -375 61 -404 q 72 -433 99 -452 l 99 -452 q 133 -478 187 -482 l 187 -482 q 188 -521 194 -550 l 194 -550 q 196 -559 199 -562 q 202 -565 206 -565 q 209 -564 213 -564 q 217 -564 220 -565 q 223 -565 226 -562 q 229 -559 231 -550 l 231 -550 q 238 -521 239 -482 l 239 -482 q 275 -478 309 -467 l 309 -467 q 331 -459 342 -444 l 342 -444 q 354 -430 354 -409 l 354 -409 q 354 -392 341 -380 l 341 -380 q 329 -368 306 -368 l 306 -368 q 287 -368 264 -377 l 264 -377 l 239 -386 l 239 -300 q 255 -296 271 -291 q 288 -285 302 -279 q 316 -272 330 -261 q 343 -249 352 -233 l 352 -233 q 364 -200 352 -171 q 339 -142 312 -121 q 284 -101 239 -93 l 239 -93 q 239 -54 231 -28 l 231 -28 q 229 -21 226 -17 q 223 -14 220 -14 q 217 -14 213 -14 q 209 -14 206 -13 q 202 -13 199 -16 q 196 -19 194 -26 l 194 -26 q 188 -48 187 -91 l 187 -91 q 147 -92 102 -106 l 102 -106 q 80 -114 68 -129 l 68 -129 q 57 -145 57 -168 l 57 -168 q 57 -185 69 -196 l 69 -196 q 82 -208 104 -208 l 104 -208 q 123 -208 146 -199 l 146 -199 q 150 -198 165 -192 q 179 -187 187 -185 l 187 -185 l 187 -273 q 170 -277 152 -284 q 135 -290 119 -297 q 104 -304 88 -316 q 73 -328 63 -345 z m 239 -250 l 239 -250 l 239 -186 q 266 -199 266 -221 l 266 -221 q 266 -233 239 -250 z m 187 -322 l 187 -322 l 187 -393 q 156 -387 156 -354 l 156 -354 q 156 -341 187 -322 z"},"%":{"ha":447,"x_min":55,"x_max":444,"o":"m 378 -377 l 378 -377 l 168 -18 q 158 0 138 0 l 138 0 q 123 0 114 -9 l 114 -9 q 104 -18 104 -32 q 104 -47 113 -62 l 113 -62 l 318 -413 q 330 -434 352 -434 l 352 -434 q 365 -434 375 -424 l 375 -424 q 385 -415 385 -400 l 385 -400 q 385 -388 378 -377 z m 353 -84 l 353 -84 q 375 -84 375 -105 l 375 -105 q 375 -130 353 -130 l 353 -130 q 329 -130 329 -107 l 329 -107 q 329 -97 335 -91 l 335 -91 q 342 -84 353 -84 z m 146 -427 l 146 -427 q 188 -427 214 -396 l 214 -396 q 236 -369 236 -331 q 236 -293 214 -265 l 214 -265 q 187 -234 146 -234 l 146 -234 q 102 -234 77 -265 l 77 -265 q 55 -292 55 -329 l 55 -329 q 55 -369 78 -396 l 78 -396 q 103 -427 146 -427 z m 146 -354 l 146 -354 q 122 -354 122 -332 l 122 -332 q 122 -322 128 -314 l 128 -314 q 135 -308 146 -308 l 146 -308 q 168 -308 168 -330 l 168 -330 q 168 -354 146 -354 z m 353 -203 l 353 -203 q 396 -203 421 -173 l 421 -173 q 444 -145 444 -105 l 444 -105 q 444 -68 422 -41 l 422 -41 q 396 -12 353 -12 q 309 -12 284 -42 l 284 -42 q 261 -68 261 -107 q 261 -146 284 -173 l 284 -173 q 309 -203 353 -203 z"},"&":{"ha":449,"x_min":55,"x_max":446,"o":"m 146 -264 l 146 -264 q 112 -301 112 -345 l 112 -345 q 112 -390 146 -420 l 146 -420 q 180 -450 233 -450 l 233 -450 q 286 -450 319 -417 l 319 -417 q 351 -386 351 -343 l 351 -343 q 351 -273 283 -237 l 283 -237 l 339 -174 q 352 -187 378 -222 l 378 -222 q 390 -236 406 -236 q 423 -236 435 -225 q 446 -213 446 -196 l 446 -196 q 446 -182 437 -169 l 437 -169 q 416 -141 394 -113 l 394 -113 l 425 -73 q 437 -59 437 -42 l 437 -42 q 437 -26 426 -16 l 426 -16 q 416 -4 400 -4 l 400 -4 q 382 -4 364 -22 l 364 -22 q 349 -36 328 -60 l 328 -60 q 273 -5 205 -5 l 205 -5 q 145 -5 100 -44 l 100 -44 q 55 -84 55 -137 l 55 -137 q 55 -211 146 -264 z m 265 -351 q 265 -383 233 -383 q 202 -383 202 -356 l 202 -356 q 202 -340 212 -321 l 212 -321 q 223 -303 233 -291 l 233 -291 q 247 -301 256 -317 l 256 -317 q 265 -335 265 -351 l 265 -351 z m 292 -143 l 292 -143 l 215 -225 q 190 -210 168 -183 q 146 -155 146 -139 l 146 -139 q 146 -120 168 -103 l 168 -103 q 188 -88 214 -88 l 214 -88 q 230 -88 254 -106 q 278 -124 292 -143 z"},"'":{"ha":207,"x_min":55,"x_max":200,"o":"m 195 -523 l 195 -523 l 136 -423 q 121 -396 96 -396 l 96 -396 q 79 -396 67 -408 l 67 -408 q 55 -420 55 -437 l 55 -437 q 55 -450 64 -470 l 64 -470 l 114 -555 q 137 -593 168 -593 l 168 -593 q 191 -593 200 -572 l 200 -572 q 212 -552 195 -523 z"},"(":{"ha":181,"x_min":55,"x_max":178,"o":"m 170 -458 l 170 -458 q 132 -365 132 -275 l 132 -275 q 132 -185 174 -59 l 174 -59 q 178 -50 178 -40 l 178 -40 q 178 -24 167 -12 l 167 -12 q 157 -1 142 -1 l 142 -1 q 120 -1 103 -25 l 103 -25 q 80 -58 66 -127 l 66 -127 q 55 -188 55 -265 l 55 -265 q 55 -425 98 -494 l 98 -494 q 115 -523 141 -523 l 141 -523 q 154 -523 165 -513 q 176 -502 176 -484 l 176 -484 q 176 -473 170 -458 z"},")":{"ha":181,"x_min":55,"x_max":178,"o":"m 63 -462 l 63 -462 q 58 -479 58 -488 l 58 -488 q 58 -507 67 -517 l 67 -517 q 78 -527 92 -527 l 92 -527 q 117 -527 135 -498 l 135 -498 q 178 -429 178 -269 l 178 -269 q 178 -192 166 -131 l 166 -131 q 152 -62 130 -29 l 130 -29 q 114 -5 90 -5 l 90 -5 q 75 -5 65 -16 l 65 -16 q 55 -28 55 -44 l 55 -44 q 55 -54 59 -62 l 59 -62 q 100 -186 100 -279 l 100 -279 q 100 -372 63 -462 z"},"*":{"ha":261,"x_min":55,"x_max":258,"o":"m 73 -429 l 98 -445 l 69 -457 q 55 -465 55 -481 l 55 -481 q 55 -495 63 -504 l 63 -504 q 72 -514 86 -514 q 100 -514 129 -490 l 129 -490 q 128 -503 126 -513 q 125 -522 125 -526 q 124 -530 124 -529 l 124 -529 q 124 -553 158 -553 l 158 -553 q 172 -553 180 -546 l 180 -546 q 189 -539 188 -526 l 188 -526 l 184 -490 q 216 -514 227 -514 l 227 -514 q 240 -514 249 -504 l 249 -504 q 258 -492 258 -480 l 258 -480 q 258 -465 244 -457 l 244 -457 q 234 -453 217 -445 l 217 -445 l 241 -428 q 257 -416 257 -403 l 257 -403 q 257 -392 249 -384 l 249 -384 q 242 -375 229 -375 l 229 -375 q 219 -375 205 -384 l 205 -384 l 184 -399 l 188 -363 q 188 -351 178 -344 l 178 -344 q 168 -339 156 -339 q 145 -339 135 -345 l 135 -345 q 124 -353 125 -363 l 125 -363 l 129 -399 l 109 -384 q 98 -375 86 -375 q 74 -375 66 -384 l 66 -384 q 58 -393 58 -404 l 58 -404 q 58 -417 73 -429 l 73 -429 z"},"+":{"ha":389,"x_min":55,"x_max":386,"o":"m 93 -248 l 178 -248 l 178 -335 l 182 -347 q 186 -358 190 -362 l 190 -362 q 203 -372 220 -372 q 236 -372 249 -362 l 249 -362 q 261 -354 261 -335 l 261 -335 l 261 -248 l 349 -248 q 366 -248 376 -235 l 376 -235 q 386 -225 386 -207 q 386 -189 376 -179 l 376 -179 q 366 -166 349 -166 l 349 -166 l 261 -166 l 261 -80 q 261 -62 249 -52 l 249 -52 q 238 -42 220 -42 l 220 -42 q 203 -42 190 -52 l 190 -52 q 178 -62 178 -80 l 178 -80 l 178 -166 l 93 -166 q 74 -166 64 -178 l 64 -178 q 55 -190 55 -206 l 55 -206 q 55 -223 65 -236 l 65 -236 q 76 -248 93 -248 l 93 -248 z"},",":{"ha":204,"x_min":55,"x_max":202,"o":"m 194 -32 l 194 -32 l 136 67 q 121 91 97 91 l 97 91 q 80 91 67 79 l 67 79 q 55 66 55 50 l 55 50 q 55 36 63 22 l 63 22 l 112 -64 q 130 -93 158 -93 l 158 -93 q 178 -93 188 -82 l 188 -82 q 202 -71 202 -56 l 202 -56 q 202 -45 194 -32 z"},"-":{"ha":274,"x_min":55,"x_max":271,"o":"m 92 -254 l 233 -254 q 251 -254 261 -241 l 261 -241 q 271 -229 271 -212 l 271 -212 q 271 -196 262 -184 l 262 -184 q 252 -172 233 -172 l 233 -172 l 92 -172 q 74 -172 64 -184 l 64 -184 q 55 -196 55 -212 l 55 -212 q 55 -229 64 -241 q 74 -254 92 -254 l 92 -254 z"},".":{"ha":179,"x_min":55,"x_max":176,"o":"m 117 -126 l 117 -126 q 145 -126 160 -107 l 160 -107 q 176 -87 176 -62 q 176 -38 161 -21 l 161 -21 q 145 -1 117 -1 l 117 -1 q 88 -1 70 -21 l 70 -21 q 55 -41 55 -64 l 55 -64 q 55 -89 71 -107 l 71 -107 q 87 -126 117 -126 z"},"/":{"ha":410,"x_min":58,"x_max":383,"o":"m 293 -531 l 293 -531 l 66 -87 q 58 -70 58 -56 l 58 -56 q 58 -36 68 -26 l 68 -26 q 80 -15 95 -15 l 95 -15 q 123 -15 140 -47 l 140 -47 l 379 -509 q 383 -516 383 -526 l 383 -526 q 383 -544 370 -557 l 370 -557 q 358 -570 342 -570 l 342 -570 q 314 -570 293 -531 z"},":":{"ha":162,"x_min":55,"x_max":160,"o":"m 110 -393 l 110 -393 q 133 -393 147 -376 l 147 -376 q 160 -360 160 -340 q 160 -319 147 -304 q 135 -288 110 -288 l 110 -288 q 85 -288 70 -304 l 70 -304 q 55 -319 55 -341 q 55 -362 69 -377 l 69 -377 q 84 -393 110 -393 z m 110 -215 l 110 -215 q 133 -215 147 -198 l 147 -198 q 160 -183 160 -162 l 160 -162 q 160 -143 147 -127 l 147 -127 q 134 -110 110 -110 l 110 -110 q 84 -110 69 -126 l 69 -126 q 55 -143 55 -162 l 55 -162 q 55 -184 69 -199 l 69 -199 q 85 -215 110 -215 z"},";":{"ha":205,"x_min":55,"x_max":202,"o":"m 152 -261 l 152 -261 q 177 -261 189 -245 l 189 -245 q 202 -231 202 -209 l 202 -209 q 202 -187 190 -173 l 190 -173 q 176 -157 152 -157 l 152 -157 q 126 -157 111 -173 l 111 -173 q 97 -189 97 -210 l 97 -210 q 97 -231 111 -246 q 126 -261 152 -261 z m 63 39 l 63 39 l 118 -61 q 134 -92 162 -92 l 162 -92 q 178 -92 190 -81 l 190 -81 q 202 -69 202 -55 l 202 -55 q 202 -45 198 -38 l 198 -38 l 136 84 q 122 109 97 109 l 97 109 q 79 109 67 98 l 67 98 q 55 87 55 68 l 55 68 q 55 54 63 39 z"},"<":{"ha":377,"x_min":55,"x_max":374,"o":"m 99 -303 l 99 -303 l 305 -399 q 317 -406 332 -406 l 332 -406 q 349 -406 361 -396 l 361 -396 q 372 -385 372 -369 l 372 -369 q 372 -343 341 -330 l 341 -330 l 166 -259 l 341 -180 q 374 -165 374 -139 l 374 -139 q 374 -127 364 -117 l 364 -117 q 354 -108 339 -108 l 339 -108 q 326 -108 309 -116 l 309 -116 l 95 -212 q 55 -229 55 -255 l 55 -255 q 55 -283 99 -303 z"},"=":{"ha":387,"x_min":55,"x_max":384,"o":"m 97 -350 l 339 -350 q 359 -350 372 -337 l 372 -337 q 384 -324 384 -307 l 384 -307 q 384 -291 373 -280 l 373 -280 q 363 -269 344 -269 l 344 -269 l 97 -269 q 76 -269 66 -280 l 66 -280 q 55 -292 55 -310 l 55 -310 q 55 -324 66 -338 l 66 -338 q 68 -341 63 -344 q 59 -348 64 -349 q 69 -350 97 -350 l 97 -350 z m 100 -213 l 339 -213 q 360 -213 372 -199 l 372 -199 q 384 -187 384 -170 l 384 -170 q 384 -156 374 -144 l 374 -144 q 362 -132 344 -132 l 344 -132 l 102 -132 q 79 -132 66 -145 l 66 -145 q 56 -157 56 -173 l 56 -173 q 56 -187 67 -201 l 67 -201 q 79 -213 100 -213 l 100 -213 z"},">":{"ha":377,"x_min":55,"x_max":374,"o":"m 330 -303 l 330 -303 l 124 -399 q 110 -406 97 -406 l 97 -406 q 80 -406 67 -396 l 67 -396 q 56 -384 56 -369 l 56 -369 q 56 -344 88 -330 l 88 -330 l 262 -259 l 88 -180 q 55 -165 55 -139 l 55 -139 q 55 -127 64 -117 l 64 -117 q 74 -108 90 -108 l 90 -108 q 103 -108 120 -116 l 120 -116 l 334 -212 q 374 -229 374 -255 l 374 -255 q 374 -283 330 -303 z"},"?":{"ha":375,"x_min":55,"x_max":371,"o":"m 205 -141 l 205 -141 q 232 -141 248 -122 l 248 -122 q 264 -102 264 -77 q 264 -53 249 -35 l 249 -35 q 233 -17 205 -17 l 205 -17 q 176 -17 158 -35 l 158 -35 q 143 -56 143 -79 l 143 -79 q 143 -104 159 -123 l 159 -123 q 176 -141 205 -141 z m 104 -352 l 104 -352 q 81 -352 67 -368 l 67 -368 q 55 -386 55 -409 l 55 -409 q 55 -460 107 -498 l 107 -498 q 153 -531 205 -531 l 205 -531 q 287 -531 333 -482 l 333 -482 q 371 -439 371 -375 l 371 -375 q 371 -316 341 -276 l 341 -276 q 309 -231 258 -231 l 258 -231 l 258 -201 q 258 -160 213 -160 l 213 -160 q 189 -160 173 -173 l 173 -173 q 153 -187 153 -210 l 153 -210 l 153 -280 q 153 -303 179 -313 l 179 -313 l 226 -327 q 239 -332 252 -343 q 266 -354 267 -361 l 267 -361 q 274 -440 234 -440 l 234 -440 q 201 -440 180 -410 l 180 -410 q 167 -393 142 -372 q 117 -352 104 -352 z"},"@":{"ha":566,"x_min":55,"x_max":563,"o":"m 55 -276 l 55 -276 q 55 -381 134 -460 l 134 -460 q 214 -538 317 -538 l 317 -538 q 438 -538 505 -469 l 505 -469 q 563 -408 563 -319 l 563 -319 q 563 -239 518 -182 l 518 -182 q 468 -121 391 -121 l 391 -121 q 352 -121 350 -155 l 350 -155 q 310 -128 270 -128 l 270 -128 q 227 -128 200 -158 l 200 -158 q 172 -192 172 -249 l 172 -249 q 172 -314 216 -363 l 216 -363 q 257 -409 310 -409 l 310 -409 q 356 -409 389 -368 l 389 -368 q 392 -382 402 -395 l 402 -395 q 412 -406 428 -406 l 428 -406 q 455 -406 455 -361 l 455 -361 q 455 -337 444 -283 l 444 -283 q 434 -229 433 -206 l 433 -206 q 438 -204 442 -204 l 442 -204 q 468 -204 485 -233 l 485 -233 q 503 -264 503 -305 l 503 -305 q 503 -369 463 -414 l 463 -414 q 416 -468 326 -468 l 326 -468 q 231 -468 180 -401 l 180 -401 q 135 -346 133 -258 l 133 -258 q 133 -180 194 -130 l 194 -130 q 252 -83 331 -83 l 331 -83 q 374 -83 438 -110 l 438 -110 q 449 -115 458 -115 l 458 -115 q 471 -115 479 -106 l 479 -106 q 486 -97 486 -87 l 486 -87 q 486 -66 464 -56 l 464 -56 q 436 -43 387 -30 l 387 -30 q 341 -20 322 -20 l 322 -20 q 201 -20 129 -87 l 129 -87 q 55 -158 55 -276 z m 371 -274 l 371 -274 q 371 -299 354 -313 q 336 -328 313 -328 q 289 -328 271 -312 l 271 -312 q 252 -293 252 -260 l 252 -260 q 252 -197 296 -197 l 296 -197 q 322 -197 347 -222 l 347 -222 q 371 -245 371 -274 z"},"A":{"ha":526,"x_min":65,"x_max":526,"o":"m 372 -454 l 372 -454 l 522 -67 q 526 -52 526 -45 l 526 -45 q 526 -24 512 -13 q 497 -1 463 -1 l 463 -1 q 424 -1 407 -35 l 407 -35 q 403 -42 388 -99 q 373 -156 366 -172 l 366 -172 l 221 -173 q 220 -169 214 -140 q 208 -111 201 -82 q 194 -52 188 -38 l 188 -38 q 176 0 136 0 l 136 0 q 97 0 81 -13 q 65 -25 65 -46 l 65 -46 q 65 -55 68 -63 l 68 -63 l 207 -454 q 232 -521 289 -521 l 289 -521 q 348 -521 372 -454 z m 293 -387 l 229 -215 l 355 -215 l 293 -387 z"},"B":{"ha":450,"x_min":65,"x_max":449,"o":"m 65 -40 l 65 -464 q 65 -483 79 -501 l 79 -501 q 93 -521 110 -521 l 110 -521 l 288 -521 q 336 -521 371 -479 q 406 -438 406 -388 l 406 -388 q 406 -324 350 -289 l 350 -289 q 399 -281 426 -244 l 426 -244 q 449 -211 449 -162 l 449 -162 q 449 -100 414 -53 l 414 -53 q 375 -1 316 -1 l 316 -1 l 110 -1 q 93 -1 79 -12 q 65 -22 65 -40 l 65 -40 z m 271 -230 l 271 -230 l 185 -230 l 185 -104 l 271 -104 q 311 -104 329 -120 l 329 -120 q 345 -136 345 -156 l 345 -156 q 345 -169 340 -188 q 335 -208 328 -215 l 328 -215 q 313 -230 271 -230 z m 253 -407 l 253 -407 l 185 -407 l 185 -299 l 271 -299 q 300 -299 300 -342 l 300 -342 q 300 -377 290 -393 l 290 -393 q 281 -407 253 -407 z"},"C":{"ha":504,"x_min":65,"x_max":496,"o":"m 285 -99 l 285 -99 q 322 -99 345 -104 l 345 -104 l 375 -117 q 377 -117 396 -123 q 416 -129 418 -129 l 418 -129 q 468 -129 478 -118 l 478 -118 q 496 -101 496 -69 l 496 -69 q 496 -42 464 -27 l 464 -27 q 423 -11 388 -2 l 388 -2 q 352 6 305 6 l 305 6 q 190 6 124 -75 l 124 -75 q 65 -146 65 -253 l 65 -253 q 65 -361 126 -437 l 126 -437 q 188 -513 309 -513 l 309 -513 q 361 -513 387 -507 l 387 -507 q 424 -499 457 -482 l 457 -482 q 473 -475 481 -458 q 489 -440 489 -424 l 489 -424 q 489 -395 479 -384 l 479 -384 q 466 -372 436 -372 l 436 -372 q 433 -372 422 -377 q 411 -383 409 -383 l 409 -383 q 408 -384 352 -401 l 352 -401 q 308 -415 279 -414 l 279 -414 q 223 -412 189 -364 l 189 -364 q 159 -320 159 -252 l 159 -252 q 159 -189 190 -146 l 190 -146 q 226 -99 285 -99 z"},"D":{"ha":497,"x_min":65,"x_max":497,"o":"m 65 -48 l 65 -465 q 65 -485 79 -503 l 79 -503 q 93 -522 110 -522 l 110 -522 l 271 -522 q 377 -522 440 -438 l 440 -438 q 497 -362 497 -257 l 497 -257 q 497 -153 443 -82 l 443 -82 q 383 -3 281 -3 l 281 -3 l 122 -3 q 100 -3 84 -15 l 84 -15 q 65 -26 65 -48 l 65 -48 z m 303 -415 l 303 -415 l 190 -415 l 190 -108 l 265 -108 q 295 -108 330 -122 q 364 -135 379 -158 l 379 -158 q 406 -204 406 -266 l 406 -266 q 406 -324 383 -363 l 383 -363 q 370 -385 347 -400 q 323 -415 303 -415 z"},"E":{"ha":362,"x_min":65,"x_max":361,"o":"m 65 -43 l 65 -472 q 65 -495 79 -509 l 79 -509 q 95 -522 115 -522 l 115 -522 l 305 -522 q 331 -522 345 -503 l 345 -503 q 358 -484 358 -461 l 358 -461 q 358 -435 348 -419 l 348 -419 q 336 -403 314 -403 l 314 -403 l 158 -409 l 158 -310 l 305 -315 q 325 -315 337 -299 l 337 -299 q 350 -282 350 -253 l 350 -253 q 350 -229 340 -213 l 340 -213 q 328 -197 310 -197 l 310 -197 l 158 -202 l 158 -110 l 305 -117 q 332 -117 347 -100 l 347 -100 q 361 -84 361 -54 l 361 -54 q 361 -33 350 -19 l 350 -19 q 339 -3 321 -3 l 321 -3 l 104 -3 q 93 -3 79 -17 l 79 -17 q 65 -27 65 -43 l 65 -43 z"},"F":{"ha":363,"x_min":65,"x_max":362,"o":"m 65 -58 l 65 -58 l 65 -469 q 65 -520 109 -520 l 109 -520 l 310 -520 q 334 -520 349 -502 l 349 -502 q 362 -483 362 -461 l 362 -461 q 362 -432 353 -420 l 353 -420 q 342 -405 322 -405 l 322 -405 l 163 -411 l 163 -328 l 304 -334 q 326 -334 338 -318 l 338 -318 q 351 -303 351 -273 l 351 -273 q 351 -253 339 -238 l 339 -238 q 326 -221 304 -221 l 304 -221 l 163 -221 l 163 -58 q 163 -30 146 -16 l 146 -16 q 129 -1 106 -1 l 106 -1 q 97 -1 92 -4 q 88 -8 82 -16 l 82 -16 q 65 -29 65 -58 z"},"G":{"ha":536,"x_min":65,"x_max":552,"o":"m 319 -511 l 319 -511 q 379 -511 427 -490 q 476 -470 503 -437 l 503 -437 q 506 -434 517 -423 q 528 -412 533 -405 q 538 -397 538 -391 l 538 -391 q 538 -381 510 -350 l 510 -350 q 494 -335 467 -335 l 467 -335 q 460 -335 439 -352 q 418 -369 414 -371 l 414 -371 q 408 -374 393 -385 q 377 -396 362 -400 q 347 -404 323 -404 l 323 -404 q 285 -404 244 -378 q 202 -353 185 -316 l 185 -316 q 153 -247 179 -186 l 179 -186 q 194 -147 237 -118 q 280 -89 322 -89 l 322 -89 q 378 -89 419 -123 q 460 -156 460 -202 l 460 -202 l 341 -186 q 320 -186 308 -201 l 308 -201 q 297 -215 297 -229 l 297 -229 q 297 -262 308 -275 l 308 -275 q 319 -289 341 -289 l 341 -289 l 506 -285 q 552 -285 552 -229 l 552 -229 q 552 -112 497 -57 q 441 -2 326 -2 l 326 -2 q 268 -2 213 -23 q 159 -45 126 -82 l 126 -82 q 65 -149 65 -250 l 65 -250 q 65 -346 140 -433 l 140 -433 q 207 -511 319 -511 z"},"H":{"ha":516,"x_min":65,"x_max":515,"o":"m 65 -56 l 65 -465 q 65 -490 83 -507 l 83 -507 q 98 -521 123 -521 l 123 -521 q 153 -521 169 -508 l 169 -508 q 187 -493 187 -470 l 187 -470 l 179 -321 l 401 -321 l 394 -465 q 394 -490 410 -505 l 410 -505 q 426 -520 456 -520 l 456 -520 q 480 -520 496 -504 l 496 -504 q 515 -485 515 -453 l 515 -453 l 515 -62 q 515 -33 498 -17 l 498 -17 q 480 -1 458 -1 l 458 -1 q 428 -1 410 -16 l 410 -16 q 394 -30 394 -56 l 394 -56 l 401 -235 l 179 -235 l 187 -56 q 187 -30 170 -16 l 170 -16 q 152 -1 121 -1 l 121 -1 q 98 -1 82 -16 l 82 -16 q 65 -29 65 -56 l 65 -56 z"},"I":{"ha":185,"x_min":65,"x_max":188,"o":"m 69 -62 l 69 -62 l 65 -459 q 65 -487 83 -505 l 83 -505 q 100 -520 128 -520 q 156 -520 172 -505 q 188 -490 188 -465 l 188 -465 l 183 -62 q 183 -34 166 -18 l 166 -18 q 149 -2 127 -2 l 127 -2 q 102 -2 86 -18 l 86 -18 q 69 -33 69 -62 z"},"J":{"ha":347,"x_min":65,"x_max":346,"o":"m 346 -470 l 346 -470 l 346 -155 q 346 -80 305 -39 l 305 -39 q 269 -3 211 -3 l 211 -3 q 154 -3 105 -37 l 105 -37 q 65 -65 65 -101 l 65 -101 q 65 -117 85 -137 l 85 -137 q 97 -149 117 -149 l 117 -149 q 123 -149 150 -136 l 150 -136 l 180 -117 q 198 -104 210 -104 l 210 -104 q 236 -104 236 -168 l 236 -168 l 231 -461 q 231 -490 249 -506 l 249 -506 q 256 -512 261 -516 q 266 -521 272 -523 q 278 -526 286 -526 l 286 -526 q 314 -526 326 -516 l 326 -516 q 346 -498 346 -470 z"},"K":{"ha":493,"x_min":65,"x_max":492,"o":"m 65 -60 l 65 -468 q 65 -494 82 -510 l 82 -510 q 98 -524 122 -524 l 122 -524 q 148 -524 166 -510 l 166 -510 q 183 -493 183 -455 l 183 -455 l 178 -312 l 355 -488 q 376 -510 403 -510 l 403 -510 q 414 -511 424 -510 q 435 -510 442 -503 l 442 -503 q 465 -482 465 -457 l 465 -457 q 465 -430 439 -408 l 439 -408 l 311 -287 l 459 -120 q 492 -85 492 -67 l 492 -67 q 492 -37 473 -21 l 473 -21 q 451 -5 428 -5 l 428 -5 q 397 -5 377 -27 l 377 -27 l 184 -241 l 188 -60 q 188 -34 171 -20 q 153 -5 124 -5 l 124 -5 q 100 -5 82 -20 l 82 -20 q 65 -34 65 -60 l 65 -60 z"},"L":{"ha":371,"x_min":65,"x_max":369,"o":"m 65 -48 l 65 -464 q 65 -491 84 -507 l 84 -507 q 100 -522 125 -522 l 125 -522 q 145 -522 164 -506 l 164 -506 q 182 -490 182 -464 l 182 -464 l 175 -114 l 321 -121 q 344 -121 356 -104 l 356 -104 q 369 -87 369 -58 l 369 -58 q 369 -34 356 -19 l 356 -19 q 345 -3 321 -3 l 321 -3 l 115 -3 q 98 -3 81 -17 l 81 -17 q 65 -29 65 -48 l 65 -48 z"},"M":{"ha":674,"x_min":65,"x_max":671,"o":"m 287 -456 l 287 -456 l 366 -222 l 451 -456 q 463 -485 484 -501 q 506 -517 531 -517 l 531 -517 q 558 -517 578 -499 l 578 -499 q 601 -479 606 -444 l 606 -444 l 671 -62 l 671 -49 q 671 -25 656 -11 l 656 -11 q 640 3 606 3 l 606 3 q 585 3 568 -11 l 568 -11 q 558 -20 546 -92 l 546 -92 l 517 -331 l 516 -331 q 513 -331 509 -329 l 509 -329 l 435 -92 q 404 2 372 2 l 372 2 q 342 2 309 -92 l 309 -92 l 231 -314 l 229 -319 l 228 -319 q 225 -319 219 -315 l 219 -315 l 204 -109 q 198 -66 182 -32 q 165 3 141 3 l 141 3 q 100 3 83 -14 l 83 -14 q 65 -29 65 -54 l 65 -54 l 65 -62 l 132 -444 q 138 -479 160 -498 l 160 -498 q 185 -518 211 -518 l 211 -518 q 266 -518 287 -456 z"},"N":{"ha":516,"x_min":65,"x_max":515,"o":"m 65 -53 l 65 -461 q 65 -518 109 -518 l 109 -518 q 135 -518 182 -460 l 182 -460 l 404 -198 l 394 -449 q 394 -493 409 -504 l 409 -504 q 425 -517 447 -517 l 447 -517 q 481 -517 498 -503 q 515 -489 515 -466 l 515 -466 l 515 -47 q 515 2 473 2 l 473 2 q 445 2 401 -53 l 401 -53 l 179 -328 l 191 -69 q 191 -26 175 -13 l 175 -13 q 157 2 135 2 l 135 2 q 98 2 82 -13 l 82 -13 q 65 -26 65 -53 l 65 -53 z"},"O":{"ha":527,"x_min":65,"x_max":526,"o":"m 303 -538 l 303 -538 q 404 -538 468 -450 l 468 -450 q 526 -371 526 -260 l 526 -260 q 526 -154 471 -82 l 471 -82 q 407 -2 296 -2 l 296 -2 q 188 -2 123 -86 l 123 -86 q 65 -159 65 -269 q 65 -378 124 -454 l 124 -454 q 190 -538 303 -538 z m 297 -441 l 297 -441 q 253 -441 232 -398 l 232 -398 q 211 -355 211 -275 l 211 -275 q 211 -245 217 -204 q 224 -163 232 -146 l 232 -146 q 254 -104 298 -104 l 298 -104 q 336 -104 356 -147 l 356 -147 q 366 -168 374 -210 q 381 -252 381 -281 l 381 -281 q 381 -309 374 -345 q 366 -382 357 -400 l 357 -400 q 337 -441 297 -441 z"},"P":{"ha":445,"x_min":65,"x_max":443,"o":"m 65 -59 l 65 -473 q 65 -489 80 -504 l 80 -504 q 94 -518 110 -518 l 110 -518 l 271 -518 q 355 -518 402 -464 l 402 -464 q 443 -416 443 -343 l 443 -343 q 443 -271 404 -220 l 404 -220 q 361 -164 293 -164 l 293 -164 l 185 -164 l 185 -58 q 185 -28 166 -13 l 166 -13 q 150 2 126 2 q 102 2 83 -14 l 83 -14 q 65 -29 65 -59 l 65 -59 z m 261 -409 l 261 -409 l 187 -409 l 187 -264 l 261 -264 q 321 -264 341 -285 l 341 -285 q 356 -302 356 -340 l 356 -340 q 356 -367 340 -389 l 340 -389 q 332 -397 306 -403 q 279 -409 261 -409 z"},"Q":{"ha":527,"x_min":65,"x_max":526,"o":"m 492 -117 l 511 -83 q 521 -64 521 -48 l 521 -48 q 521 -26 506 -12 l 506 -12 q 490 2 471 2 l 471 2 q 440 2 424 -29 l 424 -29 l 420 -38 q 368 -4 296 -4 l 296 -4 q 188 -4 123 -88 l 123 -88 q 65 -163 65 -271 l 65 -271 q 65 -380 124 -456 l 124 -456 q 190 -540 303 -540 l 303 -540 q 404 -540 468 -452 l 468 -452 q 526 -373 526 -262 l 526 -262 q 526 -180 492 -117 l 492 -117 z m 295 -445 l 295 -445 q 272 -445 251 -434 q 229 -423 218 -401 l 218 -401 q 207 -383 199 -345 q 191 -307 191 -276 q 191 -246 199 -204 q 207 -162 218 -145 l 218 -145 q 243 -102 297 -102 l 297 -102 q 341 -102 366 -145 l 366 -145 l 350 -178 q 344 -187 344 -198 l 344 -198 q 344 -217 358 -229 l 358 -229 q 374 -243 393 -243 l 393 -243 l 394 -243 q 396 -266 396 -282 l 396 -282 q 396 -311 388 -348 q 379 -385 368 -403 l 368 -403 q 344 -445 295 -445 z"},"R":{"ha":462,"x_min":65,"x_max":456,"o":"m 65 -66 l 65 -482 q 65 -496 77 -513 l 77 -513 q 91 -528 104 -528 l 104 -528 l 298 -528 q 355 -528 398 -480 l 398 -480 q 440 -431 440 -373 l 440 -373 q 440 -328 413 -292 l 413 -292 q 383 -254 321 -232 l 321 -232 l 438 -115 q 456 -94 456 -69 l 456 -69 q 456 -46 440 -30 l 440 -30 q 435 -22 421 -11 q 408 1 398 1 l 398 1 q 365 1 338 -32 l 338 -32 l 184 -222 l 184 -66 q 184 -38 165 -18 l 165 -18 q 147 0 122 0 l 122 0 q 98 0 82 -18 l 82 -18 q 65 -33 65 -66 l 65 -66 z m 271 -427 l 184 -427 l 184 -307 l 271 -307 q 307 -307 320 -324 l 320 -324 q 335 -342 336 -371 l 336 -371 q 336 -388 320 -409 l 320 -409 q 307 -427 271 -427 l 271 -427 z"},"S":{"ha":435,"x_min":65,"x_max":451,"o":"m 74 -332 l 74 -332 q 58 -373 72 -410 q 86 -446 120 -472 l 120 -472 q 174 -513 264 -513 l 264 -513 q 330 -513 392 -491 l 392 -491 q 420 -480 436 -462 l 436 -462 q 451 -440 451 -415 l 451 -415 q 451 -395 435 -378 l 435 -378 q 417 -363 389 -363 l 389 -363 q 364 -363 334 -374 l 334 -374 q 275 -396 252 -396 l 252 -396 q 222 -396 213 -384 q 204 -372 204 -344 l 204 -344 q 204 -320 295 -285 l 295 -285 q 308 -280 332 -272 q 356 -264 370 -258 q 383 -253 400 -244 q 417 -234 428 -221 q 439 -207 447 -188 l 447 -188 q 463 -149 447 -109 q 431 -68 396 -43 l 396 -43 q 344 -3 253 -3 l 253 -3 q 188 -3 124 -23 l 124 -23 q 95 -34 81 -54 l 81 -54 q 65 -72 65 -103 l 65 -103 q 65 -125 82 -140 l 82 -140 q 98 -155 128 -155 l 128 -155 q 152 -155 183 -144 l 183 -144 q 247 -119 264 -119 l 264 -119 q 328 -119 328 -172 l 328 -172 q 328 -186 303 -195 q 277 -205 245 -215 l 245 -215 q 211 -229 180 -241 q 149 -252 120 -275 q 91 -299 74 -332 z"},"T":{"ha":447,"x_min":65,"x_max":446,"o":"m 195 -62 l 195 -409 l 118 -396 q 94 -396 78 -414 l 78 -414 q 65 -428 65 -450 l 65 -450 q 65 -472 78 -487 l 78 -487 q 92 -504 115 -504 l 115 -504 l 388 -504 q 416 -504 431 -487 l 431 -487 q 446 -472 446 -448 l 446 -448 q 446 -427 433 -413 l 433 -413 q 416 -396 389 -396 l 389 -396 l 310 -409 l 310 -65 q 310 -33 292 -16 l 292 -16 q 275 2 252 2 l 252 2 q 230 2 212 -15 l 212 -15 q 195 -33 195 -62 l 195 -62 z"},"U":{"ha":511,"x_min":65,"x_max":509,"o":"m 65 -210 l 65 -455 q 65 -466 68 -473 q 70 -479 73 -482 q 75 -484 83 -492 l 83 -492 q 97 -505 126 -505 l 126 -505 q 148 -505 176 -478 l 176 -478 q 192 -462 192 -430 l 192 -430 l 184 -173 q 184 -131 219 -103 l 219 -103 q 250 -77 293 -77 l 293 -77 q 331 -77 359 -100 l 359 -100 q 389 -125 389 -168 l 389 -168 l 378 -425 q 378 -460 397 -479 l 397 -479 q 424 -505 449 -505 l 449 -505 q 480 -505 491 -495 l 491 -495 q 498 -489 500 -488 q 501 -486 504 -482 q 508 -478 508 -473 q 509 -468 509 -461 l 509 -461 l 509 -187 q 509 -98 439 -45 l 439 -45 q 377 5 287 5 l 287 5 q 196 5 135 -48 l 135 -48 q 65 -105 65 -210 l 65 -210 z"},"V":{"ha":517,"x_min":65,"x_max":516,"o":"m 304 -192 l 304 -192 l 379 -453 q 403 -520 445 -520 l 445 -520 q 480 -520 498 -505 q 516 -490 516 -467 l 516 -467 q 516 -452 511 -441 l 511 -441 l 351 -56 q 327 -1 290 -1 l 290 -1 q 252 -1 230 -56 l 230 -56 l 72 -436 q 65 -450 65 -467 l 65 -467 q 65 -490 81 -505 l 81 -505 q 98 -520 130 -520 l 130 -520 q 169 -520 195 -453 l 195 -453 l 282 -180 l 283 -180 q 289 -180 304 -192 z"},"W":{"ha":733,"x_min":65,"x_max":735,"o":"m 170 -62 l 66 -455 q 65 -459 65 -468 l 65 -468 q 65 -490 84 -506 l 84 -506 q 103 -522 139 -522 l 139 -522 q 187 -522 200 -465 l 200 -465 l 242 -191 q 250 -186 255 -186 l 255 -186 l 257 -186 l 329 -437 q 357 -521 402 -521 l 402 -521 q 449 -521 478 -431 l 478 -431 l 543 -189 q 545 -188 550 -188 l 550 -188 q 553 -188 558 -191 l 558 -191 l 598 -465 q 610 -521 663 -521 l 663 -521 q 702 -521 719 -508 q 735 -494 735 -469 l 735 -469 q 735 -459 733 -454 l 733 -454 l 639 -62 q 630 -33 609 -18 l 609 -18 q 588 -2 562 -2 l 562 -2 q 505 -2 489 -51 l 489 -51 l 402 -304 l 323 -62 q 313 -32 292 -17 l 292 -17 q 272 -1 245 -1 l 245 -1 q 219 -1 199 -17 l 199 -17 q 178 -32 170 -62 l 170 -62 z"},"X":{"ha":521,"x_min":65,"x_max":520,"o":"m 202 -474 l 202 -474 l 287 -361 l 372 -474 q 379 -485 393 -502 q 406 -520 419 -520 l 419 -520 q 456 -520 476 -503 l 476 -503 q 495 -485 495 -462 l 495 -462 q 495 -440 478 -417 l 478 -417 l 363 -281 l 509 -90 q 520 -76 520 -59 l 520 -59 q 520 -34 500 -18 l 500 -18 q 480 0 456 0 l 456 0 q 440 0 413 -37 l 413 -37 l 291 -198 l 174 -47 q 139 1 117 1 l 117 1 q 95 1 80 -15 l 80 -15 q 65 -29 65 -53 l 65 -53 q 65 -83 90 -116 l 90 -116 l 213 -284 l 104 -411 q 84 -437 84 -463 l 84 -463 q 84 -488 102 -504 l 102 -504 q 122 -520 156 -520 l 156 -520 q 169 -520 182 -502 q 195 -485 202 -474 z"},"Y":{"ha":476,"x_min":65,"x_max":473,"o":"m 177 -474 l 177 -474 l 269 -344 l 354 -470 q 365 -487 371 -495 q 377 -503 389 -513 q 400 -522 411 -522 l 411 -522 q 438 -522 456 -505 l 456 -505 q 473 -488 473 -463 l 473 -463 q 473 -445 461 -431 l 461 -431 l 324 -241 l 324 -50 q 324 -26 309 -14 l 309 -14 q 291 -1 271 -1 l 271 -1 q 246 -1 229 -16 l 229 -16 q 211 -30 211 -56 l 211 -56 l 211 -241 l 75 -428 q 65 -441 65 -459 l 65 -459 q 65 -483 84 -501 l 84 -501 q 103 -520 127 -520 l 127 -520 q 133 -520 139 -517 q 145 -514 149 -509 q 154 -504 159 -498 q 164 -492 168 -486 q 173 -479 177 -474 z"},"Z":{"ha":463,"x_min":65,"x_max":461,"o":"m 112 -116 l 334 -414 l 152 -399 q 137 -399 117 -404 q 97 -408 90 -416 l 90 -416 q 82 -426 74 -443 q 65 -460 65 -471 l 65 -471 q 65 -493 78 -507 l 78 -507 q 92 -523 114 -523 l 114 -523 l 365 -523 q 397 -523 421 -505 l 421 -505 q 442 -486 442 -459 l 442 -459 q 442 -439 429 -421 l 429 -421 l 209 -110 l 398 -123 q 430 -123 445 -105 l 445 -105 q 461 -91 461 -56 l 461 -56 q 461 -35 446 -20 q 432 -4 404 -4 l 404 -4 l 114 -4 q 104 -4 101 -5 q 97 -7 93 -13 q 89 -19 85 -22 l 85 -22 q 80 -27 80 -33 q 79 -39 81 -48 q 83 -57 83 -62 l 83 -62 q 80 -75 112 -116 l 112 -116 z"},"[":{"ha":266,"x_min":54,"x_max":248,"o":"m 206 28 l 94 28 q 75 28 63 11 l 63 11 q 54 -3 54 -23 l 54 -23 l 54 -580 q 54 -626 94 -626 l 94 -626 l 203 -626 q 224 -626 236 -613 l 236 -613 q 248 -600 248 -583 l 248 -583 q 248 -565 236 -554 l 236 -554 q 226 -543 202 -541 l 202 -541 l 150 -541 l 150 -57 l 204 -57 q 219 -57 228 -44 l 228 -44 q 236 -29 236 -12 l 236 -12 q 236 28 206 28 l 206 28 z"},"\\":{"ha":393,"x_min":69,"x_max":396,"o":"m 159 -540 l 159 -540 l 386 -96 q 396 -80 396 -64 l 396 -64 q 396 -47 384 -35 l 384 -35 q 374 -24 357 -24 l 357 -24 q 330 -24 313 -56 l 313 -56 l 74 -518 q 69 -527 69 -536 l 69 -536 q 69 -551 82 -565 l 82 -565 q 94 -579 111 -579 l 111 -579 q 139 -579 159 -540 z"},"]":{"ha":254,"x_min":42,"x_max":236,"o":"m 196 28 l 196 28 l 84 28 q 65 28 53 16 l 53 16 q 42 2 42 -14 l 42 -14 q 42 -32 54 -44 l 54 -44 q 63 -57 86 -57 l 86 -57 l 140 -57 l 140 -541 l 77 -541 q 62 -542 52 -555 q 42 -567 42 -584 q 42 -601 52 -613 q 62 -626 77 -626 l 77 -626 l 196 -626 q 236 -626 236 -580 l 236 -580 l 236 -23 q 236 -3 227 11 l 227 11 q 215 28 196 28 z"},"^":{"ha":366,"x_min":12,"x_max":357,"o":"m 237 -669 l 237 -669 l 353 -453 q 357 -443 357 -434 l 357 -434 q 357 -415 346 -403 l 346 -403 q 334 -390 318 -390 l 318 -390 q 291 -390 271 -430 l 271 -430 l 187 -595 l 95 -424 q 71 -383 46 -383 l 46 -383 q 32 -383 22 -396 l 22 -396 q 12 -409 12 -424 l 12 -424 q 12 -432 16 -438 l 16 -438 l 140 -680 q 156 -711 182 -711 l 182 -711 q 215 -711 237 -669 z"},"_":{"ha":550,"x_min":60,"x_max":549,"o":"m 60 111 l 60 96 l 549 96 l 549 111 l 60 111 z"},"`":{"ha":206,"x_min":39,"x_max":220,"o":"m 215 -659 l 215 -659 l 138 -505 q 124 -479 97 -479 l 97 -479 q 73 -479 57 -495 l 57 -495 q 39 -512 39 -533 l 39 -533 q 39 -550 47 -562 l 47 -562 l 114 -687 q 131 -716 164 -716 l 164 -716 q 187 -716 202 -703 l 202 -703 q 220 -691 220 -675 l 220 -675 q 220 -669 215 -659 z"},"a":{"ha":332,"x_min":35,"x_max":312,"o":"m 220 -272 l 220 -272 l 310 -40 q 312 -30 312 -27 l 312 -27 q 312 -16 303 -8 l 303 -8 q 295 -1 273 -1 l 273 -1 q 250 -1 240 -21 l 240 -21 q 238 -25 229 -60 q 220 -94 216 -104 l 216 -104 l 128 -104 q 110 -26 109 -22 l 109 -22 q 101 0 77 0 l 77 0 q 55 0 45 -8 l 45 -8 q 35 -15 35 -27 l 35 -27 q 35 -30 37 -38 l 37 -38 l 120 -272 q 135 -312 169 -312 l 169 -312 q 204 -312 220 -272 z m 172 -231 l 134 -129 l 209 -129 l 172 -231 z"},"b":{"ha":286,"x_min":35,"x_max":266,"o":"m 35 -24 l 35 -278 q 35 -288 43 -301 l 43 -301 q 52 -312 63 -312 l 63 -312 l 169 -312 q 198 -312 219 -287 l 219 -287 q 240 -263 240 -232 l 240 -232 q 240 -194 205 -174 l 205 -174 q 235 -170 251 -146 l 251 -146 q 266 -126 266 -97 l 266 -97 q 266 -60 244 -31 l 244 -31 q 221 0 186 0 l 186 0 l 63 0 q 53 0 43 -7 l 43 -7 q 35 -15 35 -24 l 35 -24 z m 158 -138 l 158 -138 l 106 -138 l 106 -62 l 158 -62 q 184 -62 193 -72 q 203 -82 203 -94 l 203 -94 q 203 -119 193 -129 l 193 -129 q 184 -138 158 -138 z m 148 -244 l 148 -244 l 106 -244 l 106 -179 l 158 -179 q 176 -179 176 -205 l 176 -205 q 176 -227 170 -235 l 170 -235 q 166 -244 148 -244 z"},"c":{"ha":314,"x_min":35,"x_max":294,"o":"m 167 -60 l 167 -60 q 188 -60 203 -62 l 203 -62 l 221 -70 q 241 -77 247 -77 l 247 -77 q 276 -77 282 -71 l 282 -71 q 294 -60 294 -42 l 294 -42 q 294 -25 274 -17 l 274 -17 q 250 -7 229 -1 l 229 -1 q 210 3 179 3 l 179 3 q 109 3 70 -45 l 70 -45 q 35 -89 35 -151 l 35 -151 q 35 -217 72 -263 l 72 -263 q 108 -308 181 -308 l 181 -308 q 213 -308 229 -305 l 229 -305 q 253 -298 271 -290 l 271 -290 q 290 -279 290 -254 l 290 -254 q 290 -237 283 -230 q 276 -224 257 -224 l 257 -224 q 254 -224 242 -229 l 242 -229 q 241 -229 230 -233 q 220 -237 207 -241 l 207 -241 q 181 -249 164 -248 l 164 -248 q 131 -248 110 -219 l 110 -219 q 92 -193 92 -151 l 92 -151 q 92 -113 110 -88 l 110 -88 q 130 -60 167 -60 z"},"d":{"ha":315,"x_min":35,"x_max":294,"o":"m 35 -28 l 35 -279 q 35 -289 43 -302 l 43 -302 q 52 -313 63 -313 l 63 -313 l 158 -313 q 223 -313 260 -264 l 260 -264 q 294 -220 294 -154 l 294 -154 q 294 -92 262 -49 l 262 -49 q 227 -2 165 -2 l 165 -2 l 69 -2 q 56 -2 46 -9 l 46 -9 q 35 -17 35 -28 l 35 -28 z m 178 -249 l 178 -249 l 110 -249 l 110 -65 l 155 -65 q 174 -65 194 -73 q 215 -81 224 -95 l 224 -95 q 239 -120 239 -159 l 239 -159 q 239 -196 226 -218 l 226 -218 q 219 -230 205 -240 q 190 -249 178 -249 z"},"e":{"ha":233,"x_min":35,"x_max":213,"o":"m 35 -25 l 35 -283 q 35 -296 44 -305 q 53 -313 65 -313 l 65 -313 l 179 -313 q 194 -313 203 -302 l 203 -302 q 211 -291 211 -276 l 211 -276 q 211 -260 205 -252 l 205 -252 q 198 -242 185 -242 l 185 -242 l 91 -245 l 91 -186 l 179 -189 q 190 -189 198 -179 l 198 -179 q 205 -169 205 -152 l 205 -152 q 205 -137 199 -128 l 199 -128 q 193 -118 182 -118 l 182 -118 l 91 -121 l 91 -66 l 179 -70 q 195 -70 204 -60 l 204 -60 q 213 -51 213 -32 l 213 -32 q 213 -21 206 -11 l 206 -11 q 199 -2 188 -2 l 188 -2 l 59 -2 q 53 -2 43 -10 l 43 -10 q 35 -18 35 -25 l 35 -25 z"},"f":{"ha":234,"x_min":35,"x_max":214,"o":"m 35 -34 l 35 -34 l 35 -281 q 35 -312 62 -312 l 62 -312 l 182 -312 q 196 -312 205 -302 l 205 -302 q 214 -290 214 -276 l 214 -276 q 214 -261 208 -252 l 208 -252 q 201 -243 189 -243 l 189 -243 l 94 -247 l 94 -197 l 178 -200 q 190 -200 199 -190 l 199 -190 q 206 -183 206 -164 l 206 -164 q 206 -150 199 -143 l 199 -143 q 192 -133 178 -133 l 178 -133 l 94 -133 l 94 -34 q 94 -20 84 -10 l 84 -10 q 74 -1 60 -1 l 60 -1 q 55 -1 45 -10 q 35 -19 35 -34 z"},"g":{"ha":349,"x_min":35,"x_max":327,"o":"m 188 -307 l 188 -307 q 260 -307 298 -263 l 298 -263 q 300 -260 306 -254 q 313 -248 315 -243 q 318 -238 318 -234 l 318 -234 q 318 -227 302 -210 l 302 -210 q 293 -201 276 -201 l 276 -201 q 271 -201 259 -211 q 246 -222 244 -223 l 244 -223 q 241 -225 231 -231 q 222 -238 213 -241 q 204 -243 190 -243 l 190 -243 q 167 -243 142 -228 q 117 -212 106 -189 l 106 -189 q 88 -147 104 -111 l 104 -111 q 112 -89 138 -71 q 164 -54 189 -54 l 189 -54 q 223 -54 248 -74 q 272 -94 272 -121 l 272 -121 l 200 -111 q 188 -111 181 -121 l 181 -121 q 174 -129 174 -137 l 174 -137 q 174 -157 181 -165 l 181 -165 q 187 -174 200 -174 l 200 -174 l 300 -171 q 327 -171 327 -138 l 327 -138 q 327 -67 294 -34 q 261 -1 191 -1 l 191 -1 q 114 -1 71 -49 l 71 -49 q 35 -89 35 -150 l 35 -150 q 35 -208 80 -260 l 80 -260 q 119 -307 188 -307 z"},"h":{"ha":325,"x_min":35,"x_max":305,"o":"m 35 -33 l 35 -278 q 35 -294 46 -305 l 46 -305 q 57 -312 70 -312 l 70 -312 q 87 -312 98 -305 l 98 -305 q 107 -296 107 -281 l 107 -281 l 104 -192 l 237 -192 l 232 -278 q 232 -294 242 -303 l 242 -303 q 251 -312 270 -312 l 270 -312 q 283 -312 294 -303 l 294 -303 q 305 -290 305 -272 l 305 -272 l 305 -37 q 305 -20 295 -10 l 295 -10 q 285 -1 271 -1 l 271 -1 q 252 -1 242 -10 q 232 -19 232 -33 l 232 -33 l 237 -141 l 104 -141 l 107 -33 q 107 -18 98 -9 q 88 0 68 0 l 68 0 q 55 0 45 -9 l 45 -9 q 35 -18 35 -33 l 35 -33 z"},"i":{"ha":130,"x_min":35,"x_max":108,"o":"m 37 -37 l 37 -37 l 35 -275 q 35 -292 46 -303 l 46 -303 q 57 -312 73 -312 q 90 -312 99 -303 l 99 -303 q 108 -294 108 -278 l 108 -278 l 105 -37 q 105 -20 96 -11 l 96 -11 q 86 -1 72 -1 l 72 -1 q 58 -1 48 -11 l 48 -11 q 37 -20 37 -37 z"},"j":{"ha":225,"x_min":35,"x_max":203,"o":"m 203 -282 l 203 -282 l 203 -93 q 203 -48 179 -23 l 179 -23 q 157 -2 123 -2 q 89 -2 60 -22 l 60 -22 q 35 -39 35 -61 l 35 -61 q 35 -68 47 -82 l 47 -82 q 55 -90 66 -90 l 66 -90 q 67 -90 86 -82 l 86 -82 q 88 -80 104 -70 l 104 -70 q 116 -62 122 -62 l 122 -62 q 138 -62 138 -101 l 138 -101 l 135 -276 q 135 -293 146 -304 l 146 -304 q 162 -316 168 -316 l 168 -316 q 185 -316 192 -310 l 192 -310 q 203 -299 203 -282 z"},"k":{"ha":313,"x_min":35,"x_max":291,"o":"m 35 -36 l 35 -281 q 35 -297 45 -306 q 55 -314 69 -314 l 69 -314 q 86 -314 96 -306 q 105 -297 105 -273 l 105 -273 l 103 -187 l 209 -293 q 222 -306 238 -306 l 238 -306 q 257 -306 262 -302 l 262 -302 q 275 -288 275 -274 l 275 -274 q 275 -258 260 -245 l 260 -245 l 182 -172 l 271 -72 q 291 -51 291 -40 l 291 -40 q 291 -21 279 -13 l 279 -13 q 269 -3 253 -3 l 253 -3 q 234 -3 223 -17 l 223 -17 l 106 -145 l 109 -36 q 109 -21 99 -12 q 88 -3 70 -3 l 70 -3 q 57 -3 46 -12 l 46 -12 q 35 -20 35 -36 l 35 -36 z"},"l":{"ha":238,"x_min":35,"x_max":218,"o":"m 35 -28 l 35 -278 q 35 -294 46 -305 l 46 -305 q 57 -313 71 -313 l 71 -313 q 82 -313 95 -304 l 95 -304 q 105 -293 105 -278 l 105 -278 l 101 -68 l 188 -73 q 202 -73 210 -62 q 218 -52 218 -34 l 218 -34 q 218 -21 210 -11 l 210 -11 q 203 -2 188 -2 l 188 -2 l 65 -2 q 54 -2 45 -10 l 45 -10 q 35 -19 35 -28 l 35 -28 z"},"m":{"ha":420,"x_min":35,"x_max":398,"o":"m 168 -273 l 168 -273 l 216 -133 l 267 -273 q 273 -290 286 -301 l 286 -301 q 301 -311 314 -311 l 314 -311 q 330 -311 343 -300 l 343 -300 q 356 -288 359 -267 l 359 -267 l 398 -37 l 398 -29 q 398 -16 390 -7 q 381 2 359 2 l 359 2 q 348 2 337 -7 l 337 -7 q 331 -12 323 -55 l 323 -55 l 306 -198 q 303 -198 301 -197 l 301 -197 l 257 -55 q 239 1 220 1 l 220 1 q 199 1 182 -55 l 182 -55 l 135 -188 l 133 -191 q 131 -191 127 -189 l 127 -189 l 118 -65 q 114 -39 104 -19 q 95 2 80 2 l 80 2 q 56 2 46 -8 l 46 -8 q 35 -18 35 -32 l 35 -32 l 35 -37 l 75 -267 q 78 -287 93 -299 l 93 -299 q 105 -311 122 -311 l 122 -311 q 156 -311 168 -273 z"},"n":{"ha":325,"x_min":35,"x_max":305,"o":"m 35 -31 l 35 -276 q 35 -311 62 -311 l 62 -311 q 77 -311 104 -276 l 104 -276 l 239 -119 l 232 -270 q 232 -295 241 -303 l 241 -303 q 251 -310 265 -310 l 265 -310 q 286 -310 295 -302 l 295 -302 q 305 -295 305 -279 l 305 -279 l 305 -28 q 305 1 279 1 l 279 1 q 263 1 237 -31 l 237 -31 l 104 -197 l 111 -42 q 111 -16 101 -8 l 101 -8 q 90 1 77 1 l 77 1 q 55 1 45 -8 q 35 -17 35 -31 l 35 -31 z"},"o":{"ha":332,"x_min":35,"x_max":312,"o":"m 178 -322 l 178 -322 q 239 -322 277 -271 l 277 -271 q 312 -222 312 -156 l 312 -156 q 312 -92 278 -50 l 278 -50 q 240 -1 174 -1 l 174 -1 q 109 -1 69 -52 l 69 -52 q 35 -97 35 -161 l 35 -161 q 35 -227 70 -272 l 70 -272 q 109 -322 178 -322 z m 174 -265 l 174 -265 q 147 -265 136 -239 l 136 -239 q 122 -212 122 -165 l 122 -165 q 122 -114 136 -87 l 136 -87 q 147 -62 175 -62 l 175 -62 q 198 -62 210 -89 l 210 -89 q 225 -122 225 -169 l 225 -169 q 225 -213 210 -240 l 210 -240 q 198 -265 174 -265 z"},"p":{"ha":283,"x_min":35,"x_max":263,"o":"m 35 -35 l 35 -283 q 35 -295 44 -302 l 44 -302 q 53 -311 63 -311 l 63 -311 l 158 -311 q 209 -311 237 -278 l 237 -278 q 263 -248 263 -206 q 263 -164 238 -132 l 238 -132 q 214 -99 172 -99 l 172 -99 l 106 -99 l 106 -34 q 106 -18 96 -8 l 96 -8 q 86 1 71 1 l 71 1 q 56 1 46 -9 l 46 -9 q 35 -18 35 -35 l 35 -35 z m 152 -246 l 152 -246 l 108 -246 l 108 -158 l 152 -158 q 188 -158 200 -171 l 200 -171 q 210 -181 210 -204 l 210 -204 q 210 -220 199 -233 l 199 -233 q 189 -246 152 -246 z"},"q":{"ha":332,"x_min":35,"x_max":312,"o":"m 291 -70 l 303 -50 q 309 -38 309 -28 l 309 -28 q 309 -16 300 -7 l 300 -7 q 290 1 278 1 l 278 1 q 260 1 250 -18 l 250 -18 l 248 -22 q 217 -3 174 -3 l 174 -3 q 109 -3 69 -53 l 69 -53 q 35 -98 35 -162 l 35 -162 q 35 -229 70 -273 l 70 -273 q 110 -324 178 -324 l 178 -324 q 239 -324 277 -271 l 277 -271 q 312 -223 312 -157 l 312 -157 q 312 -107 291 -70 l 291 -70 z m 173 -267 l 173 -267 q 143 -267 126 -241 l 126 -241 q 111 -215 111 -166 l 111 -166 q 111 -113 126 -87 l 126 -87 q 143 -61 174 -61 l 174 -61 q 201 -61 216 -87 l 216 -87 l 206 -106 q 202 -111 202 -119 l 202 -119 q 202 -131 211 -138 l 211 -138 q 219 -146 231 -146 l 231 -146 l 232 -146 q 234 -163 234 -169 l 234 -169 q 234 -213 217 -242 l 217 -242 q 202 -267 173 -267 z"},"r":{"ha":290,"x_min":35,"x_max":270,"o":"m 35 -40 l 35 -289 q 35 -299 43 -308 q 51 -316 59 -316 l 59 -316 l 175 -316 q 210 -316 235 -288 l 235 -288 q 260 -261 260 -224 l 260 -224 q 260 -196 244 -175 l 244 -175 q 225 -151 188 -140 l 188 -140 l 259 -69 q 270 -56 270 -41 l 270 -41 q 270 -27 260 -18 l 260 -18 q 241 1 235 1 l 235 1 q 215 1 199 -20 l 199 -20 l 106 -133 l 106 -40 q 106 -21 95 -11 l 95 -11 q 84 0 69 0 l 69 0 q 56 0 45 -11 l 45 -11 q 35 -21 35 -40 l 35 -40 z m 158 -256 l 106 -256 l 106 -185 l 158 -185 q 182 -185 188 -194 l 188 -194 q 197 -207 197 -223 l 197 -223 q 197 -232 188 -245 l 188 -245 q 180 -256 158 -256 l 158 -256 z"},"s":{"ha":289,"x_min":35,"x_max":267,"o":"m 41 -199 l 41 -199 q 31 -224 40 -246 q 48 -269 68 -283 l 68 -283 q 100 -308 154 -308 l 154 -308 q 194 -308 231 -295 l 231 -295 q 248 -289 257 -277 l 257 -277 q 267 -267 267 -249 l 267 -249 q 267 -238 257 -227 l 257 -227 q 246 -218 229 -218 l 229 -218 q 213 -218 196 -225 l 196 -225 q 164 -237 147 -237 l 147 -237 q 129 -237 124 -230 q 118 -224 118 -206 l 118 -206 q 118 -194 173 -171 l 173 -171 q 200 -164 227 -151 q 254 -138 265 -113 l 265 -113 q 274 -90 264 -65 q 254 -41 233 -25 l 233 -25 q 201 -2 147 -2 l 147 -2 q 107 -2 70 -15 l 70 -15 q 54 -21 45 -32 l 45 -32 q 35 -43 35 -62 l 35 -62 q 35 -75 45 -84 q 55 -93 72 -93 l 72 -93 q 89 -93 105 -86 l 105 -86 q 110 -84 121 -80 q 132 -75 140 -73 q 147 -71 154 -71 l 154 -71 q 193 -71 193 -103 l 193 -103 q 193 -111 178 -117 q 162 -123 144 -129 l 144 -129 q 132 -134 120 -138 q 108 -142 97 -147 q 85 -153 75 -160 q 64 -167 56 -177 q 47 -187 41 -199 z"},"t":{"ha":284,"x_min":35,"x_max":264,"o":"m 113 -37 l 113 -246 l 67 -238 q 52 -238 43 -248 l 43 -248 q 35 -258 35 -270 l 35 -270 q 35 -282 43 -293 l 43 -293 q 51 -303 65 -303 l 65 -303 l 229 -303 q 244 -303 255 -292 l 255 -292 q 264 -283 264 -270 q 264 -256 256 -248 l 256 -248 q 246 -238 229 -238 l 229 -238 l 182 -246 l 182 -39 q 182 -20 172 -9 l 172 -9 q 162 1 147 1 q 133 1 123 -9 q 113 -19 113 -37 l 113 -37 z"},"u":{"ha":322,"x_min":35,"x_max":302,"o":"m 35 -126 l 35 -273 q 35 -283 46 -296 l 46 -296 q 53 -303 71 -303 l 71 -303 q 83 -303 102 -287 l 102 -287 q 111 -277 111 -258 l 111 -258 l 106 -104 q 106 -78 127 -62 l 127 -62 q 147 -46 172 -46 l 172 -46 q 195 -46 211 -60 l 211 -60 q 229 -74 229 -101 l 229 -101 l 223 -255 q 223 -275 234 -287 l 234 -287 q 250 -303 266 -303 l 266 -303 q 285 -303 291 -297 l 291 -297 q 302 -286 302 -276 l 302 -276 l 302 -112 q 302 -60 260 -26 l 260 -26 q 222 3 168 3 l 168 3 q 115 3 76 -28 l 76 -28 q 35 -63 35 -126 l 35 -126 z"},"v":{"ha":326,"x_min":35,"x_max":306,"o":"m 178 -115 l 178 -115 l 223 -272 q 240 -312 263 -312 q 285 -312 295 -303 l 295 -303 q 306 -294 306 -280 l 306 -280 q 306 -271 303 -265 l 303 -265 l 206 -33 q 192 0 170 0 l 170 0 q 148 0 134 -33 l 134 -33 l 39 -262 q 35 -270 35 -280 l 35 -280 q 35 -294 45 -303 l 45 -303 q 54 -312 74 -312 l 74 -312 q 98 -312 113 -272 l 113 -272 l 165 -107 l 166 -107 q 170 -107 178 -115 z"},"w":{"ha":459,"x_min":35,"x_max":438,"o":"m 98 -37 l 36 -273 q 35 -275 35 -280 l 35 -280 q 35 -293 46 -304 l 46 -304 q 57 -313 79 -313 l 79 -313 q 107 -313 116 -279 l 116 -279 l 142 -115 q 145 -111 148 -111 l 148 -111 l 150 -111 l 193 -262 q 211 -312 237 -312 l 237 -312 q 266 -312 283 -259 l 283 -259 l 322 -114 q 323 -113 325 -113 l 325 -113 q 329 -113 331 -114 l 331 -114 l 354 -279 q 362 -313 394 -313 l 394 -313 q 418 -313 428 -305 l 428 -305 q 438 -295 438 -281 l 438 -281 q 438 -279 437 -276 q 437 -273 437 -272 l 437 -272 l 379 -37 q 375 -20 361 -11 l 361 -11 q 349 -1 333 -1 l 333 -1 q 299 -1 289 -30 l 289 -30 l 237 -183 l 190 -37 q 185 -21 171 -10 l 171 -10 q 159 -1 143 -1 l 143 -1 q 127 -1 115 -10 l 115 -10 q 102 -21 98 -37 l 98 -37 z"},"x":{"ha":329,"x_min":35,"x_max":308,"o":"m 117 -284 l 117 -284 l 168 -217 l 220 -284 q 224 -291 231 -301 q 239 -312 247 -312 l 247 -312 q 271 -312 281 -302 l 281 -302 q 293 -291 293 -277 l 293 -277 q 293 -267 283 -250 l 283 -250 l 214 -169 l 302 -54 q 308 -45 308 -35 l 308 -35 q 308 -21 296 -11 l 296 -11 q 283 0 270 0 l 270 0 q 259 0 244 -22 l 244 -22 l 171 -119 l 101 -28 q 80 0 66 0 q 53 0 44 -9 q 35 -18 35 -32 l 35 -32 q 35 -51 50 -69 l 50 -69 l 124 -171 l 59 -247 q 46 -263 46 -278 l 46 -278 q 46 -293 57 -302 l 57 -302 q 67 -312 90 -312 l 90 -312 q 98 -312 105 -301 q 113 -291 117 -284 z"},"y":{"ha":301,"x_min":35,"x_max":279,"o":"m 102 -284 l 102 -284 l 157 -206 l 208 -281 q 228 -313 243 -313 l 243 -313 q 257 -313 270 -303 l 270 -303 q 279 -294 279 -278 l 279 -278 q 279 -268 272 -258 l 272 -258 l 190 -145 l 190 -30 q 190 -16 182 -9 l 182 -9 q 173 -1 158 -1 l 158 -1 q 145 -1 134 -9 l 134 -9 q 122 -18 122 -33 l 122 -33 l 122 -145 l 41 -257 q 35 -266 35 -275 l 35 -275 q 35 -288 46 -301 l 46 -301 q 57 -312 72 -312 l 72 -312 q 83 -312 102 -284 z"},"z":{"ha":294,"x_min":35,"x_max":272,"o":"m 63 -70 l 196 -249 l 87 -239 q 59 -239 50 -250 l 50 -250 q 35 -268 35 -282 l 35 -282 q 35 -294 43 -305 l 43 -305 q 51 -313 64 -313 l 64 -313 l 215 -313 q 237 -313 249 -303 l 249 -303 q 262 -290 262 -275 l 262 -275 q 262 -264 253 -253 l 253 -253 l 122 -66 l 235 -73 q 254 -73 264 -63 l 264 -63 q 272 -55 272 -33 l 272 -33 q 272 -21 264 -12 l 264 -12 q 255 -2 238 -2 l 238 -2 l 64 -2 q 59 -2 56 -3 q 54 -4 51 -8 q 49 -12 47 -14 l 47 -14 q 44 -17 43 -20 q 43 -23 44 -29 q 46 -34 46 -37 l 46 -37 q 44 -43 63 -70 l 63 -70 z"},"{":{"ha":267,"x_min":50,"x_max":251,"o":"m 101 -439 l 101 -437 l 101 -439 z m 111 -333 l 111 -333 q 111 -342 106 -381 l 106 -381 q 103 -412 103 -435 l 103 -435 q 103 -480 124 -502 l 124 -502 q 151 -529 217 -525 l 217 -525 q 235 -523 244 -515 l 244 -515 q 251 -509 251 -486 l 251 -486 q 251 -479 242 -475 q 233 -471 222 -470 l 222 -470 l 198 -468 q 162 -468 162 -425 l 162 -425 q 162 -409 166 -382 q 170 -354 170 -336 l 170 -336 q 170 -307 152 -288 q 134 -269 104 -264 l 104 -264 q 171 -241 171 -181 l 171 -181 q 171 -175 167 -136 l 167 -136 q 163 -111 163 -96 l 163 -96 q 163 -57 197 -54 l 197 -54 q 209 -53 221 -52 q 233 -51 242 -47 q 251 -44 251 -37 l 251 -37 q 251 -19 245 -13 l 245 -13 q 238 -4 229 -3 l 229 -3 q 207 -1 199 -1 l 199 -1 q 144 -1 121 -28 l 121 -28 q 104 -51 104 -93 l 104 -93 q 104 -115 106 -133 l 106 -133 q 108 -170 108 -173 l 108 -173 q 108 -201 102 -216 l 102 -216 q 95 -234 70 -236 l 70 -236 q 50 -238 50 -259 l 50 -259 q 50 -281 63 -285 l 63 -285 l 95 -297 q 111 -303 111 -333 z"},"|":{"ha":183,"x_min":58,"x_max":176,"o":"m 113 -503 l 113 -503 q 136 -503 155 -488 q 175 -473 175 -455 l 175 -455 q 174 -359 175 -243 q 176 -127 175 -27 q 175 72 172 75 l 172 75 q 172 102 155 118 l 155 118 q 137 135 115 135 l 115 135 q 92 135 76 119 l 76 119 q 59 100 59 69 l 59 69 l 58 -455 q 58 -473 75 -488 q 92 -503 113 -503 z"},"}":{"ha":272,"x_min":56,"x_max":258,"o":"m 206 -439 l 206 -437 l 206 -439 z m 196 -333 l 196 -333 q 196 -350 200 -381 l 200 -381 q 205 -420 205 -435 l 205 -435 q 205 -479 184 -502 l 184 -502 q 156 -529 90 -525 l 90 -525 q 73 -523 63 -515 l 63 -515 q 56 -509 56 -486 l 56 -486 q 56 -479 64 -475 q 73 -471 85 -470 q 98 -469 109 -468 l 109 -468 q 146 -468 146 -425 l 146 -425 q 146 -409 142 -382 l 142 -382 q 137 -348 137 -336 l 137 -336 q 137 -307 155 -288 q 173 -270 202 -264 l 202 -264 q 137 -242 137 -181 l 137 -181 q 137 -162 141 -136 l 141 -136 q 145 -99 145 -96 l 145 -96 q 145 -57 110 -54 l 110 -54 q 99 -53 86 -52 q 74 -51 65 -47 q 57 -44 57 -37 l 57 -37 q 57 -18 62 -13 l 62 -13 q 68 -5 78 -3 l 78 -3 q 102 -1 108 -1 l 108 -1 q 163 -1 186 -28 l 186 -28 q 203 -51 203 -93 l 203 -93 q 203 -98 201 -133 l 201 -133 q 199 -151 199 -173 l 199 -173 q 199 -201 206 -216 l 206 -216 q 214 -235 237 -236 l 237 -236 q 258 -238 258 -259 l 258 -259 q 258 -280 244 -285 l 244 -285 l 212 -297 q 196 -303 196 -333 z"},"~":{"ha":404,"x_min":47,"x_max":394,"o":"m 142 -432 l 142 -432 q 164 -432 222 -411 q 279 -391 295 -391 l 295 -391 q 308 -391 332 -406 l 332 -406 q 354 -423 366 -423 l 366 -423 q 394 -423 394 -390 l 394 -390 q 394 -360 368 -336 l 368 -336 q 344 -312 309 -312 l 309 -312 q 275 -312 221 -332 l 221 -332 q 168 -352 149 -352 l 149 -352 q 133 -352 108 -334 l 108 -334 q 83 -315 74 -315 l 74 -315 q 60 -315 53 -328 l 53 -328 q 47 -338 47 -352 l 47 -352 q 47 -384 76 -407 l 76 -407 q 104 -432 142 -432 z"},"ം":{"ha":336,"x_min":60,"x_max":335,"o":"m 335 -140 l 335 -140 q 335 -73 291 -35 l 291 -35 q 252 0 194 0 l 194 0 q 135 0 97 -40 l 97 -40 q 60 -82 60 -147 l 60 -147 q 60 -206 97 -246 l 97 -246 q 135 -285 197 -285 l 197 -285 q 266 -285 303 -239 l 303 -239 q 335 -198 335 -140 z m 238 -141 l 238 -141 q 238 -273 197 -273 l 197 -273 q 153 -273 153 -139 l 153 -139 q 153 -13 195 -13 l 195 -13 q 238 -13 238 -141 z"},"ഃ":{"ha":188,"x_min":53,"x_max":188,"o":"m 168 -339 q 188 -318 188 -291 q 188 -264 168 -243 l 168 -243 q 146 -224 121 -224 l 121 -224 q 93 -224 73 -243 l 73 -243 q 53 -264 53 -291 q 53 -318 73 -339 l 73 -339 q 92 -359 121 -359 l 121 -359 q 147 -359 168 -339 z m 121 -265 q 146 -265 146 -291 q 146 -317 121 -317 l 121 -317 q 95 -317 95 -291 q 95 -265 121 -265 l 121 -265 z m 188 -83 l 188 -83 q 188 -57 168 -36 q 147 -16 121 -16 l 121 -16 q 92 -16 73 -36 l 73 -36 q 53 -57 53 -83 l 53 -83 q 53 -110 73 -131 l 73 -131 q 92 -151 121 -151 l 121 -151 q 147 -151 168 -131 q 188 -110 188 -83 z m 146 -83 l 146 -83 q 146 -109 121 -109 l 121 -109 q 95 -109 95 -83 l 95 -83 q 95 -58 121 -58 l 121 -58 q 146 -58 146 -83 z"},"അ":{"ha":917,"x_min":62,"x_max":916,"o":"m 916 -176 l 916 -176 q 916 -95 892 -53 l 892 -53 q 862 1 786 1 l 786 1 q 720 1 685 -59 l 685 -59 q 656 -109 656 -179 l 656 -179 q 656 -321 735 -354 l 735 -354 q 733 -354 729 -356 q 725 -358 723 -359 l 723 -359 q 711 -364 705 -364 l 705 -364 q 666 -364 638 -347 l 638 -347 q 607 -328 607 -290 l 607 -290 l 608 -58 q 608 -37 595 -18 l 595 -18 q 582 0 560 0 l 560 0 q 536 0 523 -19 l 523 -19 q 510 -35 510 -58 l 510 -58 l 510 -267 q 510 -362 438 -362 l 438 -362 q 412 -362 397 -356 l 397 -356 q 465 -318 465 -266 l 465 -266 q 465 -239 453 -216 l 453 -216 q 439 -190 414 -185 l 414 -185 q 465 -173 465 -110 l 465 -110 q 465 1 344 1 l 344 1 q 212 1 212 -185 l 212 -185 q 212 -297 307 -356 l 307 -356 q 285 -365 261 -365 l 261 -365 q 208 -365 171 -314 l 171 -314 q 140 -267 140 -212 l 140 -212 q 140 -193 158 -135 l 158 -135 q 164 -118 187 -86 l 187 -86 q 208 -58 208 -35 l 208 -35 q 208 0 156 0 l 156 0 q 102 0 78 -71 l 78 -71 q 62 -119 62 -189 l 62 -189 q 62 -286 116 -339 l 116 -339 q 171 -391 267 -391 l 267 -391 q 313 -391 352 -374 l 352 -374 q 381 -391 428 -391 l 428 -391 q 477 -391 500 -385 l 500 -385 q 534 -378 562 -351 l 562 -351 q 598 -390 692 -390 l 692 -390 q 798 -390 857 -336 l 857 -336 q 916 -281 916 -176 z m 788 -30 q 831 -30 831 -177 q 831 -323 788 -323 l 788 -323 q 743 -323 743 -177 q 743 -30 788 -30 l 788 -30 z m 376 -260 l 376 -260 q 376 -312 347 -330 l 347 -330 q 295 -301 295 -189 l 295 -189 q 295 -26 348 -26 l 348 -26 q 367 -26 372 -58 l 372 -58 q 373 -62 373 -103 l 373 -103 q 373 -174 331 -174 l 331 -174 q 316 -174 316 -183 l 316 -183 q 316 -196 336 -196 l 336 -196 q 376 -196 376 -260 z"},"ആ":{"ha":1044,"x_min":54,"x_max":1043,"o":"m 1043 -80 l 1043 -80 q 1043 39 979 104 l 979 104 q 916 170 804 170 l 804 170 q 746 170 696 142 l 696 142 q 636 107 636 54 l 636 54 q 636 38 650 26 l 650 26 q 664 14 680 14 l 680 14 q 709 14 759 47 l 759 47 q 807 80 841 80 l 841 80 q 912 80 956 30 l 956 30 q 999 -18 999 -86 l 999 -86 q 999 -136 980 -194 l 980 -194 q 957 -260 922 -275 l 922 -275 q 931 -262 939 -225 l 939 -225 q 947 -191 947 -177 l 947 -177 q 947 -104 919 -57 l 919 -57 q 882 1 812 1 l 812 1 q 658 1 658 -168 l 658 -168 q 658 -241 699 -285 l 699 -285 q 740 -327 810 -329 l 810 -329 q 777 -364 708 -364 l 708 -364 q 599 -364 599 -290 l 599 -290 l 600 -58 q 600 -36 587 -18 l 587 -18 q 572 0 552 0 l 552 0 q 529 0 515 -19 l 515 -19 q 502 -34 502 -58 l 502 -58 l 502 -267 q 502 -362 430 -362 l 430 -362 q 404 -362 389 -356 l 389 -356 q 457 -318 457 -266 l 457 -266 q 457 -239 445 -216 l 445 -216 q 432 -190 406 -185 l 406 -185 q 457 -173 457 -110 l 457 -110 q 457 1 336 1 l 336 1 q 204 1 204 -185 l 204 -185 q 204 -298 299 -356 l 299 -356 q 275 -365 253 -365 l 253 -365 q 199 -365 163 -314 l 163 -314 q 132 -267 132 -212 l 132 -212 q 132 -189 150 -135 l 150 -135 q 153 -122 179 -86 l 179 -86 q 200 -58 200 -35 l 200 -35 q 200 0 148 0 l 148 0 q 92 0 70 -71 l 70 -71 q 54 -119 54 -189 l 54 -189 q 54 -286 108 -339 l 108 -339 q 162 -391 259 -391 l 259 -391 q 305 -391 344 -374 l 344 -374 q 373 -391 420 -391 q 467 -391 492 -385 l 492 -385 q 526 -378 554 -351 l 554 -351 q 591 -391 696 -391 l 696 -391 q 854 -391 896 -327 l 896 -327 q 1043 -295 1043 -80 z m 853 -163 l 853 -163 q 853 -296 804 -296 l 804 -296 q 753 -296 753 -163 l 753 -163 q 753 -20 804 -20 l 804 -20 q 853 -20 853 -163 z m 368 -260 l 368 -260 q 368 -312 339 -330 l 339 -330 q 287 -301 287 -189 l 287 -189 q 287 -26 340 -26 l 340 -26 q 359 -26 364 -58 l 364 -58 q 364 -59 365 -65 q 365 -71 365 -82 q 365 -92 365 -103 l 365 -103 q 365 -174 323 -174 l 323 -174 q 308 -174 308 -183 l 308 -183 q 308 -196 328 -196 l 328 -196 q 368 -196 368 -260 z"},"ഇ":{"ha":630,"x_min":61,"x_max":629,"o":"m 629 96 l 629 96 q 629 142 566 142 l 566 142 q 456 142 378 141 l 378 141 q 333 141 274 140 q 216 140 202 140 l 202 140 q 122 140 102 133 l 102 133 q 64 119 64 65 l 64 65 q 64 -2 156 -2 l 156 -2 q 163 -2 253 0 l 253 0 q 341 2 355 2 l 355 2 q 526 2 526 -191 l 526 -191 q 526 -240 514 -288 l 514 -288 q 497 -360 465 -360 l 465 -360 q 415 -360 415 -281 l 415 -281 q 415 -222 416 -174 q 417 -126 417 -66 l 417 -66 q 417 -51 400 -40 l 400 -40 q 389 -32 369 -32 l 369 -32 q 353 -32 338 -41 l 338 -41 q 324 -50 324 -66 l 324 -66 l 324 -263 q 324 -360 247 -360 l 247 -360 q 200 -360 169 -329 l 169 -329 q 140 -300 137 -251 l 137 -251 q 154 -268 177 -268 l 177 -268 q 232 -268 261 -236 l 261 -236 q 290 -205 290 -151 l 290 -151 q 290 -102 258 -67 l 258 -67 q 226 -32 177 -32 l 177 -32 q 117 -32 87 -80 l 87 -80 q 61 -121 61 -184 l 61 -184 q 61 -271 109 -326 l 109 -326 q 155 -381 245 -381 l 245 -381 q 296 -381 311 -378 l 311 -378 q 353 -371 372 -336 l 372 -336 q 382 -365 410 -376 l 410 -376 q 430 -381 467 -381 l 467 -381 q 552 -381 594 -321 l 594 -321 q 632 -269 629 -187 l 629 -187 l 629 -186 q 625 -70 582 -29 l 582 -29 q 535 17 398 20 l 398 20 l 252 22 q 164 23 164 63 l 164 63 q 164 82 184 94 l 184 94 q 206 106 232 106 l 232 106 q 277 106 323 92 l 323 92 q 396 66 405 65 l 405 65 q 475 49 566 49 l 566 49 q 629 49 629 96 z m 205 -155 l 205 -155 q 205 -254 173 -254 l 173 -254 q 140 -254 140 -145 l 140 -145 q 140 -52 173 -52 l 173 -52 q 205 -52 205 -155 z"},"ഈ":{"ha":1081,"x_min":61,"x_max":1081,"o":"m 1081 -219 l 1081 -219 q 1081 -112 1041 -58 l 1041 -58 q 991 11 868 11 l 868 11 q 750 11 750 -42 l 750 -42 q 750 -63 767 -63 q 783 -63 813 -36 l 813 -36 q 843 -10 877 -10 l 877 -10 q 942 -10 969 -97 l 969 -97 q 986 -152 986 -232 l 986 -232 q 986 -268 979 -305 l 979 -305 q 969 -360 944 -360 l 944 -360 q 921 -360 921 -329 l 921 -329 l 921 -169 q 921 -152 906 -141 l 906 -141 q 893 -128 874 -128 l 874 -128 q 854 -128 837 -140 l 837 -140 q 821 -152 821 -170 l 821 -170 l 821 -328 q 821 -360 799 -360 l 799 -360 q 762 -360 762 -253 l 762 -253 q 762 -239 768 -213 q 773 -187 773 -172 l 773 -172 q 773 -155 761 -141 l 761 -141 q 748 -128 731 -128 l 731 -128 q 678 -128 678 -250 l 678 -250 q 678 -304 709 -344 l 709 -344 q 740 -382 794 -382 l 794 -382 q 861 -382 873 -336 l 873 -336 q 888 -382 948 -382 l 948 -382 q 1081 -382 1081 -219 z m 629 96 l 629 96 q 629 142 566 142 l 566 142 q 534 142 378 146 l 378 146 q 220 149 202 149 l 202 149 q 132 149 102 137 l 102 137 q 64 120 64 65 l 64 65 q 64 -2 156 -2 l 156 -2 q 163 -2 253 0 l 253 0 q 341 2 355 2 l 355 2 q 526 2 526 -191 l 526 -191 q 526 -240 514 -288 l 514 -288 q 497 -360 465 -360 l 465 -360 q 415 -360 415 -281 l 415 -281 q 415 -222 416 -174 q 417 -126 417 -66 l 417 -66 q 417 -51 400 -40 l 400 -40 q 389 -32 369 -32 l 369 -32 q 353 -32 338 -41 l 338 -41 q 324 -50 324 -66 l 324 -66 l 324 -263 q 324 -360 247 -360 l 247 -360 q 200 -360 169 -329 l 169 -329 q 140 -300 137 -251 l 137 -251 q 154 -268 177 -268 l 177 -268 q 232 -268 261 -236 l 261 -236 q 290 -205 290 -151 l 290 -151 q 290 -102 258 -67 l 258 -67 q 226 -32 177 -32 l 177 -32 q 117 -32 87 -80 l 87 -80 q 61 -121 61 -184 l 61 -184 q 61 -271 109 -326 l 109 -326 q 155 -381 245 -381 l 245 -381 q 296 -381 311 -378 l 311 -378 q 353 -371 372 -336 l 372 -336 q 382 -365 410 -376 l 410 -376 q 430 -381 467 -381 l 467 -381 q 552 -381 594 -321 l 594 -321 q 632 -269 629 -187 l 629 -187 l 629 -186 q 625 -70 582 -29 l 582 -29 q 535 17 398 20 l 398 20 l 252 22 q 164 23 164 63 l 164 63 q 164 82 184 94 l 184 94 q 206 106 232 106 l 232 106 q 277 106 323 92 l 323 92 q 396 66 405 65 l 405 65 q 475 49 566 49 l 566 49 q 629 49 629 96 z m 205 -155 l 205 -155 q 205 -254 173 -254 l 173 -254 q 140 -254 140 -145 l 140 -145 q 140 -52 173 -52 l 173 -52 q 205 -52 205 -155 z"},"ഉ":{"ha":507,"x_min":60,"x_max":506,"o":"m 506 101 l 506 101 q 502 143 452 143 l 452 143 q 299 143 189 149 l 189 149 q 134 149 113 140 l 113 140 q 77 124 77 65 l 77 65 q 77 -1 151 -1 l 151 -1 l 169 -1 q 177 0 184 0 l 184 0 l 289 2 q 399 5 399 -194 l 399 -194 q 399 -245 368 -297 l 368 -297 q 331 -360 274 -360 l 274 -360 q 222 -360 188 -327 l 188 -327 q 155 -293 154 -247 l 154 -247 q 171 -264 198 -264 l 198 -264 q 259 -264 290 -232 l 290 -232 q 321 -199 321 -146 l 321 -146 q 321 -100 288 -64 l 288 -64 q 252 -28 198 -28 l 198 -28 q 129 -28 93 -76 l 93 -76 q 60 -118 60 -180 l 60 -180 q 60 -381 272 -381 l 272 -381 q 503 -381 503 -186 l 503 -186 q 503 14 317 20 l 317 20 l 229 23 q 171 25 171 63 l 171 63 q 171 81 184 94 l 184 94 q 198 106 215 106 l 215 106 q 229 106 303 77 l 303 77 q 375 48 452 48 l 452 48 q 475 48 491 64 l 491 64 q 509 79 506 101 z m 228 -150 l 228 -150 q 228 -251 193 -251 l 193 -251 q 157 -251 157 -140 l 157 -140 q 157 -47 193 -47 l 193 -47 q 228 -47 228 -150 z"},"ഊ":{"ha":957,"x_min":60,"x_max":957,"o":"m 957 -219 l 957 -219 q 957 -111 918 -58 l 918 -58 q 867 11 745 11 l 745 11 q 627 11 627 -42 l 627 -42 q 627 -63 643 -63 l 643 -63 q 659 -63 689 -36 l 689 -36 q 719 -10 753 -10 l 753 -10 q 818 -10 845 -97 l 845 -97 q 863 -151 863 -232 l 863 -232 q 863 -264 856 -305 l 856 -305 q 845 -360 821 -360 q 798 -360 798 -329 l 798 -329 l 798 -169 q 798 -152 782 -141 l 782 -141 q 769 -128 750 -128 l 750 -128 q 730 -128 714 -140 l 714 -140 q 697 -152 697 -170 l 697 -170 l 697 -328 q 697 -360 675 -360 l 675 -360 q 638 -360 638 -253 l 638 -253 q 638 -239 644 -213 l 644 -213 q 650 -188 650 -172 l 650 -172 q 650 -153 638 -141 q 625 -128 608 -128 l 608 -128 q 555 -128 555 -250 l 555 -250 q 555 -305 584 -342 l 584 -342 q 617 -382 671 -382 l 671 -382 q 695 -382 721 -368 l 721 -368 q 746 -354 750 -336 l 750 -336 q 764 -382 825 -382 l 825 -382 q 957 -382 957 -219 z m 506 101 l 506 101 q 502 143 452 143 l 452 143 q 299 143 189 149 l 189 149 q 134 149 113 140 l 113 140 q 77 124 77 65 l 77 65 q 77 -1 151 -1 l 151 -1 l 169 -1 q 177 0 184 0 l 184 0 l 289 2 q 399 5 399 -194 l 399 -194 q 399 -245 368 -297 l 368 -297 q 331 -360 274 -360 l 274 -360 q 222 -360 188 -327 l 188 -327 q 155 -293 154 -247 l 154 -247 q 171 -264 198 -264 l 198 -264 q 259 -264 290 -232 l 290 -232 q 321 -199 321 -146 l 321 -146 q 321 -100 288 -64 l 288 -64 q 252 -28 198 -28 l 198 -28 q 129 -28 93 -76 l 93 -76 q 60 -118 60 -180 l 60 -180 q 60 -381 272 -381 l 272 -381 q 503 -381 503 -186 l 503 -186 q 503 14 317 20 l 317 20 l 229 23 q 171 25 171 63 l 171 63 q 171 81 184 94 l 184 94 q 198 106 215 106 q 231 106 302 77 q 372 48 452 48 l 452 48 q 475 48 491 64 l 491 64 q 509 79 506 101 z m 228 -150 l 228 -150 q 228 -251 193 -251 l 193 -251 q 157 -251 157 -140 l 157 -140 q 157 -47 193 -47 l 193 -47 q 228 -47 228 -150 z"},"ഋ":{"ha":625,"x_min":62,"x_max":624,"o":"m 624 -249 l 624 -249 q 624 -195 589 -141 l 589 -141 q 550 -82 490 -73 l 490 -73 q 605 -60 605 31 l 605 31 q 605 100 527 125 l 527 125 q 471 144 335 144 l 335 144 q 198 144 148 124 l 148 124 q 82 100 82 28 l 82 28 q 82 -59 186 -74 l 186 -74 q 130 -85 93 -144 l 93 -144 q 62 -195 62 -249 l 62 -249 q 62 -381 182 -381 l 182 -381 q 231 -381 261 -352 q 290 -322 290 -270 l 290 -270 q 290 -204 251 -168 l 251 -168 q 221 -139 179 -139 l 179 -139 q 156 -139 148 -142 l 148 -142 q 187 -106 234 -97 l 234 -97 q 256 -94 335 -91 l 335 -91 q 408 -90 442 -96 l 442 -96 q 493 -106 537 -143 l 537 -143 q 528 -140 497 -140 l 497 -140 q 459 -140 428 -173 l 428 -173 q 393 -209 393 -270 l 393 -270 q 393 -317 423 -350 l 423 -350 q 453 -382 502 -382 l 502 -382 q 624 -382 624 -249 z m 552 -260 l 552 -260 q 552 -300 542 -330 l 542 -330 q 529 -369 508 -369 l 508 -369 q 468 -369 468 -261 l 468 -261 q 468 -230 478 -198 l 478 -198 q 490 -163 509 -163 l 509 -163 q 552 -163 552 -260 z m 220 -260 l 220 -260 q 220 -301 209 -330 l 209 -330 q 197 -369 176 -369 l 176 -369 q 136 -369 136 -261 l 136 -261 q 136 -229 146 -198 l 146 -198 q 156 -163 176 -163 l 176 -163 q 220 -163 220 -260 z m 507 33 l 507 33 q 507 1 475 -27 l 475 -27 q 438 -58 341 -58 l 341 -58 q 274 -58 231 -32 q 188 -7 188 37 l 188 37 q 188 63 222 92 l 222 92 q 255 117 343 117 l 343 117 q 438 117 477 89 l 477 89 q 507 67 507 33 z"},"ഌ":{"ha":1000,"x_min":61,"x_max":729,"o":"m 729 -189 l 729 -189 q 729 -119 695 -74 l 695 -74 q 658 -23 589 -23 l 589 -23 q 534 -23 500 -55 q 466 -87 466 -142 l 466 -142 q 466 -195 499 -231 q 532 -268 582 -268 l 582 -268 q 611 -268 639 -254 q 667 -240 676 -217 l 676 -217 q 672 -277 629 -320 q 586 -363 521 -363 l 521 -363 q 479 -363 450 -339 q 422 -314 422 -271 l 422 -271 l 422 -29 l 367 -29 l 367 -271 q 367 -314 339 -339 q 311 -363 268 -363 l 268 -363 q 203 -363 160 -320 q 117 -277 113 -217 l 113 -217 q 122 -240 150 -254 q 178 -268 207 -268 l 207 -268 q 257 -268 290 -231 q 323 -195 323 -142 l 323 -142 q 323 -87 289 -55 q 255 -23 200 -23 l 200 -23 q 131 -23 94 -74 l 94 -74 q 61 -119 61 -189 l 61 -189 q 61 -279 113 -345 l 113 -345 q 171 -414 259 -414 l 259 -414 q 350 -414 395 -357 l 395 -357 q 439 -414 529 -414 l 529 -414 q 618 -414 675 -345 l 675 -345 q 729 -279 729 -189 z m 662 -141 l 662 -141 q 662 -170 641 -191 q 619 -212 591 -212 l 591 -212 q 563 -212 543 -190 q 523 -169 523 -140 l 523 -140 q 523 -111 543 -92 q 563 -72 591 -72 l 591 -72 q 620 -72 641 -92 q 662 -111 662 -141 z m 266 -140 l 266 -140 q 266 -169 246 -190 q 227 -212 198 -212 l 198 -212 q 170 -212 148 -191 q 127 -170 127 -141 l 127 -141 q 127 -111 148 -92 q 169 -72 198 -72 l 198 -72 q 227 -72 246 -92 q 266 -111 266 -140 z"},"എ":{"ha":832,"x_min":57,"x_max":832,"o":"m 832 -95 l 832 -95 q 832 46 764 108 l 764 108 q 724 143 684 143 l 684 143 q 671 143 666 138 q 660 134 662 125 l 662 125 q 664 117 684 117 l 684 117 q 736 117 736 -99 l 736 -99 q 736 -216 718 -271 l 718 -271 q 691 -360 616 -360 l 616 -360 q 522 -360 496 -218 l 496 -218 q 485 -167 485 -22 l 485 -22 l 559 -22 l 559 -229 q 559 -281 610 -281 l 610 -281 q 655 -281 655 -234 l 655 -234 l 655 11 q 655 65 614 104 l 614 104 q 574 143 522 143 l 522 143 q 463 143 425 92 l 425 92 q 391 47 391 0 l 391 0 l 262 0 q 234 0 234 -26 l 234 -26 q 234 -34 244 -69 l 244 -69 q 255 -102 255 -159 l 255 -159 q 255 -200 239 -232 l 239 -232 q 224 -266 199 -266 q 175 -266 162 -224 l 162 -224 q 152 -194 152 -157 l 152 -157 q 152 -133 156 -106 l 156 -106 q 161 -72 161 -66 l 161 -66 q 161 9 131 9 l 131 9 q 57 9 57 -141 l 57 -141 q 57 -203 88 -243 l 88 -243 q 125 -290 194 -290 l 194 -290 q 276 -290 317 -240 l 317 -240 q 350 -201 350 -142 l 350 -142 q 350 -77 302 -22 l 302 -22 l 389 -22 q 389 -38 388 -53 l 388 -53 q 388 -62 387 -74 q 387 -87 387 -91 l 387 -91 q 387 -382 612 -382 l 612 -382 q 737 -382 790 -297 l 790 -297 q 832 -230 832 -95 z m 559 33 l 559 33 l 559 0 l 483 0 q 480 123 519 123 l 519 123 q 538 123 550 88 l 550 88 q 559 62 559 33 z"},"ഏ":{"ha":834,"x_min":57,"x_max":833,"o":"m 833 8 l 833 8 q 833 65 801 106 l 801 106 q 765 148 709 148 l 709 148 q 676 148 636 130 l 636 130 q 627 129 627 113 l 627 113 q 627 95 639 95 l 639 95 q 654 106 686 106 l 686 106 q 713 106 725 61 l 725 61 q 735 28 735 -6 l 735 -6 q 735 -50 731 -67 l 731 -67 q 723 -101 690 -101 l 690 -101 q 673 -101 673 -118 l 673 -118 q 673 -134 691 -134 l 691 -134 q 718 -134 727 -149 l 727 -149 q 733 -159 736 -189 l 736 -189 q 738 -209 738 -234 l 738 -234 q 738 -282 708 -321 l 708 -321 q 679 -358 628 -358 l 628 -358 q 534 -358 502 -249 l 502 -249 q 485 -193 485 -74 l 485 -74 l 485 -48 l 485 -22 l 559 -22 l 559 -229 q 559 -281 610 -281 l 610 -281 q 655 -281 655 -234 l 655 -234 l 655 11 q 655 63 616 104 l 616 104 q 577 143 522 143 l 522 143 q 392 143 391 0 l 391 0 l 262 0 q 234 0 234 -26 l 234 -26 l 247 -80 q 255 -113 255 -159 l 255 -159 q 255 -193 242 -225 l 242 -225 q 227 -267 199 -267 l 199 -267 q 174 -267 161 -222 l 161 -222 q 152 -189 152 -157 l 152 -157 q 152 -134 157 -105 l 157 -105 q 162 -66 162 -53 l 162 -53 q 162 9 131 9 l 131 9 q 57 9 57 -141 l 57 -141 q 57 -208 93 -248 l 93 -248 q 128 -290 194 -290 l 194 -290 q 265 -290 307 -251 l 307 -251 q 350 -212 350 -142 q 350 -71 302 -22 l 302 -22 l 389 -22 q 389 -40 388 -56 l 388 -56 q 388 -64 387 -76 q 387 -88 387 -91 l 387 -91 q 387 -383 636 -383 l 636 -383 q 717 -383 771 -344 l 771 -344 q 833 -301 833 -226 l 833 -226 q 833 -195 818 -163 l 818 -163 q 800 -127 773 -118 l 773 -118 q 805 -106 820 -64 l 820 -64 q 833 -30 833 8 z m 559 33 l 559 33 l 559 0 l 483 0 q 482 4 482 14 l 482 14 q 482 123 519 123 l 519 123 q 539 123 550 86 l 550 86 q 559 60 559 33 z"},"ഐ":{"ha":1308,"x_min":63,"x_max":1307,"o":"m 1307 -95 l 1307 -95 q 1307 46 1239 108 l 1239 108 q 1197 143 1159 143 l 1159 143 q 1134 143 1137 125 l 1137 125 q 1140 117 1159 117 l 1159 117 q 1211 117 1211 -99 l 1211 -99 q 1211 -215 1193 -271 l 1193 -271 q 1165 -360 1091 -360 l 1091 -360 q 999 -360 971 -218 l 971 -218 q 960 -159 960 -22 l 960 -22 l 1034 -22 l 1034 -229 q 1034 -281 1085 -281 l 1085 -281 q 1130 -281 1130 -234 l 1130 -234 l 1130 11 q 1130 65 1089 104 l 1089 104 q 1049 143 997 143 l 997 143 q 938 143 900 92 l 900 92 q 866 49 866 0 l 866 0 l 737 0 q 709 0 709 -26 l 709 -26 q 709 -31 720 -69 l 720 -69 q 730 -106 730 -159 l 730 -159 q 730 -197 714 -232 l 714 -232 q 698 -266 674 -266 q 649 -266 637 -224 l 637 -224 q 627 -194 627 -157 l 627 -157 q 627 -139 632 -106 l 632 -106 q 636 -79 636 -66 l 636 -66 q 636 9 606 9 l 606 9 q 532 9 532 -141 l 532 -141 q 532 -205 563 -243 l 563 -243 q 599 -290 669 -290 l 669 -290 q 751 -290 792 -240 l 792 -240 q 825 -201 825 -142 l 825 -142 q 825 -79 777 -22 l 777 -22 l 864 -22 q 864 -23 864 -34 q 863 -44 863 -53 l 863 -53 q 862 -68 862 -91 l 862 -91 q 862 -382 1087 -382 l 1087 -382 q 1213 -382 1265 -297 l 1265 -297 q 1307 -230 1307 -95 z m 479 -168 l 479 -168 q 479 9 379 9 l 379 9 q 345 9 345 -24 l 345 -24 q 345 -34 365 -90 l 365 -90 q 386 -145 386 -193 l 386 -193 q 386 -243 361 -292 l 361 -292 q 326 -359 268 -359 l 268 -359 q 166 -359 162 -245 l 162 -245 q 182 -255 204 -255 l 204 -255 q 270 -255 300 -210 l 300 -210 q 323 -176 323 -123 l 323 -123 q 323 -56 277 -19 l 277 -19 q 243 9 204 9 l 204 9 q 139 9 101 -35 l 101 -35 q 63 -79 63 -161 l 63 -161 q 63 -381 268 -381 l 268 -381 q 479 -381 479 -168 z m 1034 33 l 1034 33 l 1034 0 l 958 0 q 955 123 994 123 l 994 123 q 1012 123 1025 88 l 1025 88 q 1034 62 1034 33 z m 239 -116 l 239 -116 q 239 -153 229 -188 l 229 -188 q 217 -228 196 -228 l 196 -228 q 158 -228 158 -117 l 158 -117 q 158 -84 167 -53 l 167 -53 q 179 -17 197 -17 l 197 -17 q 239 -17 239 -116 z"},"ഒ":{"ha":534,"x_min":63,"x_max":534,"o":"m 534 -94 l 534 -94 q 534 -43 496 -16 l 496 -16 q 463 9 410 9 l 410 9 q 369 9 331 -4 l 331 -4 q 321 -8 321 -19 l 321 -19 q 321 -30 334 -30 l 334 -30 q 353 -22 385 -22 l 385 -22 q 410 -22 425 -49 l 425 -49 q 439 -72 439 -98 l 439 -98 q 439 -141 414 -157 l 414 -157 q 396 -169 352 -169 l 352 -169 q 343 -169 343 -185 l 343 -185 q 343 -205 354 -205 l 354 -205 q 398 -205 417 -216 l 417 -216 q 441 -231 441 -275 l 441 -275 q 441 -320 396 -341 l 396 -341 q 360 -357 310 -357 l 310 -357 q 182 -357 162 -250 l 162 -250 l 162 -245 q 179 -255 204 -255 l 204 -255 q 264 -255 294 -217 l 294 -217 q 323 -184 323 -123 l 323 -123 q 323 -70 291 -32 l 291 -32 q 258 9 204 9 l 204 9 q 132 9 94 -44 l 94 -44 q 63 -89 63 -161 l 63 -161 q 63 -382 319 -382 l 319 -382 q 393 -382 452 -359 l 452 -359 q 532 -328 532 -266 l 532 -266 q 532 -239 519 -217 l 519 -217 q 504 -192 480 -187 l 480 -187 q 534 -175 534 -94 z m 239 -116 l 239 -116 q 239 -147 231 -182 l 231 -182 q 219 -228 196 -228 l 196 -228 q 158 -228 158 -117 l 158 -117 q 158 -90 166 -59 l 166 -59 q 177 -17 197 -17 l 197 -17 q 239 -17 239 -116 z"},"ഓ":{"ha":878,"x_min":63,"x_max":877,"o":"m 877 -183 l 877 -183 q 877 -104 840 -50 l 840 -50 q 797 8 721 8 l 721 8 q 582 8 582 -109 l 582 -109 q 582 -163 631 -163 l 631 -163 q 670 -163 678 -109 l 678 -109 q 692 -14 728 -14 l 728 -14 q 784 -14 784 -189 l 784 -189 q 784 -250 770 -300 l 770 -300 q 755 -359 728 -359 l 728 -359 q 694 -359 678 -259 l 678 -259 q 672 -214 631 -214 l 631 -214 q 582 -214 582 -270 l 582 -270 q 582 -327 624 -356 l 624 -356 q 660 -381 721 -381 l 721 -381 q 877 -381 877 -183 z m 534 -94 l 534 -94 q 534 -43 496 -16 l 496 -16 q 463 9 410 9 l 410 9 q 369 9 331 -4 l 331 -4 q 321 -8 321 -19 l 321 -19 q 321 -30 334 -30 l 334 -30 q 353 -22 385 -22 l 385 -22 q 410 -22 425 -49 l 425 -49 q 439 -72 439 -98 l 439 -98 q 439 -141 414 -157 l 414 -157 q 396 -169 352 -169 l 352 -169 q 343 -169 343 -185 l 343 -185 q 343 -205 354 -205 l 354 -205 q 398 -205 417 -216 l 417 -216 q 441 -231 441 -275 l 441 -275 q 441 -320 396 -341 l 396 -341 q 360 -357 310 -357 l 310 -357 q 182 -357 162 -250 l 162 -250 l 162 -245 q 179 -255 204 -255 l 204 -255 q 264 -255 294 -217 l 294 -217 q 323 -184 323 -123 l 323 -123 q 323 -70 291 -32 l 291 -32 q 258 9 204 9 l 204 9 q 132 9 94 -44 l 94 -44 q 63 -89 63 -161 l 63 -161 q 63 -382 319 -382 l 319 -382 q 393 -382 452 -359 l 452 -359 q 532 -328 532 -266 l 532 -266 q 532 -239 519 -217 l 519 -217 q 504 -192 480 -187 l 480 -187 q 534 -175 534 -94 z m 239 -116 l 239 -116 q 239 -147 231 -182 l 231 -182 q 219 -228 196 -228 l 196 -228 q 158 -228 158 -117 l 158 -117 q 158 -90 166 -59 l 166 -59 q 177 -17 197 -17 l 197 -17 q 239 -17 239 -116 z"},"ഔ":{"ha":981,"x_min":63,"x_max":981,"o":"m 981 -219 l 981 -219 q 981 -112 941 -58 l 941 -58 q 891 11 769 11 l 769 11 q 651 11 651 -42 l 651 -42 q 651 -63 667 -63 l 667 -63 q 682 -63 714 -36 l 714 -36 q 743 -10 777 -10 l 777 -10 q 841 -10 869 -97 l 869 -97 q 887 -152 887 -232 l 887 -232 q 887 -271 880 -305 l 880 -305 q 869 -360 845 -360 l 845 -360 q 822 -360 822 -329 l 822 -329 l 822 -169 q 822 -153 807 -141 q 791 -128 774 -128 l 774 -128 q 754 -128 737 -140 l 737 -140 q 721 -153 721 -170 l 721 -170 l 721 -328 q 721 -360 699 -360 l 699 -360 q 662 -360 662 -253 l 662 -253 q 662 -239 668 -213 q 674 -187 674 -172 l 674 -172 q 674 -153 661 -141 q 648 -128 632 -128 l 632 -128 q 579 -128 579 -250 l 579 -250 q 579 -305 609 -344 l 609 -344 q 641 -382 694 -382 l 694 -382 q 762 -382 773 -336 l 773 -336 q 787 -382 848 -382 l 848 -382 q 981 -382 981 -219 z m 534 -94 l 534 -94 q 534 -43 496 -16 l 496 -16 q 463 9 410 9 l 410 9 q 369 9 331 -4 l 331 -4 q 321 -8 321 -19 l 321 -19 q 321 -30 334 -30 l 334 -30 q 353 -22 385 -22 l 385 -22 q 410 -22 425 -49 l 425 -49 q 439 -72 439 -98 l 439 -98 q 439 -141 414 -157 l 414 -157 q 396 -169 352 -169 l 352 -169 q 343 -169 343 -185 l 343 -185 q 343 -205 354 -205 l 354 -205 q 398 -205 417 -216 l 417 -216 q 441 -231 441 -275 l 441 -275 q 441 -320 396 -341 l 396 -341 q 360 -357 310 -357 l 310 -357 q 182 -357 162 -250 l 162 -250 l 162 -245 q 179 -255 204 -255 l 204 -255 q 264 -255 294 -217 l 294 -217 q 323 -184 323 -123 l 323 -123 q 323 -70 291 -32 l 291 -32 q 258 9 204 9 l 204 9 q 132 9 94 -44 l 94 -44 q 63 -89 63 -161 l 63 -161 q 63 -382 319 -382 l 319 -382 q 393 -382 452 -359 l 452 -359 q 532 -328 532 -266 l 532 -266 q 532 -239 519 -217 l 519 -217 q 504 -192 480 -187 l 480 -187 q 534 -175 534 -94 z m 239 -116 l 239 -116 q 239 -147 231 -182 l 231 -182 q 219 -228 196 -228 l 196 -228 q 158 -228 158 -117 l 158 -117 q 158 -90 166 -59 l 166 -59 q 177 -17 197 -17 l 197 -17 q 239 -17 239 -116 z"},"ക":{"ha":753,"x_min":61,"x_max":752,"o":"m 752 -94 l 752 -94 q 752 10 589 10 l 589 10 q 563 10 547 2 l 547 2 q 527 -5 527 -15 l 527 -15 q 527 -28 545 -28 l 545 -28 q 552 -28 567 -21 l 567 -21 q 580 -14 587 -14 l 587 -14 q 614 -14 629 -40 l 629 -40 q 642 -62 642 -95 l 642 -95 q 642 -133 627 -159 l 627 -159 q 608 -189 579 -189 l 579 -189 l 572 -189 q 574 -182 574 -174 l 574 -174 q 574 -116 540 -64 l 540 -64 q 492 10 396 10 l 396 10 q 362 10 347 8 l 347 8 q 334 5 305 -11 l 305 -11 q 278 5 264 8 l 264 8 q 246 10 195 10 l 195 10 q 61 10 61 -98 l 61 -98 q 61 -181 139 -204 l 139 -204 q 170 -214 216 -211 l 216 -211 q 221 -261 239 -296 l 239 -296 q 285 -381 397 -381 l 397 -381 q 503 -381 549 -297 l 549 -297 q 567 -263 573 -212 l 573 -212 l 582 -212 q 661 -212 697 -195 l 697 -195 q 752 -169 752 -94 z m 335 -213 l 456 -213 q 456 -262 444 -300 l 444 -300 q 428 -353 397 -353 l 397 -353 q 364 -353 347 -303 l 347 -303 q 335 -265 335 -213 l 335 -213 z m 455 -189 l 455 -189 l 334 -189 q 334 -15 398 -15 l 398 -15 q 455 -15 455 -189 z m 286 -20 l 286 -20 l 265 -44 q 241 -72 233 -92 l 233 -92 q 220 -127 217 -189 l 217 -189 q 159 -170 159 -111 l 159 -111 q 159 -18 258 -18 l 258 -18 q 269 -18 286 -20 z"},"ഖ":{"ha":646,"x_min":62,"x_max":646,"o":"m 646 -339 l 646 0 l 368 0 q 346 0 346 -13 l 346 -13 q 346 -22 355 -22 l 355 -22 q 371 -22 384 -66 l 384 -66 q 398 -110 398 -164 l 398 -164 q 398 -359 272 -359 l 272 -359 q 176 -359 159 -286 l 159 -286 q 181 -311 219 -311 l 219 -311 q 342 -311 342 -145 l 342 -145 q 342 -61 287 -20 l 287 -20 q 251 8 203 8 l 203 8 q 152 8 113 -34 l 113 -34 q 62 -86 62 -181 l 62 -181 q 62 -381 292 -381 l 292 -381 q 504 -381 504 -167 l 504 -167 q 504 -52 441 -22 l 441 -22 l 550 -22 l 550 -339 q 550 -355 562 -368 l 562 -368 q 574 -381 595 -381 l 595 -381 q 646 -381 646 -339 l 646 -339 z m 245 -162 l 245 -162 q 245 -290 209 -290 l 209 -290 q 170 -290 170 -162 l 170 -162 q 170 -14 206 -14 l 206 -14 q 245 -14 245 -162 z"},"ഗ":{"ha":615,"x_min":57,"x_max":615,"o":"m 615 -185 l 615 -185 q 615 -96 561 -38 l 561 -38 q 520 8 479 8 l 479 8 q 421 8 421 -22 l 421 -22 q 421 -51 444 -79 l 444 -79 l 487 -127 q 511 -162 511 -213 l 511 -213 q 511 -360 442 -360 l 442 -360 q 387 -360 387 -248 l 387 -248 q 387 -244 387 -235 q 388 -227 388 -220 l 388 -220 q 389 -208 389 -197 l 389 -197 q 389 -109 365 -65 l 365 -65 q 326 8 218 8 l 218 8 q 138 8 94 -55 l 94 -55 q 57 -109 57 -195 l 57 -195 q 57 -271 91 -328 l 91 -328 q 123 -381 162 -381 l 162 -381 q 210 -381 210 -324 l 210 -324 q 210 -298 185 -253 l 185 -253 q 160 -207 160 -166 l 160 -166 q 160 -14 225 -14 l 225 -14 q 278 -14 278 -115 l 278 -115 q 278 -126 276 -161 l 276 -161 q 274 -180 274 -195 l 274 -195 q 274 -286 306 -329 l 306 -329 q 346 -381 438 -381 l 438 -381 q 615 -381 615 -185 z"},"ഘ":{"ha":788,"x_min":62,"x_max":788,"o":"m 788 -339 l 788 1 l 335 1 l 335 -123 l 229 -123 q 209 -123 209 -141 l 209 -141 q 209 -146 224 -184 l 224 -184 q 238 -222 238 -256 l 238 -256 q 238 -299 223 -329 l 223 -329 q 208 -360 189 -360 l 189 -360 q 145 -360 145 -253 l 145 -253 q 145 -237 154 -195 l 154 -195 q 163 -157 163 -140 l 163 -140 q 163 -133 155 -123 l 155 -123 q 148 -116 140 -116 l 140 -116 q 104 -116 81 -160 l 81 -160 q 62 -199 62 -253 l 62 -253 q 62 -311 96 -347 l 96 -347 q 129 -382 185 -382 l 185 -382 q 258 -382 293 -329 l 293 -329 q 316 -293 316 -247 l 316 -247 q 316 -198 278 -143 l 278 -143 l 335 -143 l 335 -247 q 335 -382 490 -382 l 490 -382 q 638 -382 638 -242 l 638 -242 l 638 -123 l 435 -123 l 435 -22 l 687 -22 l 687 -342 q 687 -382 741 -382 l 741 -382 q 788 -382 788 -339 l 788 -339 z m 435 -143 l 541 -143 l 541 -309 q 541 -360 488 -360 l 488 -360 q 435 -360 435 -308 l 435 -308 l 435 -143 z"},"ങ":{"ha":750,"x_min":60,"x_max":749,"o":"m 749 -94 l 749 -94 q 749 -40 700 -12 l 700 -12 q 662 9 611 9 l 611 9 q 572 9 522 -5 l 522 -5 q 510 -5 510 -20 l 510 -20 q 513 -30 526 -30 l 526 -30 q 539 -23 583 -23 l 583 -23 q 605 -23 624 -44 l 624 -44 q 643 -63 643 -99 l 643 -99 q 643 -135 621 -153 l 621 -153 q 603 -169 575 -169 l 575 -169 l 532 -169 q 521 -169 521 -185 l 521 -185 q 521 -205 534 -205 l 534 -205 l 576 -205 q 645 -205 645 -275 l 645 -275 q 645 -360 548 -360 l 548 -360 q 508 -360 481 -340 l 481 -340 q 454 -319 454 -285 l 454 -285 l 454 -29 q 454 6 407 9 l 407 9 q 387 10 370 -1 q 354 -12 354 -29 l 354 -29 l 354 -284 q 354 -318 324 -339 q 295 -359 257 -359 l 257 -359 q 159 -359 156 -245 l 156 -245 q 175 -255 196 -255 l 196 -255 q 258 -255 288 -210 l 288 -210 q 310 -177 310 -123 l 310 -123 q 310 -55 266 -19 l 266 -19 q 234 9 196 9 l 196 9 q 133 9 96 -35 l 96 -35 q 60 -82 60 -161 l 60 -161 q 60 -381 257 -381 l 257 -381 q 314 -381 340 -375 l 340 -375 q 381 -366 406 -336 l 406 -336 q 427 -367 465 -377 l 465 -377 q 489 -382 543 -382 l 543 -382 q 627 -382 670 -367 l 670 -367 q 747 -341 747 -266 l 747 -266 q 747 -238 731 -215 l 731 -215 q 717 -192 689 -187 l 689 -187 q 749 -175 749 -94 z m 229 -116 l 229 -116 q 229 -154 220 -188 l 220 -188 q 208 -228 188 -228 l 188 -228 q 151 -228 151 -117 l 151 -117 q 151 -84 160 -53 l 160 -53 q 171 -17 189 -17 l 189 -17 q 229 -17 229 -116 z"},"ച":{"ha":509,"x_min":28,"x_max":508,"o":"m 508 -334 l 508 0 l 42 0 q 28 0 28 -9 l 28 -9 q 28 -23 42 -23 l 42 -23 l 190 -23 q 231 -23 256 -58 l 256 -58 q 278 -91 278 -135 l 278 -135 q 278 -176 269 -206 l 269 -206 q 257 -253 229 -253 l 229 -253 q 202 -253 196 -205 l 196 -205 q 193 -187 193 -130 l 193 -130 q 188 -56 142 -56 l 142 -56 q 88 -56 88 -139 l 88 -139 q 88 -272 237 -272 l 237 -272 q 305 -272 342 -223 l 342 -223 q 370 -186 370 -138 l 370 -138 q 370 -49 306 -23 l 306 -23 l 406 -23 l 406 -334 q 406 -354 421 -368 l 421 -368 q 437 -382 457 -382 l 457 -382 q 477 -382 492 -368 l 492 -368 q 508 -354 508 -334 l 508 -334 z"},"ഛ":{"ha":826,"x_min":23,"x_max":826,"o":"m 826 -166 l 826 -166 q 826 -73 778 -28 l 778 -28 q 741 8 682 8 l 682 8 q 632 8 597 -24 l 597 -24 q 549 -69 549 -170 l 549 -170 q 549 -262 578 -306 l 578 -306 q 601 -343 653 -349 l 653 -349 q 637 -359 603 -359 l 603 -359 q 547 -359 512 -305 l 512 -305 q 482 -260 482 -197 l 482 -197 q 482 -162 513 -114 l 513 -114 q 544 -65 544 -34 l 544 -34 q 544 -19 536 -6 l 536 -6 q 532 -2 530 1 l 530 1 l 37 1 q 23 1 23 -9 l 23 -9 q 23 -23 37 -23 l 37 -23 l 185 -23 q 227 -23 251 -58 l 251 -58 q 274 -90 274 -135 l 274 -135 q 274 -172 264 -206 l 264 -206 q 250 -253 224 -253 q 197 -253 191 -205 l 191 -205 q 188 -187 188 -130 l 188 -130 q 183 -56 137 -56 l 137 -56 q 84 -56 84 -139 l 84 -139 q 84 -272 232 -272 l 232 -272 q 302 -272 337 -223 l 337 -223 q 365 -186 365 -138 l 365 -138 q 365 -49 301 -23 l 301 -23 l 432 -23 q 389 -72 389 -194 l 389 -194 q 389 -271 443 -324 l 443 -324 q 504 -382 603 -382 l 603 -382 q 702 -382 764 -323 l 764 -323 q 826 -264 826 -166 z m 722 -169 l 722 -169 q 722 -222 713 -269 l 713 -269 q 703 -322 684 -322 q 664 -322 652 -271 l 652 -271 q 643 -227 641 -174 l 641 -174 q 641 -121 652 -75 l 652 -75 q 664 -23 684 -23 l 684 -23 q 702 -23 712 -74 l 712 -74 q 722 -113 722 -169 z"},"ജ":{"ha":581,"x_min":60,"x_max":581,"o":"m 581 -269 l 581 -269 q 581 -182 514 -148 l 514 -148 q 580 -125 580 -68 l 580 -68 q 580 -25 545 -4 l 545 -4 q 514 14 466 14 l 466 14 q 426 14 398 -4 l 398 -4 q 366 -22 362 -58 l 362 -58 q 359 -76 363 -89 l 363 -89 q 354 -83 317 -56 l 317 -56 q 305 -44 255 -8 l 255 -8 q 221 10 160 10 l 160 10 q 109 10 90 -3 l 90 -3 q 61 -21 61 -73 l 61 -73 q 61 -114 85 -131 l 85 -131 q 103 -143 141 -143 l 141 -143 l 386 -143 q 438 -143 455 -182 l 455 -182 q 466 -209 466 -266 l 466 -266 q 466 -297 457 -324 l 457 -324 q 442 -360 418 -360 l 418 -360 q 404 -360 402 -343 l 402 -343 l 402 -342 l 402 -341 l 402 -340 l 402 -339 l 402 -338 l 402 -337 l 402 -336 l 402 -335 l 402 -334 l 402 -333 l 402 -332 l 402 -331 l 402 -330 l 402 -329 l 402 -328 l 402 -327 l 402 -326 l 402 -325 l 402 -324 l 402 -315 l 402 -186 q 402 -161 355 -161 l 355 -161 q 302 -161 302 -186 l 302 -186 l 302 -305 q 302 -360 233 -360 l 233 -360 q 187 -360 168 -351 l 168 -351 q 141 -338 141 -296 l 141 -296 q 153 -310 182 -310 l 182 -310 q 223 -310 250 -293 l 250 -293 q 283 -272 283 -236 l 283 -236 q 283 -199 247 -178 l 247 -178 q 217 -161 178 -161 l 178 -161 q 60 -161 60 -265 l 60 -265 q 60 -334 117 -362 l 117 -362 q 155 -381 236 -381 l 236 -381 q 284 -381 300 -377 l 300 -377 q 341 -368 355 -336 l 355 -336 q 365 -381 430 -381 l 430 -381 q 500 -381 536 -361 l 536 -361 q 581 -334 581 -269 z m 471 -3 q 508 -3 508 -69 q 508 -136 471 -136 l 471 -136 q 433 -136 433 -69 q 433 -3 471 -3 l 471 -3 z m 211 -233 l 211 -233 q 211 -299 178 -299 l 178 -299 q 146 -299 146 -237 l 146 -237 q 146 -216 152 -198 l 152 -198 q 161 -173 179 -173 l 179 -173 q 193 -173 204 -196 l 204 -196 q 211 -213 211 -233 z m 386 -129 l 386 -129 l 226 -130 q 156 -130 156 -80 l 156 -80 q 156 -36 217 -36 l 217 -36 q 247 -36 289 -69 l 289 -69 q 346 -112 358 -118 l 358 -118 q 371 -125 386 -129 z"},"ഝ":{"ha":1033,"x_min":58,"x_max":1033,"o":"m 1033 -190 l 1033 -190 q 1033 9 883 9 l 883 9 q 840 9 823 2 l 823 2 q 794 -7 782 -38 l 782 -38 q 771 10 666 10 l 666 10 q 553 10 526 -86 l 526 -86 l 508 -264 q 497 -359 424 -359 l 424 -359 q 397 -359 377 -352 l 377 -352 q 466 -302 466 -176 l 466 -176 q 466 -101 440 -52 l 440 -52 q 406 9 337 9 l 337 9 q 282 9 255 -24 l 255 -24 q 208 -78 208 -176 l 208 -176 q 208 -302 297 -352 l 297 -352 q 278 -359 256 -359 l 256 -359 q 203 -359 179 -304 l 179 -304 q 161 -263 161 -203 l 161 -203 q 161 -162 170 -119 l 170 -119 q 188 -41 188 -40 l 188 -40 q 190 -24 190 -21 l 190 -21 q 190 9 152 9 l 152 9 q 98 9 74 -62 l 74 -62 q 58 -113 58 -180 l 58 -180 q 58 -381 255 -381 l 255 -381 q 306 -381 337 -359 l 337 -359 q 368 -381 424 -381 l 424 -381 q 558 -381 597 -286 l 597 -286 q 611 -254 622 -108 l 622 -108 q 630 -13 683 -13 l 683 -13 q 728 -13 728 -57 l 728 -57 l 728 -330 q 728 -352 744 -366 l 744 -366 q 760 -382 780 -382 q 801 -382 816 -366 l 816 -366 q 831 -352 831 -330 l 831 -330 l 831 -57 q 831 -13 871 -13 q 911 -13 931 -84 l 931 -84 q 944 -133 944 -192 l 944 -192 q 944 -228 924 -277 l 924 -277 q 904 -328 904 -349 l 904 -349 q 904 -360 914 -371 l 914 -371 q 927 -382 936 -382 l 936 -382 q 1033 -382 1033 -190 z m 372 -160 l 372 -160 q 372 -201 365 -250 l 365 -250 q 355 -324 338 -324 l 338 -324 q 318 -324 307 -254 l 307 -254 q 300 -197 300 -160 l 300 -160 q 300 -127 308 -78 l 308 -78 q 319 -13 338 -13 l 338 -13 q 355 -13 366 -76 l 366 -76 q 372 -117 372 -160 z"},"ഞ":{"ha":895,"x_min":60,"x_max":894,"o":"m 894 -180 l 894 -180 q 894 -69 869 -27 l 869 -27 q 849 9 800 9 l 800 9 q 764 9 764 -40 l 764 -40 q 764 -71 777 -112 l 777 -112 q 791 -155 791 -203 l 791 -203 q 791 -279 765 -321 l 765 -321 q 740 -359 696 -359 l 696 -359 q 676 -359 655 -352 l 655 -352 q 744 -301 744 -176 l 744 -176 q 744 -54 682 -12 l 682 -12 q 664 9 615 9 l 615 9 q 554 9 533 -24 l 533 -24 q 486 -70 486 -176 l 486 -176 q 486 -302 575 -352 l 575 -352 q 555 -359 533 -359 l 533 -359 q 502 -359 476 -341 l 476 -341 q 452 -322 452 -292 l 452 -292 l 452 -38 q 452 -21 438 -5 l 438 -5 q 425 9 408 9 l 408 9 q 385 9 368 -4 l 368 -4 q 351 -18 351 -38 l 351 -38 l 351 -308 q 351 -359 266 -359 l 266 -359 q 163 -359 151 -236 l 151 -236 q 170 -255 192 -255 l 192 -255 q 258 -255 288 -210 l 288 -210 q 311 -178 311 -123 l 311 -123 q 311 -55 265 -19 l 265 -19 q 231 9 192 9 l 192 9 q 135 9 99 -35 l 99 -35 q 60 -83 60 -161 l 60 -161 q 60 -252 111 -314 l 111 -314 q 167 -381 264 -381 l 264 -381 q 322 -381 347 -375 l 347 -375 q 391 -366 405 -335 l 405 -335 q 417 -364 451 -375 l 451 -375 q 475 -381 533 -381 l 533 -381 q 584 -381 615 -359 l 615 -359 q 646 -381 697 -381 l 697 -381 q 894 -381 894 -180 z m 650 -160 l 650 -160 q 650 -216 641 -269 l 641 -269 q 631 -333 615 -333 l 615 -333 q 596 -333 585 -257 l 585 -257 q 578 -209 578 -160 l 578 -160 q 578 -110 588 -68 l 588 -68 q 600 -13 616 -13 q 633 -13 642 -64 l 642 -64 q 650 -107 650 -160 z m 222 -128 l 222 -128 q 222 -239 188 -239 l 188 -239 q 166 -239 158 -201 l 158 -201 q 156 -188 153 -128 l 153 -128 q 152 -99 158 -62 l 158 -62 q 166 -13 188 -13 l 188 -13 q 222 -13 222 -128 z"},"ട":{"ha":400,"x_min":61,"x_max":400,"o":"m 400 -91 l 400 -91 q 400 10 234 10 l 234 10 q 127 10 90 -15 l 90 -15 q 64 -33 64 -73 l 64 -73 q 64 -94 81 -107 l 81 -107 q 100 -121 123 -121 l 123 -121 q 181 -121 181 -71 l 181 -71 q 181 -13 234 -13 l 234 -13 q 301 -13 301 -92 l 301 -92 q 301 -168 230 -168 l 230 -168 q 61 -168 61 -265 l 61 -265 q 61 -329 101 -355 l 101 -355 q 143 -381 235 -381 l 235 -381 q 341 -381 378 -355 l 378 -355 q 400 -339 400 -309 l 400 -309 q 400 -258 343 -258 l 343 -258 q 281 -258 281 -309 l 281 -309 q 281 -360 233 -360 l 233 -360 q 201 -360 182 -330 l 182 -330 q 168 -305 168 -272 l 168 -272 q 168 -238 188 -221 l 188 -221 q 206 -202 233 -202 l 233 -202 q 321 -202 360 -178 l 360 -178 q 400 -154 400 -91 z"},"ഠ":{"ha":417,"x_min":60,"x_max":416,"o":"m 416 -185 l 416 -185 q 416 -98 371 -46 l 371 -46 q 323 11 238 11 l 238 11 q 151 11 104 -46 l 104 -46 q 60 -99 60 -185 l 60 -185 q 60 -270 104 -324 l 104 -324 q 152 -383 238 -383 l 238 -383 q 322 -383 371 -324 l 371 -324 q 416 -271 416 -185 z m 299 -184 l 299 -184 q 299 -355 239 -355 l 239 -355 q 177 -355 177 -184 l 177 -184 q 177 -13 239 -13 l 239 -13 q 299 -13 299 -184 z"},"ഡ":{"ha":786,"x_min":61,"x_max":786,"o":"m 786 -189 l 786 -189 q 786 -91 756 -45 l 756 -45 q 723 9 644 9 l 644 9 q 569 9 542 -37 l 542 -37 q 520 9 447 9 l 447 9 q 305 9 305 -135 l 305 -135 l 305 -256 q 305 -296 285 -327 l 285 -327 q 261 -360 226 -360 l 226 -360 q 141 -360 141 -197 l 141 -197 q 141 -163 168 -115 l 168 -115 q 194 -66 194 -35 l 194 -35 q 194 9 156 9 l 156 9 q 61 9 61 -194 l 61 -194 q 61 -273 98 -324 l 98 -324 q 142 -382 226 -382 l 226 -382 q 303 -382 345 -341 l 345 -341 q 388 -301 388 -234 l 388 -234 l 388 -120 q 388 -76 404 -48 l 404 -48 q 424 -13 459 -13 l 459 -13 q 475 -13 486 -26 l 486 -26 q 497 -39 497 -56 l 497 -56 l 497 -330 q 497 -352 512 -366 l 512 -366 q 527 -382 546 -382 l 546 -382 q 565 -382 580 -366 l 580 -366 q 594 -351 594 -330 l 594 -330 l 594 -56 q 594 -13 632 -13 l 632 -13 q 666 -13 685 -68 l 685 -68 q 702 -117 702 -191 l 702 -191 q 702 -233 683 -281 l 683 -281 q 664 -325 664 -349 l 664 -349 q 664 -358 673 -370 q 682 -382 694 -382 l 694 -382 q 786 -382 786 -189 z"},"ഢ":{"ha":859,"x_min":61,"x_max":859,"o":"m 859 -214 l 859 -214 q 859 -107 816 -54 l 816 -54 q 766 9 651 9 l 651 9 q 568 9 541 -37 l 541 -37 q 518 9 446 9 l 446 9 q 359 9 327 -42 l 327 -42 q 303 -79 303 -165 l 303 -165 q 303 -169 303 -184 q 304 -198 304 -210 l 304 -210 q 305 -230 305 -256 l 305 -256 q 305 -295 285 -326 l 285 -326 q 262 -360 225 -360 l 225 -360 q 140 -360 140 -197 l 140 -197 q 140 -165 167 -115 q 194 -65 194 -35 l 194 -35 q 194 9 156 9 l 156 9 q 61 9 61 -194 l 61 -194 q 61 -278 104 -330 l 104 -330 q 146 -382 225 -382 l 225 -382 q 296 -382 339 -345 l 339 -345 q 387 -306 387 -234 l 387 -234 l 387 -120 q 387 -77 402 -49 l 402 -49 q 422 -13 458 -13 l 458 -13 q 474 -13 485 -26 l 485 -26 q 496 -39 496 -56 l 496 -56 l 496 -330 q 496 -352 511 -366 l 511 -366 q 525 -382 545 -382 q 564 -382 579 -366 l 579 -366 q 593 -351 593 -330 l 593 -330 l 593 -56 q 593 -13 650 -13 l 650 -13 q 700 -13 736 -49 l 736 -49 q 771 -84 773 -139 l 773 -139 q 756 -120 733 -120 l 733 -120 q 677 -120 648 -157 l 648 -157 q 620 -189 620 -251 l 620 -251 q 620 -304 651 -343 l 651 -343 q 684 -382 733 -382 l 733 -382 q 859 -382 859 -214 z m 739 -139 q 778 -139 778 -249 q 778 -359 739 -359 l 739 -359 q 697 -359 697 -249 q 697 -139 739 -139 l 739 -139 z"},"ണ":{"ha":924,"x_min":61,"x_max":923,"o":"m 923 -179 l 923 -179 q 923 9 821 9 l 821 9 q 813 9 802 -4 l 802 -4 q 791 -17 791 -30 l 791 -30 q 791 -45 810 -91 l 810 -91 q 828 -135 828 -199 l 828 -199 q 828 -256 811 -303 l 811 -303 q 790 -359 755 -359 l 755 -359 q 698 -359 698 -287 l 698 -287 l 698 -31 q 698 -13 680 -3 l 680 -3 q 662 9 644 9 q 625 9 612 -3 l 612 -3 q 599 -15 599 -31 l 599 -31 l 599 -275 q 599 -318 592 -332 l 592 -332 q 580 -359 542 -359 l 542 -359 q 491 -359 491 -280 l 491 -280 l 491 -31 q 491 -14 475 -2 l 475 -2 q 458 9 438 9 l 438 9 q 421 9 406 -3 q 392 -15 392 -31 l 392 -31 l 392 -280 q 392 -303 368 -327 l 368 -327 q 334 -359 276 -359 l 276 -359 q 190 -359 159 -275 l 159 -275 q 187 -309 232 -309 l 232 -309 q 344 -309 344 -144 l 344 -144 q 344 -62 294 -22 l 294 -22 q 257 9 201 9 l 201 9 q 139 9 103 -32 l 103 -32 q 61 -82 61 -174 l 61 -174 q 61 -256 104 -311 l 104 -311 q 160 -382 276 -382 l 276 -382 q 354 -382 373 -380 l 373 -380 q 425 -372 444 -337 l 444 -337 q 462 -382 542 -382 l 542 -382 q 623 -382 651 -336 l 651 -336 q 662 -382 754 -382 l 754 -382 q 923 -382 923 -179 z m 246 -143 l 246 -143 q 246 -279 208 -279 l 208 -279 q 188 -279 178 -230 l 178 -230 q 171 -199 171 -161 l 171 -161 q 171 -121 177 -78 l 177 -78 q 186 -13 205 -13 l 205 -13 q 246 -13 246 -143 z"},"ത":{"ha":616,"x_min":58,"x_max":616,"o":"m 616 -180 l 616 -180 q 616 -73 583 -27 l 583 -27 q 560 9 522 9 l 522 9 q 495 9 489 -7 l 489 -7 q 486 -13 486 -40 l 486 -40 q 486 -75 500 -112 l 500 -112 q 514 -150 514 -203 l 514 -203 q 514 -355 419 -355 l 419 -355 q 397 -355 377 -348 l 377 -348 q 466 -294 466 -176 l 466 -176 q 466 -55 405 -12 l 405 -12 q 385 9 337 9 l 337 9 q 276 9 255 -24 l 255 -24 q 208 -70 208 -176 l 208 -176 q 208 -296 297 -349 l 297 -349 q 276 -356 256 -356 l 256 -356 q 161 -356 161 -203 l 161 -203 q 161 -146 170 -113 l 170 -113 q 184 -63 188 -40 l 188 -40 q 190 -24 190 -21 l 190 -21 q 190 9 152 9 l 152 9 q 115 9 91 -27 l 91 -27 q 58 -75 58 -180 l 58 -180 q 58 -381 255 -381 l 255 -381 q 306 -381 337 -359 l 337 -359 q 368 -381 419 -381 l 419 -381 q 616 -381 616 -180 z m 372 -160 l 372 -160 q 372 -213 363 -264 l 363 -264 q 352 -324 338 -324 l 338 -324 q 317 -324 307 -252 l 307 -252 q 300 -195 300 -160 l 300 -160 q 300 -117 310 -68 l 310 -68 q 321 -13 338 -13 l 338 -13 q 354 -13 364 -64 l 364 -64 q 372 -109 372 -160 z"},"ഥ":{"ha":599,"x_min":62,"x_max":598,"o":"m 598 -218 l 598 0 l 62 1 l 62 -341 q 62 -382 113 -382 l 113 -382 q 163 -382 163 -337 l 163 -337 l 163 -23 l 257 -23 l 257 -218 q 257 -381 429 -381 l 429 -381 q 598 -381 598 -218 l 598 -218 z m 357 -23 l 500 -23 l 500 -250 q 500 -355 430 -355 l 430 -355 q 357 -355 357 -254 l 357 -254 l 357 -23 z"},"ദ":{"ha":474,"x_min":61,"x_max":473,"o":"m 473 -94 l 473 -94 q 473 -39 424 -12 l 424 -12 q 386 9 334 9 l 334 9 q 296 9 246 -5 l 246 -5 q 231 -5 234 -20 l 234 -20 q 236 -30 249 -30 l 249 -30 q 263 -23 306 -23 l 306 -23 q 328 -23 348 -44 l 348 -44 q 367 -65 367 -99 l 367 -99 q 367 -135 344 -153 l 344 -153 q 325 -169 299 -169 l 299 -169 l 256 -169 q 244 -169 244 -185 l 244 -185 q 244 -205 258 -205 l 258 -205 l 300 -205 q 369 -205 369 -275 l 369 -275 q 369 -360 271 -360 l 271 -360 q 209 -360 178 -292 l 178 -292 q 155 -241 156 -184 l 156 -184 q 156 -129 174 -89 l 174 -89 q 190 -47 190 -45 l 190 -45 q 190 -27 178 -10 l 178 -10 q 165 9 142 9 l 142 9 q 108 9 88 -27 l 88 -27 q 61 -74 61 -167 l 61 -167 q 61 -268 112 -325 l 112 -325 q 163 -382 266 -382 l 266 -382 q 352 -382 394 -367 l 394 -367 q 471 -341 471 -266 l 471 -266 q 471 -235 454 -215 l 454 -215 q 438 -192 412 -187 l 412 -187 q 473 -175 473 -94 z"},"ധ":{"ha":568,"x_min":60,"x_max":568,"o":"m 568 -190 l 568 -190 q 568 9 418 9 l 418 9 q 365 9 343 -4 l 343 -4 q 326 -13 317 -38 l 317 -38 q 305 9 211 9 l 211 9 q 60 9 60 -190 l 60 -190 q 60 -382 157 -382 l 157 -382 q 170 -382 180 -370 l 180 -370 q 190 -357 190 -349 l 190 -349 q 190 -328 170 -281 l 170 -281 q 150 -238 150 -192 l 150 -192 q 150 -113 167 -69 l 167 -69 q 188 -13 223 -13 l 223 -13 q 263 -13 263 -57 l 263 -57 l 263 -330 q 263 -352 278 -367 l 278 -367 q 295 -382 315 -382 q 336 -382 351 -367 q 365 -353 365 -330 l 365 -330 l 365 -57 q 365 -13 405 -13 l 405 -13 q 440 -13 461 -69 l 461 -69 q 478 -113 478 -192 l 478 -192 q 478 -238 458 -281 l 458 -281 q 438 -326 438 -349 l 438 -349 q 438 -359 448 -370 l 448 -370 q 459 -382 471 -382 l 471 -382 q 568 -382 568 -190 z"},"ന":{"ha":568,"x_min":60,"x_max":568,"o":"m 568 -183 l 568 -183 q 568 9 471 9 l 471 9 q 459 9 448 -3 l 448 -3 q 438 -14 438 -24 l 438 -24 q 438 -47 458 -92 l 458 -92 q 478 -135 478 -181 l 478 -181 q 478 -259 461 -305 l 461 -305 q 440 -360 405 -360 l 405 -360 q 365 -360 365 -316 l 365 -316 l 365 -43 q 365 -21 351 -6 q 336 9 315 9 l 315 9 q 294 9 278 -7 q 263 -22 263 -43 l 263 -43 l 263 -316 q 263 -360 223 -360 l 223 -360 q 188 -360 167 -305 l 167 -305 q 150 -259 150 -181 l 150 -181 q 150 -135 170 -92 l 170 -92 q 190 -45 190 -24 l 190 -24 q 190 -16 180 -3 l 180 -3 q 170 9 157 9 l 157 9 q 60 9 60 -183 l 60 -183 q 60 -382 211 -382 l 211 -382 q 305 -382 317 -335 l 317 -335 q 326 -360 343 -369 l 343 -369 q 365 -382 418 -382 l 418 -382 q 568 -382 568 -183 z"},"പ":{"ha":573,"x_min":57,"x_max":573,"o":"m 573 -330 l 573 0 l 266 0 q 237 0 237 -24 l 237 -24 q 237 -37 250 -78 q 263 -119 263 -147 l 263 -147 q 263 -275 208 -275 l 208 -275 q 175 -275 164 -232 l 164 -232 q 158 -206 158 -147 l 158 -147 q 158 -122 168 -90 l 168 -90 q 178 -57 178 -27 l 178 -27 q 178 9 133 9 l 133 9 q 103 9 79 -36 l 79 -36 q 57 -83 57 -147 l 57 -147 q 57 -217 98 -253 l 98 -253 q 137 -289 209 -289 l 209 -289 q 284 -289 323 -244 l 323 -244 q 356 -205 356 -147 l 356 -147 q 356 -79 304 -23 l 304 -23 l 466 -23 l 466 -333 q 466 -375 510 -382 l 510 -382 q 533 -385 553 -368 l 553 -368 q 573 -351 573 -330 l 573 -330 z"},"ഫ":{"ha":751,"x_min":57,"x_max":750,"o":"m 750 -249 l 750 0 l 266 0 q 237 0 237 -24 l 237 -24 q 237 -37 250 -78 q 263 -119 263 -147 l 263 -147 q 263 -275 208 -275 l 208 -275 q 175 -275 164 -232 l 164 -232 q 158 -206 158 -147 l 158 -147 q 158 -122 168 -90 l 168 -90 q 178 -57 178 -27 l 178 -27 q 178 9 133 9 l 133 9 q 103 9 79 -36 l 79 -36 q 57 -83 57 -147 l 57 -147 q 57 -217 98 -253 l 98 -253 q 137 -289 209 -289 l 209 -289 q 284 -289 323 -244 l 323 -244 q 356 -205 356 -147 l 356 -147 q 356 -79 304 -23 l 304 -23 l 409 -23 l 409 -212 q 409 -292 439 -329 l 439 -329 q 479 -382 581 -382 l 581 -382 q 750 -382 750 -249 l 750 -249 z m 509 -23 l 652 -23 l 652 -280 q 652 -360 581 -360 l 581 -360 q 509 -360 509 -274 l 509 -274 l 509 -23 z"},"ബ":{"ha":767,"x_min":60,"x_max":766,"o":"m 766 -330 l 766 1 l 493 1 q 463 1 463 -23 l 463 -23 q 463 -44 493 -97 l 493 -97 q 524 -147 524 -181 l 524 -181 q 524 -359 449 -359 l 449 -359 q 416 -359 416 -323 l 416 -323 l 416 -42 q 416 -21 400 -6 q 385 10 364 10 l 364 10 q 345 10 329 -6 l 329 -6 q 314 -21 314 -42 l 314 -42 l 314 -328 q 314 -360 262 -360 l 262 -360 q 204 -360 175 -328 l 175 -328 q 145 -297 146 -245 l 146 -245 l 146 -236 q 161 -256 181 -256 l 181 -256 q 233 -256 260 -214 l 260 -214 q 281 -180 281 -123 l 281 -123 q 281 -35 221 -1 l 221 -1 q 200 11 181 11 l 181 11 q 123 11 88 -48 l 88 -48 q 60 -99 60 -161 l 60 -161 q 60 -381 257 -381 l 257 -381 q 352 -381 371 -337 l 371 -337 q 382 -383 454 -383 l 454 -383 q 537 -383 577 -321 l 577 -321 q 611 -271 611 -188 l 611 -188 q 611 -82 537 -22 l 537 -22 l 665 -22 l 665 -334 q 665 -383 716 -383 l 716 -383 q 737 -383 752 -367 l 752 -367 q 766 -354 766 -330 l 766 -330 z m 206 -128 l 206 -128 q 206 -240 177 -240 l 177 -240 q 148 -240 148 -132 l 148 -132 q 148 -12 177 -12 l 177 -12 q 206 -12 206 -128 z"},"ഭ":{"ha":469,"x_min":61,"x_max":468,"o":"m 468 -293 l 468 -293 q 468 -235 396 -235 l 396 -235 q 384 -235 376 -236 l 376 -236 q 371 -236 365 -236 l 365 -236 l 360 -237 q 314 -237 314 -195 q 314 -153 359 -153 l 359 -153 q 467 -153 467 -84 l 467 -84 q 467 -29 431 -11 l 431 -11 q 407 0 355 0 l 355 0 l 240 0 q 231 0 228 -3 q 224 -6 225 -12 l 225 -12 q 228 -23 240 -23 l 240 -23 l 311 -23 q 366 -23 366 -79 l 366 -79 q 366 -134 309 -134 l 309 -134 q 275 -134 260 -138 l 260 -138 q 222 -149 222 -191 l 222 -191 q 222 -255 289 -255 l 289 -255 q 299 -255 307 -254 l 307 -254 l 325 -254 q 366 -254 366 -297 l 366 -297 q 366 -326 357 -336 l 357 -336 q 338 -360 277 -360 l 277 -360 q 157 -360 157 -176 l 157 -176 q 157 -160 170 -113 l 170 -113 q 182 -66 182 -32 l 182 -32 q 182 -19 171 -5 q 160 9 146 9 l 146 9 q 110 9 87 -35 l 87 -35 q 61 -85 61 -175 l 61 -175 q 61 -382 279 -382 l 279 -382 q 377 -382 413 -370 l 413 -370 q 468 -353 468 -293 z"},"മ":{"ha":493,"x_min":61,"x_max":493,"o":"m 493 -196 l 493 0 l 61 0 l 61 -201 q 61 -382 280 -382 l 280 -382 q 493 -382 493 -196 l 493 -196 z m 274 -23 l 392 -23 l 392 -195 q 392 -270 378 -300 l 378 -300 q 354 -356 283 -356 l 283 -356 q 229 -356 199 -326 l 199 -326 l 201 -326 q 267 -326 303 -278 l 303 -278 q 337 -233 337 -164 l 337 -164 q 337 -64 274 -23 l 274 -23 z m 165 -224 l 165 -64 l 165 -23 l 211 -23 q 248 -34 248 -163 l 248 -163 q 248 -304 203 -304 l 203 -304 q 184 -304 172 -279 l 172 -279 q 165 -258 165 -224 l 165 -224 z"},"യ":{"ha":652,"x_min":62,"x_max":652,"o":"m 652 -187 l 652 -187 q 652 -92 593 -39 l 593 -39 q 541 9 452 9 l 452 9 q 395 9 363 -3 l 363 -3 q 330 9 272 9 l 272 9 q 62 9 62 -209 l 62 -209 q 62 -287 100 -334 l 100 -334 q 137 -381 201 -381 l 201 -381 q 256 -381 270 -343 l 270 -343 q 299 -381 360 -381 l 360 -381 q 425 -381 461 -330 l 461 -330 q 498 -279 498 -192 l 498 -192 q 498 -113 466 -64 l 466 -64 q 440 -25 404 -13 l 404 -13 q 453 -13 496 -48 l 496 -48 q 554 -95 564 -186 l 564 -186 q 567 -216 548 -277 l 548 -277 q 529 -336 529 -354 l 529 -354 q 529 -381 558 -381 l 558 -381 q 652 -381 652 -187 z m 408 -193 l 408 -193 q 408 -353 361 -353 l 361 -353 q 313 -353 313 -193 l 313 -193 q 313 -32 361 -32 l 361 -32 q 408 -32 408 -193 z m 310 -15 l 310 -15 q 271 -31 246 -81 l 246 -81 q 222 -132 222 -185 l 222 -185 q 222 -201 225 -241 l 225 -241 q 227 -267 227 -297 l 227 -297 q 227 -357 202 -357 l 202 -357 q 147 -357 147 -202 l 147 -202 q 147 -125 195 -70 l 195 -70 q 244 -15 310 -15 z"},"ര":{"ha":500,"x_min":61,"x_max":499,"o":"m 499 -166 l 499 -166 q 499 -73 450 -27 l 450 -27 q 413 9 354 9 l 354 9 q 303 9 269 -24 l 269 -24 q 221 -69 221 -170 l 221 -170 q 221 -262 250 -306 l 250 -306 q 274 -343 326 -349 l 326 -349 q 309 -360 275 -360 l 275 -360 q 219 -360 184 -306 l 184 -306 q 154 -259 154 -197 l 154 -197 q 154 -161 186 -114 l 186 -114 q 217 -65 217 -34 l 217 -34 q 217 9 172 9 l 172 9 q 61 9 61 -194 l 61 -194 q 61 -271 115 -324 l 115 -324 q 176 -382 275 -382 l 275 -382 q 373 -382 437 -323 l 437 -323 q 499 -264 499 -166 z m 394 -169 l 394 -169 q 395 -222 385 -269 l 385 -269 q 375 -322 356 -322 q 338 -322 324 -271 l 324 -271 q 313 -224 313 -174 l 313 -174 q 313 -117 324 -75 l 324 -75 q 337 -23 356 -23 l 356 -23 q 375 -23 385 -74 l 385 -74 q 394 -115 394 -169 z"},"റ":{"ha":407,"x_min":61,"x_max":407,"o":"m 407 -198 l 407 -198 q 407 -100 387 -52 l 387 -52 q 361 10 297 8 l 297 8 q 281 8 270 -7 q 258 -21 258 -36 l 258 -36 q 258 -68 290 -116 l 290 -116 q 323 -165 323 -201 l 323 -201 q 323 -360 235 -360 l 235 -360 q 145 -360 145 -197 l 145 -197 q 145 -164 173 -115 q 201 -66 201 -35 l 201 -35 q 201 8 161 8 l 161 8 q 61 8 61 -194 l 61 -194 q 61 -273 100 -324 l 100 -324 q 146 -382 235 -382 l 235 -382 q 321 -382 368 -324 l 368 -324 q 407 -273 407 -198 z"},"ല":{"ha":578,"x_min":61,"x_max":578,"o":"m 578 -340 l 578 0 l 61 0 l 61 -220 q 61 -279 97 -326 l 97 -326 q 144 -382 231 -382 l 231 -382 q 402 -382 402 -207 l 402 -207 l 402 -85 l 159 -85 l 159 -23 l 486 -23 l 486 -337 q 486 -355 499 -368 l 499 -368 q 512 -382 529 -382 q 547 -382 563 -370 l 563 -370 q 578 -358 578 -340 l 578 -340 z m 161 -112 l 304 -112 l 304 -281 q 304 -357 233 -357 l 233 -357 q 198 -357 178 -328 l 178 -328 q 161 -303 161 -265 l 161 -265 l 161 -112 z"},"ള":{"ha":506,"x_min":63,"x_max":505,"o":"m 505 -254 l 505 -254 q 505 -193 459 -176 l 459 -176 q 504 -160 504 -90 l 504 -90 q 504 -31 466 -6 l 466 -6 q 434 15 361 15 l 361 15 l 223 18 q 153 20 153 58 l 153 58 q 153 79 170 90 l 170 90 q 185 101 207 101 l 207 101 q 246 101 272 86 l 272 86 q 316 61 323 59 l 323 59 q 365 44 446 44 l 446 44 q 466 44 483 60 l 483 60 q 498 75 496 96 l 496 96 q 490 138 446 138 l 446 138 q 314 138 186 135 l 186 135 q 118 135 104 130 l 104 130 q 65 117 65 60 l 65 60 q 65 -6 145 -6 l 145 -6 l 164 -6 q 173 -5 181 -5 l 181 -5 l 319 -2 q 362 -2 386 -26 l 386 -26 q 409 -50 409 -91 l 409 -91 q 409 -117 400 -136 l 400 -136 q 388 -160 366 -160 l 366 -160 q 336 -160 336 -172 l 336 -172 q 336 -185 349 -186 l 349 -186 l 370 -186 q 389 -186 400 -216 l 400 -216 q 409 -238 409 -261 l 409 -261 q 409 -302 369 -330 l 369 -330 q 330 -359 289 -359 l 289 -359 q 250 -359 217 -342 l 217 -342 q 177 -322 166 -289 l 166 -289 q 179 -300 202 -300 l 202 -300 q 252 -300 279 -259 l 279 -259 q 303 -224 303 -172 l 303 -172 q 303 -99 275 -67 l 275 -67 q 246 -36 177 -36 l 177 -36 q 63 -36 63 -191 l 63 -191 q 63 -285 130 -336 l 130 -336 q 190 -381 289 -381 l 289 -381 q 505 -381 505 -254 z m 223 -163 l 223 -163 q 223 -270 183 -270 l 183 -270 q 163 -270 151 -234 l 151 -234 q 140 -205 140 -181 l 140 -181 q 140 -141 146 -109 l 146 -109 q 155 -55 178 -55 l 178 -55 q 203 -55 215 -98 l 215 -98 q 223 -125 223 -163 z"},"ഴ":{"ha":443,"x_min":61,"x_max":443,"o":"m 443 -266 l 443 -266 q 443 -225 417 -190 l 417 -190 q 391 -155 348 -148 l 348 -148 q 412 -125 412 -63 l 412 -63 q 412 -18 358 5 l 358 5 q 316 21 263 21 l 263 21 q 106 21 106 -51 l 106 -51 q 106 -102 154 -102 l 154 -102 q 174 -102 189 -90 l 189 -90 q 206 -76 206 -61 l 206 -61 q 206 3 261 3 l 261 3 q 334 3 334 -70 l 334 -70 q 334 -110 307 -134 l 307 -134 q 291 -132 248 -132 l 248 -132 q 170 -132 115 -169 l 115 -169 q 61 -204 61 -264 l 61 -264 q 61 -382 135 -382 l 135 -382 q 149 -382 161 -373 l 161 -373 q 174 -366 174 -354 l 174 -354 q 174 -337 163 -307 l 163 -307 q 152 -279 152 -261 l 152 -261 q 149 -222 179 -187 l 179 -187 q 208 -155 249 -155 l 249 -155 q 266 -155 277 -158 l 277 -158 q 201 -187 201 -265 l 201 -265 q 201 -318 232 -350 l 232 -350 q 264 -382 325 -382 l 325 -382 q 378 -382 410 -349 l 410 -349 q 443 -315 443 -266 z m 323 -169 q 363 -169 363 -266 q 363 -362 323 -362 l 323 -362 q 280 -362 280 -266 q 280 -169 323 -169 l 323 -169 z"},"വ":{"ha":571,"x_min":60,"x_max":571,"o":"m 571 -337 l 571 0 l 305 0 q 283 0 283 -11 l 283 -11 l 304 -66 q 324 -122 324 -184 l 324 -184 q 324 -236 304 -291 l 304 -291 q 278 -359 236 -359 l 236 -359 q 201 -359 179 -299 l 179 -299 q 160 -252 160 -203 l 160 -203 q 160 -152 173 -110 l 173 -110 q 185 -66 185 -38 l 185 -38 q 185 -23 176 -9 l 176 -9 q 164 8 146 8 l 146 8 q 60 8 60 -185 l 60 -185 q 60 -258 98 -311 l 98 -311 q 146 -382 240 -382 l 240 -382 q 339 -382 389 -319 l 389 -319 q 429 -270 429 -192 l 429 -192 q 429 -96 365 -23 l 365 -23 l 469 -23 l 469 -337 q 469 -357 483 -369 l 483 -369 q 496 -382 518 -382 l 518 -382 q 571 -382 571 -337 l 571 -337 z"},"ശ":{"ha":657,"x_min":60,"x_max":657,"o":"m 657 -162 l 657 -162 q 657 8 527 8 l 527 8 q 463 8 430 -42 l 430 -42 q 399 -87 399 -169 l 399 -169 q 399 -231 424 -283 l 424 -283 q 452 -340 496 -349 l 496 -349 q 477 -358 453 -358 l 453 -358 q 378 -358 378 -197 l 378 -197 q 378 -94 343 -45 l 343 -45 q 305 8 214 8 l 214 8 q 138 8 97 -52 l 97 -52 q 60 -106 60 -195 l 60 -195 q 60 -254 83 -310 l 83 -310 q 112 -381 160 -381 l 160 -381 q 204 -381 204 -328 l 204 -328 q 204 -303 180 -254 l 180 -254 q 156 -203 156 -166 l 156 -166 q 156 -13 221 -13 l 221 -13 q 275 -13 275 -113 l 275 -113 q 275 -117 273 -154 l 273 -154 q 271 -172 271 -195 l 271 -195 q 271 -281 318 -331 q 365 -381 443 -381 l 443 -381 q 550 -381 605 -322 l 605 -322 q 657 -265 657 -162 z m 566 -173 l 566 -173 q 566 -209 558 -258 l 558 -258 q 549 -327 529 -327 l 529 -327 q 508 -327 496 -258 l 496 -258 q 488 -215 488 -171 l 488 -171 q 488 -126 496 -83 l 496 -83 q 508 -13 529 -13 l 529 -13 q 549 -13 558 -84 l 558 -84 q 566 -133 566 -173 z"},"ഷ":{"ha":672,"x_min":62,"x_max":671,"o":"m 671 -330 l 671 1 l 274 1 q 241 1 241 -19 l 241 -19 q 241 -34 254 -69 q 267 -104 267 -127 l 267 -127 q 267 -233 212 -233 l 212 -233 q 179 -233 167 -194 l 167 -194 q 162 -173 162 -132 l 162 -132 q 162 -110 172 -77 l 172 -77 q 182 -42 182 -22 l 182 -22 q 182 8 138 8 l 138 8 q 99 8 78 -46 l 78 -46 q 62 -87 62 -127 l 62 -127 q 62 -187 104 -220 l 104 -220 q 144 -251 213 -251 l 213 -251 q 279 -251 319 -218 l 319 -218 q 359 -186 359 -127 l 359 -127 q 359 -69 307 -22 l 307 -22 l 587 -22 l 587 -221 l 530 -185 l 530 -30 l 456 -30 l 456 -168 q 447 -167 432 -167 l 432 -167 q 383 -167 358 -200 l 358 -200 q 336 -229 336 -274 l 336 -274 q 336 -318 358 -349 l 358 -349 q 383 -383 428 -383 l 428 -383 q 470 -383 501 -352 l 501 -352 q 530 -319 530 -272 l 530 -272 l 530 -216 q 557 -227 571 -254 l 571 -254 q 587 -279 587 -312 l 587 -312 q 587 -382 629 -382 q 671 -382 671 -330 l 671 -330 z m 453 -274 l 453 -274 q 453 -359 423 -359 l 423 -359 q 392 -359 392 -274 l 392 -274 q 392 -188 423 -188 l 423 -188 q 453 -188 453 -274 z"},"സ":{"ha":787,"x_min":61,"x_max":787,"o":"m 787 -179 l 787 -179 q 787 -103 748 -51 l 748 -51 q 703 8 624 8 l 624 8 q 547 8 508 -34 l 508 -34 q 473 -70 473 -136 l 473 -136 l 473 -286 q 473 -359 406 -359 l 406 -359 q 366 -359 366 -321 l 366 -321 l 366 -43 q 366 -21 351 -7 l 351 -7 q 336 8 315 8 q 295 8 278 -7 l 278 -7 q 263 -22 263 -43 l 263 -43 l 263 -316 q 263 -359 223 -359 l 223 -359 q 188 -359 168 -304 l 168 -304 q 150 -257 150 -181 l 150 -181 q 150 -135 170 -92 l 170 -92 q 190 -45 190 -24 l 190 -24 q 190 -17 181 -5 l 181 -5 q 172 8 158 8 l 158 8 q 61 8 61 -183 l 61 -183 q 61 -381 211 -381 l 211 -381 q 295 -381 317 -335 l 317 -335 q 328 -381 418 -381 l 418 -381 q 488 -381 527 -350 l 527 -350 q 565 -317 565 -262 l 565 -262 l 565 -104 q 565 -67 579 -44 l 579 -44 q 596 -14 624 -14 l 624 -14 q 703 -14 703 -176 l 703 -176 q 703 -211 671 -261 l 671 -261 q 638 -310 638 -341 l 638 -341 q 638 -381 677 -381 l 677 -381 q 729 -381 758 -324 l 758 -324 q 787 -269 787 -179 z"},"ഹ":{"ha":724,"x_min":61,"x_max":723,"o":"m 723 -198 l 723 -198 q 723 -108 695 -53 l 695 -53 q 665 7 612 7 l 612 7 q 574 7 574 -36 l 574 -36 q 574 -68 606 -116 l 606 -116 q 639 -166 639 -201 l 639 -201 q 639 -359 550 -359 l 550 -359 q 460 -359 460 -197 l 460 -197 q 460 -164 488 -115 l 488 -115 q 516 -67 516 -35 l 516 -35 q 516 -12 501 0 l 501 0 q 499 2 496 0 l 496 0 l 254 0 q 223 0 223 -20 l 223 -20 q 223 -29 240 -66 l 240 -66 q 257 -104 257 -126 l 257 -126 q 257 -230 205 -230 l 205 -230 q 173 -230 162 -196 l 162 -196 q 157 -180 157 -126 l 157 -126 q 157 -106 166 -77 l 166 -77 q 176 -48 176 -22 l 176 -22 q 176 7 133 7 l 133 7 q 104 7 82 -31 l 82 -31 q 61 -71 61 -126 l 61 -126 q 61 -249 206 -249 l 206 -249 q 276 -249 314 -210 l 314 -210 q 346 -177 346 -126 l 346 -126 q 346 -67 286 -23 l 286 -23 l 415 -23 q 376 -69 376 -194 l 376 -194 q 376 -273 416 -324 l 416 -324 q 462 -382 550 -382 l 550 -382 q 639 -382 683 -324 l 683 -324 q 723 -275 723 -198 z"},"ഽ":{"ha":609,"x_min":-32,"x_max":634,"o":"m 634 -426 l 634 -426 l 578 -404 q 581 -425 571 -438 l 571 -438 q 561 -451 539 -450 l 539 -450 q 496 -450 466 -394 l 466 -394 l 355 -171 l 422 -175 l 404 -121 l 328 -117 q 317 -97 187 176 l 187 176 q 137 277 45 277 l 45 277 q -35 277 -32 200 l -32 200 l 8 179 q 3 199 15 212 l 15 212 q 25 226 47 225 l 47 225 q 93 223 119 168 l 119 168 l 258 -115 l 203 -112 l 221 -165 l 284 -169 l 399 -401 q 449 -503 557 -503 l 557 -503 q 639 -503 634 -426 z"},"ാ":{"ha":351,"x_min":55,"x_max":350,"o":"m 350 -183 l 350 -183 q 350 -103 312 -50 l 312 -50 q 271 8 194 8 l 194 8 q 55 8 55 -109 l 55 -109 q 55 -163 104 -163 l 104 -163 q 143 -163 151 -109 l 151 -109 q 165 -14 200 -14 l 200 -14 q 256 -14 256 -189 l 256 -189 q 256 -252 243 -300 l 243 -300 q 227 -359 200 -359 l 200 -359 q 165 -359 151 -259 l 151 -259 q 145 -214 104 -214 l 104 -214 q 55 -214 55 -270 l 55 -270 q 55 -326 97 -356 l 97 -356 q 134 -381 194 -381 l 194 -381 q 350 -381 350 -183 z"},"ി":{"ha":180,"x_min":-116,"x_max":179,"o":"m 179 -447 l 179 -28 q 179 -11 165 0 q 151 11 131 11 l 131 11 q 82 11 82 -27 l 82 -27 l 82 -463 q 82 -566 29 -566 l 29 -566 q -16 -566 -22 -508 l -22 -508 q -22 -489 -20 -476 l -20 -476 q -17 -455 -17 -448 l -17 -448 q -19 -433 -34 -423 l -34 -423 q -51 -412 -68 -412 l -68 -412 q -83 -412 -100 -429 l -100 -429 q -116 -447 -116 -465 l -116 -465 q -116 -525 -88 -554 l -88 -554 q -55 -589 29 -589 l 29 -589 q 179 -589 179 -447 l 179 -447 z"},"ീ":{"ha":189,"x_min":-119,"x_max":189,"o":"m 189 -438 l 189 -27 q 189 -12 176 -1 q 162 10 142 10 l 142 10 q 93 10 93 -26 l 93 -26 l 93 -453 q 93 -560 49 -560 l 49 -560 l 37 -561 q 65 -530 65 -483 l 65 -483 q 65 -445 44 -419 l 44 -419 q 21 -391 -22 -391 l -22 -391 q -119 -391 -119 -486 l -119 -486 q -119 -533 -82 -562 q -45 -590 15 -590 l 15 -590 q 106 -590 147 -555 l 147 -555 q 189 -519 189 -438 l 189 -438 z m -5 -474 l -5 -474 q -5 -540 -27 -540 l -27 -540 q -51 -540 -51 -474 l -51 -474 q -51 -414 -27 -414 l -27 -414 q -5 -414 -5 -474 z"},"ു":{"ha":323,"x_min":61,"x_max":323,"o":"m 323 102 l 323 102 q 323 153 286 188 l 286 188 q 250 221 190 221 l 190 221 q 131 221 94 183 l 94 183 q 61 147 61 100 l 61 100 q 61 59 84 31 l 84 31 q 110 -3 158 -10 l 158 -10 q 149 -23 149 -36 l 149 -36 q 149 -68 182 -116 l 182 -116 q 214 -166 214 -201 l 214 -201 q 214 -360 125 -360 l 125 -360 l 117 -358 q 111 -357 108 -358 l 108 -358 q 92 -361 92 -371 l 92 -371 q 93 -377 108 -381 l 108 -381 q 109 -382 125 -382 l 125 -382 q 213 -382 259 -324 l 259 -324 q 298 -275 298 -198 l 298 -198 q 298 -43 242 -6 l 242 -6 q 323 18 323 102 z m 242 109 l 242 109 q 242 32 208 7 l 208 7 q 198 10 188 8 l 188 8 q 180 8 176 6 l 176 6 q 146 25 146 108 l 146 108 q 146 143 157 164 l 157 164 q 170 193 192 193 l 192 193 q 242 193 242 109 z"},"ൂ":{"ha":331,"x_min":62,"x_max":331,"o":"m 331 102 l 331 102 q 331 154 293 187 l 293 187 q 256 220 195 220 l 195 220 q 132 220 95 183 l 95 183 q 62 147 62 100 l 62 100 q 62 61 86 31 l 86 31 q 112 -1 164 -9 l 164 -9 q 154 -22 154 -36 l 154 -36 q 154 -68 187 -116 l 187 -116 q 219 -166 219 -201 l 219 -201 q 219 -360 130 -360 l 130 -360 q 127 -360 119 -357 l 119 -357 q 113 -354 108 -357 l 108 -357 q 94 -360 94 -369 l 94 -369 q 94 -373 107 -381 l 107 -381 q 108 -382 130 -382 l 130 -382 q 219 -382 263 -324 l 263 -324 q 303 -275 303 -198 l 303 -198 q 303 -41 246 -5 l 246 -5 q 331 18 331 102 z m 248 109 l 248 109 q 248 30 212 7 l 212 7 q 204 10 192 8 l 192 8 q 185 8 181 6 l 181 6 q 149 22 149 108 l 149 108 q 149 143 160 165 l 160 165 q 174 195 197 195 l 197 195 q 248 195 248 109 z m 233 99 l 233 99 q 233 118 223 134 l 223 134 q 213 148 198 148 q 184 148 173 134 l 173 134 q 163 120 163 99 l 163 99 q 163 78 173 64 l 173 64 q 184 50 198 50 q 213 50 223 64 l 223 64 q 233 80 233 99 z"},"ൃ":{"ha":219,"x_min":-104,"x_max":218,"o":"m 218 32 l 218 32 q 218 103 168 141 l 168 141 q 125 165 82 165 l 82 165 l 8 165 q -104 165 -104 102 l -104 102 q -104 53 -49 38 l -49 38 q -17 29 57 29 l 57 29 q 79 29 95 34 l 95 34 q 97 35 131 44 l 131 44 q 128 -6 72 -81 l 72 -81 q 19 -152 19 -208 l 19 -208 l 19 -345 q 19 -361 34 -374 l 34 -374 q 51 -385 70 -385 l 70 -385 q 88 -385 100 -373 l 100 -373 q 113 -361 113 -344 l 113 -344 l 113 -210 q 113 -159 165 -90 l 165 -90 q 218 -20 218 32 z m 125 104 l 125 104 q 125 51 48 51 l 48 51 q -33 51 -30 103 l -30 103 q -27 146 49 146 l 49 146 q 93 146 111 136 l 111 136 q 125 127 125 104 z"},"െ":{"ha":479,"x_min":63,"x_max":479,"o":"m 479 -168 l 479 -168 q 479 9 379 9 l 379 9 q 345 9 345 -24 l 345 -24 q 345 -34 365 -90 l 365 -90 q 386 -145 386 -193 l 386 -193 q 386 -243 361 -292 l 361 -292 q 326 -359 268 -359 l 268 -359 q 166 -359 162 -245 l 162 -245 q 182 -255 204 -255 l 204 -255 q 270 -255 300 -210 l 300 -210 q 323 -176 323 -123 l 323 -123 q 323 -56 277 -19 l 277 -19 q 243 9 204 9 l 204 9 q 139 9 101 -35 l 101 -35 q 63 -79 63 -161 l 63 -161 q 63 -381 268 -381 l 268 -381 q 479 -381 479 -168 z m 239 -116 l 239 -116 q 239 -153 229 -188 l 229 -188 q 217 -228 196 -228 l 196 -228 q 158 -228 158 -117 l 158 -117 q 158 -84 167 -53 l 167 -53 q 179 -17 197 -17 l 197 -17 q 239 -17 239 -116 z"},"േ":{"ha":400,"x_min":60,"x_max":400,"o":"m 400 -89 l 400 -89 q 400 -36 366 -14 l 366 -14 q 333 8 256 8 l 256 8 q 60 8 60 -190 l 60 -190 q 60 -286 102 -331 l 102 -331 q 152 -381 273 -381 l 273 -381 q 400 -381 400 -277 l 400 -277 q 400 -232 363 -210 l 363 -210 q 336 -194 299 -194 l 299 -194 q 264 -194 240 -218 l 240 -218 q 218 -242 218 -285 l 218 -285 q 218 -319 253 -360 l 253 -360 q 213 -360 184 -302 l 184 -302 q 158 -248 158 -190 l 158 -190 q 158 -123 186 -68 l 186 -68 q 213 -13 243 -13 l 243 -13 q 217 -48 217 -86 l 217 -86 q 217 -115 237 -139 l 237 -139 q 262 -168 302 -168 l 302 -168 q 351 -168 377 -142 l 377 -142 q 400 -119 400 -89 z m 330 -272 l 330 -272 q 330 -360 304 -360 l 304 -360 q 275 -360 275 -275 l 275 -275 q 275 -209 300 -209 l 300 -209 q 314 -209 323 -234 l 323 -234 q 330 -252 330 -272 z m 331 -79 l 331 -79 q 331 -159 302 -159 l 302 -159 q 275 -159 275 -81 l 275 -81 q 275 -11 299 -11 l 299 -11 q 331 -11 331 -79 z"},"ൈ":{"ha":949,"x_min":63,"x_max":949,"o":"m 949 -168 l 949 -168 q 949 9 849 9 l 849 9 q 815 9 815 -24 l 815 -24 q 815 -34 836 -90 l 836 -90 q 856 -145 856 -193 l 856 -193 q 856 -241 831 -292 l 831 -292 q 797 -359 738 -359 l 738 -359 q 637 -359 632 -245 l 632 -245 q 651 -255 674 -255 l 674 -255 q 739 -255 770 -210 l 770 -210 q 793 -176 793 -123 l 793 -123 q 793 -56 747 -19 l 747 -19 q 714 9 674 9 l 674 9 q 608 9 570 -35 l 570 -35 q 533 -81 533 -161 l 533 -161 q 533 -381 738 -381 l 738 -381 q 949 -381 949 -168 z m 709 -116 l 709 -116 q 709 -156 699 -188 l 699 -188 q 688 -228 666 -228 l 666 -228 q 628 -228 628 -117 l 628 -117 q 628 -84 637 -53 l 637 -53 q 648 -17 667 -17 l 667 -17 q 709 -17 709 -116 z m 479 -168 l 479 -168 q 479 9 379 9 l 379 9 q 345 9 345 -24 l 345 -24 q 345 -34 365 -90 l 365 -90 q 386 -145 386 -193 l 386 -193 q 386 -243 361 -292 l 361 -292 q 326 -359 268 -359 l 268 -359 q 166 -359 162 -245 l 162 -245 q 182 -255 204 -255 l 204 -255 q 270 -255 300 -210 l 300 -210 q 323 -176 323 -123 l 323 -123 q 323 -56 277 -19 l 277 -19 q 243 9 204 9 l 204 9 q 139 9 101 -35 l 101 -35 q 63 -79 63 -161 l 63 -161 q 63 -381 268 -381 l 268 -381 q 479 -381 479 -168 z m 239 -116 l 239 -116 q 239 -153 229 -188 l 229 -188 q 217 -228 196 -228 l 196 -228 q 158 -228 158 -117 l 158 -117 q 158 -84 167 -53 l 167 -53 q 179 -17 197 -17 l 197 -17 q 239 -17 239 -116 z"},"ൊ":{"ha":1129,"x_min":80,"x_max":1128,"o":"m 1128 -428 l 1128 -93 q 1128 -33 1085 10 l 1085 10 q 1043 53 981 53 l 981 53 l 227 53 q 165 53 123 10 l 123 10 q 80 -33 80 -93 l 80 -93 l 80 -428 q 80 -486 123 -531 l 123 -531 q 166 -574 227 -574 l 227 -574 l 981 -574 q 1042 -574 1085 -531 l 1085 -531 q 1128 -486 1128 -428 l 1128 -428 z m 1085 -138 l 1085 -138 l 1085 -385 q 1085 -444 1042 -489 l 1042 -489 q 999 -532 939 -532 l 939 -532 l 269 -532 q 209 -532 166 -489 l 166 -489 q 123 -444 123 -385 l 123 -385 l 123 -138 q 123 -78 166 -35 l 166 -35 q 208 8 269 8 l 269 8 l 939 8 q 1000 8 1042 -35 l 1042 -35 q 1085 -78 1085 -138 z m 1021 -256 l 1021 -256 q 1021 -66 888 -66 l 888 -66 q 766 -66 766 -189 l 766 -189 l 766 -191 l 796 -191 q 805 -148 815 -136 l 815 -136 q 830 -116 867 -116 l 867 -116 q 920 -116 938 -164 l 938 -164 q 950 -195 950 -257 l 950 -257 q 950 -396 877 -396 l 877 -396 q 830 -396 814 -367 l 814 -367 q 802 -351 796 -298 l 796 -298 l 766 -298 l 766 -300 q 766 -367 789 -399 l 789 -399 q 815 -435 881 -435 l 881 -435 q 1021 -435 1021 -256 z m 729 -259 l 729 -218 l 643 -218 l 643 -259 l 729 -259 z m 609 -249 l 609 -249 q 609 -147 493 -61 l 493 -61 l 447 -79 q 532 -143 532 -236 l 532 -236 q 532 -300 486 -346 l 486 -346 q 440 -391 376 -391 l 376 -391 q 307 -391 262 -345 l 262 -345 q 217 -298 208 -230 l 208 -230 l 211 -227 q 254 -285 309 -285 l 309 -285 q 354 -285 387 -250 q 419 -215 419 -170 l 419 -170 q 419 -121 389 -94 l 389 -94 q 360 -66 311 -66 l 311 -66 q 248 -66 212 -110 l 212 -110 q 179 -152 179 -216 l 179 -216 q 179 -306 240 -370 l 240 -370 q 301 -435 391 -435 l 391 -435 q 475 -435 539 -385 l 539 -385 q 609 -330 609 -249 z m 358 -176 l 358 -176 q 358 -204 340 -226 l 340 -226 q 322 -246 293 -246 q 264 -246 244 -228 l 244 -228 q 224 -210 224 -181 l 224 -181 q 224 -154 244 -133 l 244 -133 q 265 -112 292 -112 l 292 -112 q 318 -112 338 -131 l 338 -131 q 358 -150 358 -176 z"},"ോ":{"ha":1039,"x_min":80,"x_max":1039,"o":"m 1039 -428 l 1039 -93 q 1039 -33 996 10 l 996 10 q 954 53 893 53 l 893 53 l 227 53 q 165 53 123 10 l 123 10 q 80 -33 80 -93 l 80 -93 l 80 -428 q 80 -486 123 -531 l 123 -531 q 166 -574 227 -574 l 227 -574 l 893 -574 q 953 -574 996 -531 l 996 -531 q 1039 -486 1039 -428 l 1039 -428 z m 1004 -126 l 1004 -126 l 1004 -385 q 1004 -444 961 -489 l 961 -489 q 918 -532 857 -532 l 857 -532 l 272 -532 q 212 -532 169 -489 l 169 -489 q 126 -444 126 -385 l 126 -385 l 126 -126 q 126 -66 169 -23 l 169 -23 q 211 20 272 20 l 272 20 l 857 20 q 919 20 961 -23 l 961 -23 q 1004 -66 1004 -126 z m 922 -255 l 922 -255 q 922 -65 789 -65 l 789 -65 q 667 -65 667 -188 l 667 -188 l 667 -190 l 696 -190 q 703 -151 715 -135 l 715 -135 q 730 -116 768 -116 l 768 -116 q 851 -116 851 -256 l 851 -256 q 851 -395 777 -395 l 777 -395 q 731 -395 714 -367 l 714 -367 q 703 -350 696 -297 l 696 -297 l 667 -297 l 667 -300 q 667 -366 690 -398 l 690 -398 q 715 -435 782 -435 l 782 -435 q 922 -435 922 -255 z m 630 -258 l 630 -218 l 543 -218 l 543 -258 l 630 -258 z m 507 -164 l 507 -164 q 507 -116 455 -88 l 455 -88 q 416 -68 358 -68 l 358 -68 q 273 -68 228 -118 l 228 -118 q 182 -170 182 -255 q 182 -340 229 -388 q 275 -436 358 -436 l 358 -436 q 415 -436 455 -416 l 455 -416 q 507 -390 507 -341 l 507 -341 q 507 -269 438 -269 l 438 -269 q 404 -269 380 -286 l 380 -286 q 356 -304 356 -337 l 356 -337 q 356 -382 384 -403 l 384 -403 q 371 -409 354 -409 l 354 -409 q 249 -409 249 -255 l 249 -255 q 249 -95 354 -95 l 354 -95 q 368 -95 384 -102 l 384 -102 q 356 -117 356 -164 l 356 -164 q 356 -195 382 -214 l 382 -214 q 405 -231 438 -231 l 438 -231 q 467 -231 487 -213 l 487 -213 q 507 -194 507 -164 z m 478 -339 l 478 -339 q 478 -388 432 -397 l 432 -397 q 404 -385 404 -343 l 404 -343 q 404 -296 438 -296 l 438 -296 q 478 -296 478 -339 z m 478 -166 l 478 -166 q 478 -182 466 -193 l 466 -193 q 453 -204 438 -204 l 438 -204 q 404 -204 404 -161 l 404 -161 q 404 -122 432 -107 l 432 -107 q 478 -116 478 -166 z"},"ൌ":{"ha":454,"x_min":51,"x_max":454,"o":"m 454 -219 l 454 -219 q 454 -112 414 -58 l 414 -58 q 364 11 241 11 l 241 11 q 123 11 123 -42 l 123 -42 q 123 -63 140 -63 q 156 -63 187 -36 l 187 -36 q 216 -10 250 -10 l 250 -10 q 315 -10 342 -97 l 342 -97 q 359 -152 359 -232 l 359 -232 q 359 -268 352 -305 l 352 -305 q 342 -360 317 -360 l 317 -360 q 294 -360 294 -329 l 294 -329 l 294 -169 q 294 -152 279 -141 l 279 -141 q 264 -128 247 -128 l 247 -128 q 227 -128 210 -140 l 210 -140 q 194 -152 194 -170 l 194 -170 l 194 -328 q 194 -360 172 -360 l 172 -360 q 135 -360 135 -253 l 135 -253 q 135 -239 141 -213 q 146 -187 146 -172 l 146 -172 q 146 -155 134 -141 l 134 -141 q 121 -128 104 -128 l 104 -128 q 51 -128 51 -250 l 51 -250 q 51 -304 82 -344 l 82 -344 q 113 -382 167 -382 l 167 -382 q 234 -382 246 -336 l 246 -336 q 260 -382 321 -382 l 321 -382 q 454 -382 454 -219 z"},"്":{"ha":43,"x_min":-77,"x_max":207,"o":"m 207 -498 l 207 -498 q 207 -448 173 -417 l 173 -417 q 134 -383 65 -383 l 65 -383 q -77 -383 -77 -507 l -77 -507 q -77 -556 -22 -556 l -22 -556 q 19 -556 19 -516 l 19 -516 q 19 -506 18 -498 l 18 -498 q 16 -482 16 -480 l 16 -480 q 16 -401 64 -401 l 64 -401 q 123 -401 117 -504 l 117 -504 q 117 -506 116 -511 q 114 -516 113 -519 l 113 -519 q 111 -534 111 -535 l 111 -535 q 111 -556 142 -556 l 142 -556 q 206 -556 207 -498 z"},"ൗ":{"ha":454,"x_min":51,"x_max":454,"o":"m 454 -219 l 454 -219 q 454 -112 414 -58 l 414 -58 q 364 11 241 11 l 241 11 q 123 11 123 -42 l 123 -42 q 123 -63 140 -63 q 156 -63 187 -36 l 187 -36 q 216 -10 250 -10 l 250 -10 q 315 -10 342 -97 l 342 -97 q 359 -152 359 -232 l 359 -232 q 359 -268 352 -305 l 352 -305 q 342 -360 317 -360 l 317 -360 q 294 -360 294 -329 l 294 -329 l 294 -169 q 294 -152 279 -141 l 279 -141 q 264 -128 247 -128 l 247 -128 q 227 -128 210 -140 l 210 -140 q 194 -152 194 -170 l 194 -170 l 194 -328 q 194 -360 172 -360 l 172 -360 q 135 -360 135 -253 l 135 -253 q 135 -239 141 -213 q 146 -187 146 -172 l 146 -172 q 146 -155 134 -141 l 134 -141 q 121 -128 104 -128 l 104 -128 q 51 -128 51 -250 l 51 -250 q 51 -304 82 -344 l 82 -344 q 113 -382 167 -382 l 167 -382 q 234 -382 246 -336 l 246 -336 q 260 -382 321 -382 l 321 -382 q 454 -382 454 -219 z"},"ൠ":{"ha":593,"x_min":61,"x_max":596,"o":"m 596 -234 l 596 -234 q 596 -175 566 -130 l 566 -130 q 536 -82 486 -76 l 486 -76 l 486 -70 q 582 -55 582 29 l 582 29 q 582 102 493 134 l 493 134 q 427 159 326 159 l 326 159 q 225 159 161 134 l 161 134 q 77 102 77 29 l 77 29 q 77 -55 170 -70 l 170 -70 l 170 -74 q 113 -85 86 -132 l 86 -132 q 61 -174 61 -234 l 61 -234 q 61 -298 91 -338 l 91 -338 q 125 -384 189 -384 l 189 -384 q 236 -384 267 -352 q 298 -320 298 -271 l 298 -271 q 298 -225 268 -193 q 238 -162 193 -162 l 193 -162 q 167 -162 143 -178 q 119 -193 111 -221 l 111 -221 q 111 -96 326 -96 l 326 -96 q 544 -96 544 -221 l 544 -221 q 537 -193 513 -178 q 488 -162 460 -162 l 460 -162 q 416 -162 388 -194 q 359 -227 359 -273 l 359 -273 q 359 -322 390 -353 q 420 -384 468 -384 l 468 -384 q 527 -384 563 -337 l 563 -337 q 596 -296 596 -234 z m 525 -273 l 525 -273 q 525 -299 510 -316 q 494 -333 466 -333 l 466 -333 q 439 -333 423 -316 q 406 -299 406 -275 l 406 -275 q 406 -250 423 -230 q 439 -211 466 -211 l 466 -211 q 494 -211 510 -230 q 525 -249 525 -273 z m 246 -273 l 246 -273 q 246 -299 230 -316 q 215 -333 188 -333 q 160 -333 143 -316 q 126 -299 126 -275 l 126 -275 q 126 -250 143 -230 q 160 -211 188 -211 l 188 -211 q 214 -211 230 -230 q 246 -249 246 -273 z m 523 29 l 523 29 q 523 -42 326 -42 l 326 -42 q 134 -42 134 29 l 134 29 q 134 105 326 105 l 326 105 q 393 105 445 93 l 445 93 q 523 74 523 29 z m 457 31 l 457 31 q 457 49 438 65 q 420 81 395 81 l 395 81 l 379 50 q 391 50 402 43 q 414 36 414 31 l 414 31 q 414 14 373 14 l 373 14 q 354 14 354 21 l 354 21 l 354 79 l 309 79 l 309 21 q 309 14 285 14 l 285 14 q 246 14 246 31 l 246 31 q 246 37 257 44 q 268 52 281 55 l 281 55 l 264 82 q 202 68 202 32 l 202 32 q 202 10 226 -4 q 250 -18 285 -18 l 285 -18 q 313 -18 331 -7 l 331 -7 q 350 -18 375 -18 l 375 -18 q 410 -18 434 -4 q 457 10 457 31 z"},"ൡ":{"ha":834,"x_min":61,"x_max":834,"o":"m 834 -83 l 834 -83 q 834 14 779 82 l 779 82 q 723 156 627 156 l 627 156 q 570 156 523 124 l 523 124 l 544 81 q 584 111 627 111 l 627 111 q 700 111 744 50 l 744 50 q 784 -4 784 -80 l 784 -80 q 784 -218 693 -243 l 693 -243 q 714 -205 714 -156 l 714 -156 q 714 -87 686 -44 l 686 -44 q 652 7 587 7 l 587 7 q 525 7 494 -34 l 494 -34 q 464 -70 464 -133 l 464 -133 q 464 -200 503 -247 q 543 -294 609 -294 l 609 -294 q 587 -333 518 -333 l 518 -333 q 475 -333 448 -308 q 422 -283 422 -241 l 422 -241 l 422 0 l 367 0 l 367 -241 q 367 -284 339 -309 q 311 -333 268 -333 l 268 -333 q 202 -333 160 -288 q 117 -243 113 -178 l 113 -178 q 122 -203 152 -218 l 152 -218 q 177 -230 207 -230 l 207 -230 q 258 -230 293 -197 q 329 -163 329 -111 l 329 -111 q 329 -57 292 -25 q 256 7 200 7 l 200 7 q 131 7 94 -44 l 94 -44 q 61 -89 61 -160 l 61 -160 q 61 -236 100 -297 q 139 -357 209 -377 l 209 -377 q 236 -384 273 -384 l 273 -384 q 365 -384 395 -324 l 395 -324 q 421 -384 509 -384 l 509 -384 q 617 -384 668 -295 l 668 -295 q 750 -286 794 -225 l 794 -225 q 834 -168 834 -83 z m 665 -145 l 665 -145 q 665 -205 639 -249 l 639 -249 q 630 -250 621 -250 l 621 -250 q 572 -250 543 -217 q 514 -184 514 -132 l 514 -132 q 514 -94 531 -68 l 531 -68 q 550 -40 586 -40 l 586 -40 q 665 -40 665 -145 z m 266 -109 l 266 -109 q 266 -139 246 -160 q 227 -182 198 -182 l 198 -182 q 169 -182 148 -161 q 127 -141 127 -111 q 127 -82 148 -62 q 169 -42 198 -42 l 198 -42 q 227 -42 246 -62 q 266 -81 266 -109 z"},"൦":{"ha":568,"x_min":62,"x_max":545,"o":"m 293 -370 l 293 -370 q 283 -367 280 -375 l 280 -375 l 255 -376 q 230 -376 214 -363 l 214 -363 q 194 -350 182 -327 l 182 -327 q 166 -300 160 -272 l 160 -272 q 153 -244 153 -204 l 153 -204 q 153 -123 182 -83 l 182 -83 q 221 -30 255 -30 l 255 -30 q 271 -30 275 -31 l 275 -31 q 288 -42 295 -47 q 302 -53 307 -59 q 313 -64 316 -70 q 320 -76 327 -87 l 327 -87 q 344 -112 354 -146 l 354 -146 q 358 -175 358 -204 l 358 -204 q 358 -216 360 -228 l 360 -228 l 360 -235 q 355 -271 360 -294 l 360 -294 q 361 -304 372 -314 l 372 -314 q 385 -327 397 -324 l 397 -324 q 446 -314 445 -231 l 445 -231 q 449 -225 449 -204 l 449 -204 q 449 -128 399 -61 l 399 -61 q 378 -35 341 -19 l 341 -19 q 306 -4 256 -4 l 256 -4 q 157 -4 112 -61 l 112 -61 q 62 -128 62 -204 l 62 -204 q 62 -289 119 -350 l 119 -350 q 168 -402 269 -402 l 269 -402 l 289 -401 q 297 -403 301 -403 l 301 -403 l 499 -403 q 545 -403 545 -353 l 545 -353 q 545 -341 529 -339 q 514 -337 494 -341 q 474 -346 444 -351 q 415 -356 396 -357 l 396 -357 q 386 -357 344 -366 q 302 -375 293 -370 z"},"൧":{"ha":634,"x_min":133,"x_max":598,"o":"m 408 2 l 598 0 l 598 -218 q 599 -300 556 -340 q 514 -381 429 -381 l 429 -381 q 257 -381 257 -218 l 257 -218 l 257 -23 l 194 -23 q 142 -27 133 31 l 133 31 q 133 58 151 75 q 170 92 192 91 l 192 91 l 391 92 q 446 92 446 53 l 446 53 q 446 31 390 32 q 334 32 287 38 l 287 38 q 277 38 235 47 q 192 56 184 51 l 184 51 q 170 44 171 26 q 173 9 188 8 l 188 8 q 219 4 408 2 l 408 2 z m 500 -250 l 500 -23 l 357 -23 l 357 -254 q 357 -355 430 -355 l 430 -355 q 500 -355 500 -250 l 500 -250 z"},"൨":{"ha":540,"x_min":63,"x_max":540,"o":"m 539 -34 l 539 -33 l 367 -33 q 431 -107 431 -192 l 431 -192 q 431 -270 391 -319 l 391 -319 q 341 -382 242 -382 l 242 -382 q 149 -382 100 -311 l 100 -311 q 63 -259 63 -185 l 63 -185 q 63 8 149 8 l 149 8 q 167 8 178 -9 l 178 -9 q 188 -24 188 -38 l 188 -38 q 188 -64 175 -110 l 175 -110 q 162 -152 162 -203 l 162 -203 q 162 -252 181 -299 l 181 -299 q 204 -359 238 -359 l 238 -359 q 281 -359 307 -291 l 307 -291 q 327 -236 327 -184 l 327 -184 q 327 -121 306 -66 l 306 -66 l 285 -11 q 285 0 307 0 l 307 0 l 540 0 l 540 -16 l 539 -34 z"},"൩":{"ha":656,"x_min":61,"x_max":652,"o":"m 90 -392 l 90 -392 z m 652 0 l 652 -31 l 513 -31 q 571 -88 571 -190 l 571 -190 q 571 -382 418 -382 l 418 -382 q 377 -382 359 -376 l 359 -376 q 329 -366 317 -335 l 317 -335 q 299 -368 272 -376 l 272 -376 q 256 -382 211 -382 l 211 -382 q 61 -382 61 -183 l 61 -183 q 61 9 158 9 l 158 9 q 169 9 180 -2 l 180 -2 q 190 -15 190 -24 l 190 -24 q 190 -47 170 -99 l 170 -99 q 150 -146 150 -181 l 150 -181 q 150 -244 163 -289 l 163 -289 q 183 -360 223 -360 q 263 -360 263 -316 l 263 -316 l 263 -43 q 263 -21 279 -7 l 279 -7 q 295 9 315 9 q 336 9 351 -7 l 351 -7 q 366 -21 366 -43 l 366 -43 l 366 -316 q 366 -360 406 -360 q 446 -360 466 -289 l 466 -289 q 479 -244 479 -181 l 479 -181 q 479 -152 463 -100 l 463 -100 q 446 -50 446 -24 l 446 -24 q 446 0 475 0 l 475 0 l 652 0 z"},"൪":{"ha":513,"x_min":62,"x_max":512,"o":"m 383 -477 l 383 -477 q 383 -408 382 -363 l 382 -363 q 443 -339 479 -283 l 479 -283 q 512 -234 512 -175 l 512 -175 q 512 -99 480 -48 l 480 -48 q 442 10 374 10 l 374 10 q 302 10 264 -40 l 264 -40 q 231 -86 231 -156 l 231 -156 q 231 -226 245 -259 l 245 -259 q 247 -263 253 -290 q 260 -316 276 -344 l 276 -344 q 272 -345 276 -347 l 276 -347 q 271 -349 268 -349 l 268 -349 q 200 -349 176 -288 l 176 -288 q 161 -250 161 -167 l 161 -167 q 161 -119 171 -89 l 171 -89 q 181 -57 181 -43 l 181 -43 q 181 -15 176 -6 l 176 -6 q 167 9 141 9 l 141 9 q 113 9 92 -26 l 92 -26 q 62 -78 62 -179 l 62 -179 q 62 -274 112 -328 l 112 -328 q 162 -381 256 -381 l 256 -381 q 285 -381 290 -380 l 290 -380 q 295 -395 294 -437 q 294 -479 297 -490 l 297 -490 q 302 -509 323 -516 q 345 -523 364 -513 q 383 -503 383 -477 z m 417 -162 l 417 -162 q 417 -311 369 -311 l 369 -311 q 322 -311 322 -162 l 322 -162 q 322 -13 369 -13 l 369 -13 q 417 -13 417 -162 z"},"൫":{"ha":743,"x_min":40,"x_max":732,"o":"m 581 -14 l 581 -14 q 581 66 502 110 l 502 110 q 435 146 341 146 l 341 146 q 180 146 96 43 l 96 43 q 62 0 51 -60 q 40 -119 40 -212 l 40 -212 q 40 -232 41 -241 l 41 -241 q 41 -242 41 -244 q 40 -245 40 -246 l 40 -246 l 41 -252 q 45 -312 65 -347 l 65 -347 q 85 -400 120 -441 l 120 -441 q 151 -478 185 -498 q 218 -518 277 -534 l 277 -534 q 358 -556 395 -552 l 395 -552 q 450 -558 515 -541 l 515 -541 q 562 -528 595 -506 q 628 -483 668 -437 l 668 -437 q 724 -373 732 -285 l 732 -285 q 748 -202 731 -124 l 731 -124 q 714 -40 689 -6 q 664 28 624 20 l 624 20 q 600 14 601 -15 l 601 -15 q 601 -21 606 -53 l 606 -53 q 611 -68 626 -101 l 626 -101 q 642 -134 648 -164 l 648 -164 q 662 -224 657 -278 l 657 -278 l 664 -274 q 663 -275 653 -310 q 644 -344 636 -358 l 636 -358 q 631 -368 623 -385 q 614 -402 608 -410 l 608 -410 q 594 -427 577 -440 q 560 -453 542 -461 q 525 -470 507 -476 q 488 -482 470 -485 q 452 -488 433 -491 q 413 -494 396 -496 l 396 -496 q 358 -492 354 -492 l 354 -492 q 313 -489 287 -483 l 287 -483 q 268 -478 225 -457 l 225 -457 q 199 -438 177 -421 l 177 -421 q 137 -386 122 -358 l 122 -358 q 94 -274 94 -272 l 94 -272 q 85 -227 85 -204 l 85 -204 q 85 -66 125 0 l 125 0 q 154 49 220 81 q 285 112 344 112 l 344 112 q 404 112 440 78 l 440 78 q 476 46 476 -12 l 476 -12 q 476 -51 460 -82 l 460 -82 q 439 -122 406 -122 l 406 -122 l 371 -121 q 351 -123 351 -143 l 351 -143 q 351 -169 365 -169 l 365 -169 q 423 -169 448 -186 l 448 -186 q 477 -207 477 -264 l 477 -264 q 477 -360 378 -360 l 378 -360 q 318 -360 288 -299 l 288 -299 q 263 -250 263 -184 l 263 -184 q 263 -137 277 -99 l 277 -99 l 289 -72 q 298 -53 298 -45 l 298 -45 q 298 -24 284 -8 q 271 9 250 9 l 250 9 q 203 9 182 -59 l 182 -59 q 168 -105 168 -167 l 168 -167 q 168 -270 221 -325 l 221 -325 q 273 -382 374 -382 l 374 -382 q 464 -382 511 -362 l 511 -362 q 580 -333 580 -254 l 580 -254 q 580 -223 565 -191 l 565 -191 q 548 -156 521 -147 l 521 -147 q 581 -108 581 -14 z"},"൬":{"ha":777,"x_min":61,"x_max":777,"o":"m 777 -183 l 777 -183 q 777 -121 744 -40 q 710 42 664 98 q 617 153 585 147 l 585 147 q 583 147 574 148 q 565 148 558 148 q 550 147 547 145 l 547 145 q 534 130 534 114 l 534 114 q 534 74 581 56 l 581 56 q 616 42 643 -14 q 670 -69 679 -115 q 688 -160 688 -181 l 688 -181 q 688 -239 675 -288 l 675 -288 q 656 -358 615 -358 l 615 -358 q 575 -358 575 -310 l 575 -310 l 575 -43 q 575 -21 560 -7 l 560 -7 q 545 9 524 9 l 524 9 q 503 9 487 -7 q 472 -22 472 -43 l 472 -43 l 472 -310 q 472 -332 456 -345 l 456 -345 q 439 -358 418 -358 q 396 -358 381 -345 l 381 -345 q 366 -332 366 -310 l 366 -310 l 366 -43 q 366 -21 351 -7 l 351 -7 q 336 9 315 9 l 315 9 q 294 9 278 -7 q 263 -22 263 -43 l 263 -43 l 263 -310 q 263 -358 223 -358 l 223 -358 q 182 -358 163 -288 l 163 -288 q 150 -243 150 -181 l 150 -181 q 150 -141 166 -103 l 166 -103 q 190 -37 190 -24 l 190 -24 q 190 -15 180 -2 l 180 -2 q 169 9 158 9 l 158 9 q 61 9 61 -183 l 61 -183 q 61 -382 211 -382 l 211 -382 q 288 -382 317 -335 l 317 -335 q 341 -382 413 -382 l 413 -382 q 500 -382 526 -335 l 526 -335 q 553 -382 627 -382 l 627 -382 q 777 -382 777 -183 z"},"൭":{"ha":556,"x_min":59,"x_max":555,"o":"m 555 -172 l 555 -172 q 555 -51 469 54 l 469 54 q 389 151 247 151 l 247 151 q 196 151 153 133 l 153 133 l 153 132 q 85 108 94 65 l 94 65 q 99 51 116 52 l 116 52 q 118 51 141 56 l 141 56 q 143 56 146 58 q 149 60 157 63 q 164 65 171 68 l 171 68 q 193 79 212 84 l 212 84 q 310 107 381 53 l 381 53 q 388 46 399 32 l 399 32 q 427 -6 443 -58 l 443 -58 q 448 -75 451 -88 l 451 -88 q 453 -100 451 -110 l 451 -110 l 455 -109 q 460 -142 460 -170 l 460 -170 q 460 -269 418 -319 l 418 -319 q 365 -385 305 -385 l 305 -385 q 246 -385 205 -342 l 205 -342 q 165 -297 156 -225 l 156 -225 q 158 -227 160 -227 l 160 -227 q 164 -229 165 -229 l 165 -229 q 186 -240 232 -240 l 232 -240 q 304 -240 337 -207 l 337 -207 q 380 -164 380 -125 l 380 -125 q 380 -69 337 -38 q 294 -7 225 -7 l 225 -7 q 134 -7 96 -56 l 96 -56 q 59 -112 59 -178 l 59 -178 q 59 -270 127 -346 l 127 -346 q 186 -411 307 -411 l 307 -411 q 432 -411 490 -340 l 490 -340 q 555 -261 555 -172 z m 274 -122 l 274 -122 q 274 -160 260 -189 l 260 -189 q 247 -217 224 -217 q 200 -217 185 -189 l 185 -189 q 168 -161 168 -123 l 168 -123 q 168 -84 184 -59 l 184 -59 q 199 -32 223 -32 q 246 -32 260 -58 l 260 -58 q 274 -82 274 -122 z"},"൮":{"ha":571,"x_min":60,"x_max":573,"o":"m 572 -90 l 572 -90 q 572 -53 573 -24 q 573 4 566 28 q 559 52 540 66 l 540 66 q 480 113 381 121 l 381 121 q 247 131 241 66 l 241 66 q 239 46 262 41 l 262 41 q 265 39 293 36 l 293 36 q 304 36 334 40 l 334 40 q 367 44 388 43 l 388 43 q 448 38 475 0 l 475 0 l 305 0 q 283 0 283 -11 l 283 -11 l 304 -66 q 324 -122 324 -184 l 324 -184 q 324 -236 304 -291 l 304 -291 q 278 -359 236 -359 l 236 -359 q 201 -359 179 -299 l 179 -299 q 160 -252 160 -203 l 160 -203 q 160 -152 173 -110 l 173 -110 q 185 -66 185 -38 l 185 -38 q 185 -23 176 -9 l 176 -9 q 164 8 146 8 l 146 8 q 60 8 60 -185 l 60 -185 q 60 -258 98 -311 l 98 -311 q 146 -382 240 -382 l 240 -382 q 339 -382 389 -319 l 389 -319 q 429 -270 429 -192 l 429 -192 q 429 -96 365 -23 l 365 -23 l 469 -23 l 469 -337 q 469 -357 483 -369 l 483 -369 q 496 -382 518 -382 l 518 -382 q 571 -382 571 -337 l 571 -337 l 571 -109 q 573 -98 572 -90 z"},"൯":{"ha":695,"x_min":61,"x_max":695,"o":"m 601 -162 l 601 -162 q 601 -311 552 -311 l 552 -311 q 505 -311 505 -162 l 505 -162 q 505 -13 552 -13 l 552 -13 q 601 -13 601 -162 z m 582 -462 l 582 -358 q 629 -336 662 -283 l 662 -283 q 695 -235 695 -175 l 695 -175 q 695 -99 664 -48 l 664 -48 q 627 10 557 10 q 486 10 448 -40 l 448 -40 q 414 -86 414 -156 l 414 -156 q 414 -224 429 -259 l 429 -259 q 445 -299 494 -344 l 494 -344 q 484 -349 452 -349 l 452 -349 q 422 -349 397 -334 l 397 -334 q 366 -317 366 -289 l 366 -289 l 366 -43 q 366 -21 351 -6 l 351 -6 q 336 10 315 10 q 295 10 279 -6 l 279 -6 q 263 -22 263 -43 l 263 -43 l 263 -316 q 263 -357 217 -357 l 217 -357 q 150 -357 150 -181 l 150 -181 q 150 -143 165 -105 l 165 -105 l 181 -65 q 190 -39 190 -24 l 190 -24 q 190 -13 180 -2 l 180 -2 q 170 10 158 10 l 158 10 q 61 10 61 -183 l 61 -183 q 61 -382 211 -382 l 211 -382 q 297 -382 319 -330 l 319 -330 q 325 -356 368 -370 l 368 -370 q 402 -381 439 -381 l 439 -381 q 458 -381 492 -376 l 492 -376 q 494 -391 494 -429 q 494 -467 497 -476 l 497 -476 q 502 -493 523 -501 q 544 -509 563 -499 q 582 -488 582 -462 l 582 -462 z"},"‌":{"ha":156,"x_min":32,"x_max":109,"o":"m 32 -21 l 32 -504 l 109 -504 l 109 -21 l 32 -21 z"},"‍":{"ha":156,"x_min":-44,"x_max":189,"o":"m 109 -450 l 109 -21 l 32 -21 l 32 -445 l 68 -503 l 75 -503 l 109 -450 z m 139 -407 l 189 -407 l 98 -542 l 184 -661 l 132 -661 l 91 -602 q 75 -579 70 -573 l 70 -573 q 61 -591 55 -602 l 55 -602 l 16 -661 l -37 -661 l 47 -540 l -44 -407 l 7 -407 l 32 -445 l 32 -504 l 68 -503 l 72 -508 l 75 -503 l 109 -503 l 109 -450 l 139 -407 z"},"◌":{"ha":465,"x_min":20,"x_max":455,"o":"m 425 -327 l 425 -327 l 381 -297 q 361 -329 352 -335 l 352 -335 q 336 -346 326 -352 l 326 -352 l 355 -393 q 389 -371 402 -357 l 402 -357 q 418 -338 425 -327 z m 282 -422 l 282 -422 l 273 -373 q 248 -377 234 -377 q 221 -377 193 -373 l 193 -373 l 186 -422 q 215 -428 234 -428 l 234 -428 q 255 -428 282 -422 z m 398 -256 l 449 -264 q 455 -241 455 -218 q 455 -195 449 -173 l 449 -173 l 398 -182 q 402 -207 402 -218 l 402 -218 q 402 -232 398 -256 l 398 -256 z m 381 -141 l 425 -109 q 402 -77 391 -66 l 391 -66 q 389 -64 376 -57 q 363 -50 355 -45 l 355 -45 l 326 -86 q 355 -104 363 -113 l 363 -113 q 378 -135 381 -141 l 381 -141 z m 113 -393 l 145 -352 q 109 -332 105 -322 l 105 -322 l 100 -314 q 94 -307 89 -297 l 89 -297 l 45 -327 q 66 -357 78 -369 l 78 -369 q 83 -373 113 -393 l 113 -393 z m 72 -182 l 72 -182 l 20 -173 q 10 -218 20 -264 l 20 -264 l 72 -256 q 66 -242 66 -218 l 66 -218 q 66 -195 72 -182 z m 273 -64 l 282 -16 q 264 -10 234 -10 l 234 -10 q 207 -10 186 -16 l 186 -16 l 193 -64 q 221 -61 234 -61 q 248 -61 273 -64 l 273 -64 z m 145 -86 l 145 -86 l 113 -45 q 75 -68 66 -79 l 66 -79 l 45 -109 l 89 -141 q 109 -109 118 -104 l 118 -104 q 122 -100 145 -86 z"}}}
